<svg xmlns="http://www.w3.org/2000/svg" viewBox="0 0 150 150"><path fill="#FFF" d="M66.034 27.313l8.959.029c7.659 1.434 13.75 5.469 18.913 11.177 2.677 2.964 5.728 5.603 9.609 6.836 2.858.899 3.575 2.677 3.279 5.412-.908 8.28-3.882 15.633-9.103 22.164-9.686 12.124-9.829 14.638-1.645 27.738 1.702 2.715-.497 3.48-1.864 4.397-8.902 6.005-18.75 6.244-28.875 4.408-3.155-.573-6.014-1.932-8.72-3.681-3.021-1.951-4.331-3.672-1.147-6.951 1.195-1.233 1.09-1.903 1.625-2.878 1.855-3.987 2.744-8.061.937-12.325-1.109-1.902-1.97-4.025-3.385-5.65-7.295-8.386-11.349-18.128-12.621-29.096 0-2.696-.009-5.393-.009-8.089.382-4.102 3.107-6.263 6.444-8.118 5.507-3.049 11.579-4.082 17.603-5.373z"/><path fill="#FFF" d="M69.198 21.691c-7.362.086-14.504 1.654-21.456 5.335-.392-2.448 1.147-3.471 2.199-4.666 5.268-5.966 12.497-7.85 19.869-9.399 3.671-.736 6.1-.946 9.15-.029 2.467.564 4.972 1.033 7.41 1.731 10.737 3.06 17.392 10.02 19.706 20.987.268 1.281 1.434 2.983-.211 3.863-1.396.755-2.648-.688-3.776-1.492-3.614-2.582-6.971-5.613-10.106-8.615-6.607-6.3-14.389-7.81-22.785-7.715z"/><path fill="#939393" d="M65.307 109.475c10.125 1.836 19.973 1.597 28.875-4.408 1.367-.917 3.566-1.683 1.864-4.397-8.185-13.1-8.041-15.614 1.645-27.738 5.221-6.531 8.194-13.883 9.103-22.164.296-2.734-.421-4.513-3.279-5.412-3.882-1.233-6.933-3.873-9.609-6.836-5.163-5.708-11.254-9.743-18.913-11.177l-8.959-.029c-6.024 1.291-12.095 2.324-17.603 5.374-3.337 1.855-6.062 4.016-6.444 8.118 0 2.696.009 5.393.009 8.089 1.272 10.967 5.326 20.71 12.621 29.096 1.415 1.625 2.276 3.748 3.385 5.65 1.807 4.265.918 8.338-.937 12.325-.535.975-.43 1.645-1.625 2.878-3.184 3.279-1.874 5 1.147 6.951 2.706 1.748 5.565 3.106 8.72 3.68zM47.743 27.027c6.951-3.681 14.094-5.25 21.456-5.335 8.396-.096 16.178 1.415 22.785 7.716 3.136 3.002 6.492 6.033 10.106 8.615 1.128.803 2.381 2.247 3.776 1.492 1.645-.88.479-2.582.211-3.863-2.314-10.967-8.969-17.928-19.706-20.987-2.438-.698-4.943-1.167-7.41-1.731-3.05-.917-5.479-.708-9.15.029-7.372 1.549-14.601 3.433-19.869 9.399-1.052 1.194-2.591 2.217-2.199 4.665zM67.716 2.139c5.048-.603 8.405-.698 13.415.086 26.055 2.4 40.158 21.991 36.917 49.557-1.367 11.588-5.622 21.8-13.319 30.606-4.838 5.535-4.179 7.859 2.754 10.794 13.376 5.68 24.802 13.721 32.155 26.648 3.853 6.778 5.899 14.064 5.698 21.924-.096 3.471-1.396 6.014-5.183 6.148-3.758.143-5.411-2.151-5.593-5.709-.918-17.401-11.273-28.053-25.605-35.95-2.506-1.377-4.179-.899-6.378.784-16.436 12.544-39.221 12.334-55.37-.393-1.358-1.07-2.543-1.816-4.274-.956-11.865 5.928-22 13.549-26.485 26.772-.985 2.887-1.396 5.87-1.511 8.911-.153 3.91-1.482 7.228-6.033 6.97-4.599-.268-5.402-3.892-5.23-7.658.622-13.481 6.463-24.478 16.312-33.437 6.311-5.746 13.597-9.973 21.465-13.224 7.429-3.069 7.965-4.608 2.754-10.967C32.617 68.906 29.126 52.642 31.833 35.03 34.71 16.395 47.016 5.495 67.716 2.139z"/></svg>