<svg id="Capa_1" enable-background="new 0 0 512 512" height="512" viewBox="0 0 512 512" width="512" xmlns="http://www.w3.org/2000/svg" xmlns:xlink="http://www.w3.org/1999/xlink"><linearGradient id="SVGID_1_" gradientUnits="userSpaceOnUse" x1="8.753" x2="524.202" y1="401.161" y2="103.566"><stop offset="0" stop-color="#d2deff" stop-opacity="0"/><stop offset=".459" stop-color="#cee2fd" stop-opacity=".67"/><stop offset=".6852" stop-color="#c9e7fa"/></linearGradient><g><g><path d="m418.32 2.5c-55.666-9.521-178.298 12.183-200.004 105.017-14.431 61.722-14.007 112.075-50.427 113.02-21.67.562-32.97-44.31-62.889-48.001-39.047-4.817-66.145 27.695-83.057 57.138-37.205 64.772-25.571 174.918 23.354 228.632 118.488 130.086 259.197-5.952 319.358-112.309 38.585-68.213 125.637-123.352 143.767-200.248 15.177-64.376-18.503-131.003-90.102-143.249z" fill="url(#SVGID_1_)"/></g><g><g><g><g><g><path d="m415.239 213.887v-140.731c0-8.284-6.716-15-15-15h-261.87c-8.284 0-15 6.716-15 15v390.692c0 8.284 6.716 15 15 15h261.87c8.284 0 15-6.716 15-15v-150.723c.298-.02.594-.031.893-.057 24.303-2.063 43.747-21.949 45.306-46.29 1.78-27.783-19.267-51.046-46.199-52.891z" fill="#bae1f8"/><g><g><path d="m415.234 48.152v390.7c0 8.28-6.71 15-15 15h-261.86c-8.29 0-15-6.72-15-15v-390.7c0-8.28 6.71-15 15-15h261.86c8.29 0 15 6.72 15 15z" fill="#fff"/><path d="m415.234 212.132v99.27c-11.45.77-22.13-2.35-30.88-8.15l-15.87 6.99c-3.28 1.44-6.61-1.9-5.17-5.17l6.98-15.87c-5.95-8.98-9.07-19.99-8.07-31.78 2.07-24.3 21.95-43.75 46.29-45.31 2.27-.15 4.51-.14 6.72.02z" fill="#226191"/><g><g><path d="m217.574 270.992v55.41c0 2.76-2.24 5-5 5h-62.04c-2.76 0-5-2.24-5-5v-55.41c0-2.76 2.24-5 5-5h62.04c2.76 0 5 2.24 5 5z" fill="#2a719b"/><g><g><path d="m177.056 350.715h-26.52c-2.762 0-5-2.239-5-5s2.238-5 5-5h26.52c2.762 0 5 2.239 5 5s-2.238 5-5 5z" fill="#a9d2ea"/></g><g><path d="m212.572 350.715h-16.52c-2.762 0-5-2.239-5-5s2.238-5 5-5h16.52c2.762 0 5 2.239 5 5s-2.239 5-5 5z" fill="#a9d2ea"/></g><g><path d="m215.072 369.215h-64.535c-2.762 0-5-2.239-5-5s2.238-5 5-5h64.535c2.762 0 5 2.239 5 5s-2.239 5-5 5z" fill="#a9d2ea"/></g></g></g><g><path d="m304.074 270.992v55.41c0 2.76-2.24 5-5 5h-62.04c-2.76 0-5-2.24-5-5v-55.41c0-2.76 2.24-5 5-5h62.04c2.76 0 5 2.24 5 5z" fill="#2d719b"/><g><g><path d="m263.556 350.715h-26.52c-2.762 0-5-2.239-5-5s2.238-5 5-5h26.52c2.762 0 5 2.239 5 5s-2.238 5-5 5z" fill="#a9d2ea"/></g><g><path d="m299.072 350.715h-16.52c-2.762 0-5-2.239-5-5s2.238-5 5-5h16.52c2.762 0 5 2.239 5 5s-2.239 5-5 5z" fill="#a9d2ea"/></g><g><path d="m301.572 369.215h-64.535c-2.762 0-5-2.239-5-5s2.238-5 5-5h64.535c2.762 0 5 2.239 5 5s-2.239 5-5 5z" fill="#a9d2ea"/></g><g><g><path d="m326.572 415.445h-114.535c-2.762 0-5-2.239-5-5s2.238-5 5-5h114.535c2.762 0 5 2.239 5 5s-2.239 5-5 5z" fill="#73aacf"/></g></g></g></g><g><path d="m390.574 270.992v55.41c0 2.76-2.24 5-5 5h-62.04c-2.76 0-5-2.24-5-5v-55.41c0-2.76 2.24-5 5-5h62.04c2.76 0 5 2.24 5 5z" fill="#2a719b"/><path d="m390.574 270.992v35.77c-2.16-1.02-4.24-2.2-6.22-3.51l-15.87 6.99c-3.28 1.44-6.61-1.9-5.17-5.17l6.98-15.87c-4.48-6.76-7.35-14.68-8.07-23.21h23.35c2.76 0 5 2.24 5 5z" fill="#226191"/><g><g><path d="m350.056 350.715h-26.52c-2.762 0-5-2.239-5-5s2.238-5 5-5h26.52c2.762 0 5 2.239 5 5s-2.238 5-5 5z" fill="#a9d2ea"/></g><g><path d="m385.572 350.715h-16.52c-2.762 0-5-2.239-5-5s2.238-5 5-5h16.52c2.762 0 5 2.239 5 5s-2.239 5-5 5z" fill="#a9d2ea"/></g><g><path d="m388.072 369.215h-64.535c-2.762 0-5-2.239-5-5s2.238-5 5-5h64.535c2.762 0 5 2.239 5 5s-2.239 5-5 5z" fill="#a9d2ea"/></g></g></g></g><path d="m415.239 222.528v-174.372c0-8.284-6.716-15-15-15h-261.87c-8.284 0-15 6.716-15 15v174.372z" fill="#3e85a9"/><path d="m415.239 94.502v-46.346c0-8.284-6.716-15-15-15h-261.87c-8.284 0-15 6.716-15 15v46.346z" fill="#226191"/></g><g><g><path d="m162.583 68.887c-2.761 0-5-2.238-5-5v-.115c0-2.762 2.239-5 5-5s5 2.238 5 5v.115c0 2.761-2.238 5-5 5z" fill="#fff"/></g><g><path d="m182.697 68.887c-2.761 0-5-2.238-5-5v-.115c0-2.762 2.239-5 5-5s5 2.238 5 5v.115c0 2.761-2.239 5-5 5z" fill="#fff"/></g><g><path d="m202.81 68.887c-2.761 0-5-2.238-5-5v-.115c0-2.762 2.239-5 5-5s5 2.238 5 5v.115c0 2.761-2.239 5-5 5z" fill="#fff"/></g><g><g><path d="m376.025 68.829h-41.52c-2.762 0-5-2.239-5-5s2.238-5 5-5h41.52c2.762 0 5 2.239 5 5s-2.238 5-5 5z" fill="#fff"/></g><g><path d="m317.275 68.829h-6.52c-2.762 0-5-2.239-5-5s2.238-5 5-5h6.52c2.762 0 5 2.239 5 5s-2.238 5-5 5z" fill="#fff"/></g></g></g></g></g><g><g><path d="m368.51 399.788c1.28 0 2.559.488 3.535 1.464l5.657 5.656c.938.938 1.465 2.21 1.465 3.536s-.527 2.598-1.464 3.535l-5.657 5.657c-1.952 1.953-5.119 1.952-7.071.001-1.953-1.953-1.953-5.119 0-7.071l2.121-2.122-2.121-2.12c-1.953-1.953-1.953-5.119 0-7.071.975-.977 2.255-1.465 3.535-1.465z" fill="#ff7eb8"/></g><g><path d="m170.098 421.101c-1.28 0-2.559-.488-3.535-1.464l-5.657-5.656c-.938-.938-1.465-2.21-1.465-3.536s.527-2.598 1.464-3.535l5.657-5.657c1.952-1.953 5.119-1.952 7.071-.001 1.953 1.953 1.953 5.119 0 7.071l-2.121 2.122 2.121 2.12c1.953 1.953 1.953 5.119 0 7.071-.975.977-2.255 1.465-3.535 1.465z" fill="#ff7eb8"/></g></g></g><g><g><path d="m461.439 246.779c1.925-30.06-22.862-54.848-52.922-52.922-24.34 1.559-44.226 21.004-46.29 45.306-1.001 11.788 2.122 22.803 8.072 31.781l-6.986 15.866c-1.443 3.277 1.896 6.615 5.173 5.173l15.866-6.986c8.978 5.95 19.993 9.073 31.781 8.072 24.302-2.064 43.746-21.95 45.306-46.29z" fill="#ff7eb8"/><g><g><g><path d="m212 448.849h-73.631c-5.514 0-10-4.486-10-10v-390.693c0-5.514 4.486-10 10-10h261.87c5.514 0 10 4.486 10 10v111.756c0 2.762 2.239 5 5 5s5-2.238 5-5v-111.756c0-11.028-8.972-20-20-20h-261.87c-11.028 0-20 8.972-20 20v390.692c0 11.028 8.972 20 20 20h73.631c2.761 0 5-2.238 5-5s-2.239-4.999-5-4.999z" fill="#014073"/></g><g><g><path d="m450.507 204.787c-11.127-11.127-26.552-16.932-42.31-15.921-26.779 1.715-48.684 23.156-50.952 49.874-.982 11.567 1.575 22.783 7.41 32.613l-5.918 13.441c-1.495 3.396-.766 7.284 1.858 9.907 2.623 2.622 6.512 3.351 9.906 1.856l13.44-5.919c8.029 4.766 16.984 7.341 26.299 7.592v140.617c0 5.514-4.486 10-10 10h-154.24c-2.761 0-5 2.238-5 5s2.239 5 5 5h154.239c11.028 0 20-8.972 20-20v-141.252c24.979-3.873 44.553-24.962 46.189-50.497 1.01-15.762-4.793-31.184-15.921-42.311zm-34.798 83.299c-10.232.866-20.121-1.642-28.596-7.258-.832-.551-1.794-.832-2.763-.832-.684 0-1.37.14-2.015.424l-13.332 5.871 5.871-13.333c.686-1.558.532-3.357-.408-4.776-5.617-8.477-8.126-18.364-7.258-28.596 1.853-21.824 19.749-39.339 41.627-40.739 12.89-.844 25.504 3.916 34.6 13.012 9.096 9.095 13.838 21.707 13.013 34.601-1.401 21.877-18.915 39.773-40.739 41.626z" fill="#014073"/></g></g></g></g></g><g fill="#fff"><circle cx="392.773" cy="242.918" r="5.59"/><circle cx="412.684" cy="242.918" r="5.59"/><circle cx="432.594" cy="242.918" r="5.59"/></g></g><path d="m277.366 138.733c-1.48-6.315-4.403-11.651-8.744-16-4.742-4.742-10.664-8.097-17.782-10.078-15.445-4.295-31.939-4.195-47.584-1.002-12.985 2.645-27.366 7.534-35.255 18.93-10.071 14.551-.81 36.905 17.635 36.905 22.925 0 31.931-29.533 12.145-41.786 5.382-2.159 15.63-5.143 25.786-1.959 7.904 2.475 13.325 9.847 13.348 18.128v23.241c0 5.336-2.521 9.538-7.557 12.6-20.843 12.661-50.044 13.633-66.098 33.782-2.599 3.269-4.488 7.032-5.675 11.034h41.254c2.637-11.042 16.031-16.725 22.956-21.159 7.711-4.742 12.746-9.091 15.121-13.047v34.206h42.673v-58.01c-.003-10.864-.743-19.454-2.223-25.785z" fill="#ff7eb8"/><g><g><path d="m330.282 141.412h-66.52c-2.762 0-5-2.239-5-5s2.238-5 5-5h66.52c2.762 0 5 2.239 5 5s-2.238 5-5 5z" fill="#fff"/></g><g><path d="m380.282 159.912h-116.52c-2.762 0-5-2.239-5-5s2.238-5 5-5h116.52c2.762 0 5 2.239 5 5s-2.238 5-5 5z" fill="#fff"/></g><g><path d="m380.282 178.412h-116.52c-2.762 0-5-2.239-5-5s2.238-5 5-5h116.52c2.762 0 5 2.239 5 5s-2.238 5-5 5z" fill="#fff"/></g><circle cx="380.787" cy="136.412" fill="#ff7eb8" r="5"/></g><g><g fill="#3e85a9"><circle cx="231.983" cy="242.918" r="5"/><circle cx="250.644" cy="242.918" r="5"/><circle cx="269.304" cy="242.918" r="5"/><circle cx="287.965" cy="242.918" r="5"/></g><circle cx="306.625" cy="242.918" fill="#ff7eb8" r="5"/></g><g fill="#73aacf"><path d="m287.974 281.532c-14.43 0-26.17 11.74-26.17 26.18 0 7.11 2.86 13.57 7.49 18.29-1.58 1.61-2.95 3.43-4.07 5.4h33.85c2.76 0 5-2.24 5-5v-39.32c-4.44-3.48-10.03-5.55-16.1-5.55zm0 36.6c-5.74 0-10.42-4.68-10.42-10.42 0-5.75 4.68-10.42 10.42-10.42 5.75 0 10.42 4.67 10.42 10.42 0 5.74-4.67 10.42-10.42 10.42z"/><path d="m173.414 278.332c-5.55 0-10.59 2.24-14.27 5.85-3.54-3.46-8.33-5.67-13.61-5.83v12.31c4.17.34 7.46 3.85 7.46 8.1s-3.29 7.76-7.46 8.1v12.3c5.28-.16 10.07-2.36 13.61-5.82 3.68 3.61 8.72 5.84 14.27 5.84 11.27 0 20.43-9.16 20.43-20.42s-9.16-20.43-20.43-20.43zm0 28.56c-4.48 0-8.13-3.65-8.13-8.13s3.65-8.13 8.13-8.13c4.49 0 8.13 3.65 8.13 8.13s-3.64 8.13-8.13 8.13z"/></g></g><path d="m61.457 299.009c-2.761 0-5-2.238-5-5 0-3.309-2.691-6-6-6-2.761 0-5-2.238-5-5s2.239-5 5-5c3.309 0 6-2.691 6-6 0-2.762 2.239-5 5-5s5 2.238 5 5c0 3.309 2.691 6 6 6 2.761 0 5 2.238 5 5s-2.239 5-5 5c-3.309 0-6 2.691-6 6 0 2.762-2.239 5-5 5z" fill="#ff7eb8"/></g><path d="m72.457 154.909c-1.28 0-2.559-.488-3.536-1.465-1.953-1.952-1.953-5.118 0-7.07l10-10c1.953-1.953 5.118-1.953 7.071 0 1.953 1.952 1.953 5.118 0 7.07l-10 10c-.976.977-2.256 1.465-3.535 1.465z" fill="#2a719b"/><path d="m438.184 350.009c-1.28 0-2.559-.488-3.536-1.465-1.953-1.952-1.953-5.118 0-7.07l10-10c1.953-1.953 5.118-1.953 7.071 0 1.953 1.952 1.953 5.118 0 7.07l-10 10c-.976.977-2.256 1.465-3.535 1.465z" fill="#2a719b"/><g fill="#ff7eb8"><path d="m443.184 132.842c-1.28 0-2.559-.488-3.536-1.465-1.953-1.952-1.953-5.118 0-7.07l10-10c1.953-1.953 5.118-1.953 7.071 0 1.953 1.952 1.953 5.118 0 7.07l-10 10c-.976.977-2.256 1.465-3.535 1.465z"/><path d="m83.713 352.402c-2.761 0-5-2.238-5-5 0-3.309-2.691-6-6-6-2.761 0-5-2.238-5-5s2.239-5 5-5c3.309 0 6-2.692 6-6.001 0-2.762 2.239-5 5-5s5 2.238 5 5c0 3.309 2.691 6.001 6 6.001 2.761 0 5 2.238 5 5s-2.239 5-5 5c-3.309 0-6 2.691-6 6 0 2.762-2.238 5-5 5z"/></g></g></g></svg>