<svg id="Capa_1" enable-background="new 0 0 512 512" height="512" viewBox="0 0 512 512" width="512" xmlns="http://www.w3.org/2000/svg" xmlns:xlink="http://www.w3.org/1999/xlink"><linearGradient id="SVGID_1_" gradientUnits="userSpaceOnUse" x1="0" x2="512" y1="256" y2="256"><stop offset="0" stop-color="#d2deff" stop-opacity="0"/><stop offset=".459" stop-color="#cee2fd" stop-opacity=".67"/><stop offset=".6852" stop-color="#c9e7fa"/></linearGradient><g><g><path d="m20.337 133.512c-23.967 39.398-26.493 107.613-8.937 150.256 15.377 37.351 45.966 72.409 86.12 76.801 14.766 1.615 29.858-1.024 44.472 1.638 50.257 9.152 68.952 71.09 108.01 104.014 27.182 22.913 64.898 31.021 100.174 26.607s68.302-20.363 97.376-40.824c22.957-16.157 44.436-36.022 55.764-61.707 23.744-53.839-4.19-118.501-47.587-158.239-13.516-12.377-28.581-23.294-39.875-37.727s-18.48-33.695-13.099-51.214c4.293-13.977 15.849-24.812 20.227-38.763 5.958-18.984-3.035-40.281-17.802-53.616s-34.308-20.039-53.666-24.64c-81.103-19.28-258.823-11.524-331.177 107.414z" fill="url(#SVGID_1_)"/></g><g><g><path d="m420.948 78.705c-1.958-.65-4.037-.997-6.198-1.028.08-.001.157-.012.238-.012h-.54-280.02c-11.51 0-20.84 9.33-20.84 20.83v307.92h-30.45c-5.523 0-10 4.477-10 10v17.08c0 11.51 9.33 20.84 20.83 20.84h279.35 1.21c-.204 0-.402-.025-.605-.031 11.218-.323 20.225-9.504 20.225-20.799v-287.34h31.14c5.523 0 10-4.477 10-10v-37.67c.001-9.23-6.01-17.07-14.34-19.79z" fill="#bae1f8"/><g><g><path d="m379.728 78.495v47.67h45.56c5.523 0 10-4.477 10-10v-37.67c0-9.23-6.01-17.07-14.34-19.79-2.05-.68-4.23-1.04-6.5-1.04h-55.55c11.5 0 20.83 9.33 20.83 20.83z" fill="#226191"/><path d="m414.988 57.665c-11.51 0-20.84 9.33-20.84 20.83v335.01c0 11.5-9.33 20.83-20.83 20.83h-259.73v-355.84c0-11.5 9.33-20.83 20.84-20.83z" fill="#fff"/><path d="m394.148 158v-79.505c0-11.5 9.33-20.83 20.84-20.83h-280.56c-11.51 0-20.84 9.33-20.84 20.83v79.505z" fill="#a9d2ea"/><path d="m374.528 434.335h-280.56c-11.5 0-20.83-9.33-20.83-20.84v-17.08c0-5.523 4.477-10 10-10h260.56c5.523 0 10 4.477 10 10v17.08c0 11.51 9.33 20.84 20.83 20.84z" fill="#226191"/><path d="m422.521 53.959c-2.288-.759-4.676-1.187-7.11-1.276-.14-.012-.28-.018-.423-.018h-280.56c-14.248 0-25.84 11.587-25.84 25.83v302.923h-25.448c-8.271 0-15 6.729-15 15v17.083c0 14.245 11.589 25.834 25.833 25.834h279.346 1.213c.346 0 .683-.035 1.009-.102 13.206-1.131 23.608-12.234 23.608-25.728v-253.339c0-2.762-2.238-5-5-5s-5 2.238-5 5v253.339c0 8.524-6.777 15.477-15.224 15.799-8.448-.322-15.227-7.277-15.227-15.803v-17.083c0-8.271-6.729-15-15-15h-196.109c-2.762 0-5 2.238-5 5s2.238 5 5 5h196.109c2.757 0 5 2.243 5 5v17.083c0 5.962 2.029 11.457 5.434 15.834h-260.159c-8.73 0-15.833-7.104-15.833-15.834v-17.083c0-2.757 2.243-5 5-5h30.448c2.762 0 5-2.238 5-5v-307.923c0-8.729 7.105-15.83 15.84-15.83h260.155c-3.405 4.376-5.435 9.87-5.435 15.83v47.67c0 2.762 2.238 5 5 5h31.14c8.271 0 15-6.729 15-15v-37.67c0-11.206-7.148-21.069-17.767-24.536zm7.767 62.206c0 2.757-2.243 5-5 5h-26.14v-42.67c0-8.639 6.961-15.684 15.57-15.828 1.603.027 3.168.291 4.678.791 6.515 2.127 10.892 8.17 10.892 15.037z" fill="#014073"/></g></g><g><circle cx="274.844" cy="171.333" fill="#2a719b" r="71.417"/><g><path d="m346.262 295.665h-142.836c-1.792 0-3.447-.959-4.338-2.514-.892-1.555-.882-3.467.023-5.014l71.418-121.926c.897-1.531 2.539-2.473 4.314-2.473s3.417.941 4.314 2.473l71.418 121.926c.905 1.547.915 3.459.023 5.014-.889 1.555-2.544 2.514-4.336 2.514zm-134.113-10h125.389l-62.694-107.033z" fill="#ff7eb8"/></g><path d="m316.244 229.53c-2.71 1.93-5.56 3.68-8.53 5.22l-32.87-56.12-32.87 56.12c-2.97-1.54-5.82-3.29-8.53-5.22l37.09-63.32c.89-1.53 2.53-2.47 4.31-2.47s3.42.94 4.31 2.47z" fill="#bae1f8"/></g><circle cx="152.713" cy="109.894" fill="#ff7eb8" r="7.979"/><g><g><g><path d="m159.399 339.212h11.52c2.762 0 5-2.239 5-5s-2.238-5-5-5h-11.52c-2.762 0-5 2.239-5 5s2.239 5 5 5z" fill="#a9d2ea"/><path d="m190.933 339.212h46.52c2.762 0 5-2.239 5-5s-2.238-5-5-5h-46.52c-2.762 0-5 2.239-5 5s2.238 5 5 5z" fill="#a9d2ea"/><path d="m154.56 198.953v91.52c0 2.762 2.239 5 5 5s5-2.238 5-5v-91.52c0-2.762-2.239-5-5-5s-5 2.238-5 5z" fill="#3e85a9"/></g><path d="m237.452 349.879h-78.053c-2.762 0-5 2.239-5 5s2.238 5 5 5h78.053c2.762 0 5-2.239 5-5s-2.238-5-5-5z" fill="#a9d2ea"/></g><g fill="#a9d2ea"><path d="m349.027 329.212h-78.053c-2.762 0-5 2.239-5 5s2.238 5 5 5h78.053c2.762 0 5-2.239 5-5s-2.238-5-5-5z"/><path d="m349.027 349.879h-78.053c-2.762 0-5 2.239-5 5s2.238 5 5 5h78.053c2.762 0 5-2.239 5-5s-2.238-5-5-5z"/></g></g><path d="m147.701 158.667c-2.936 2.998-4.755 7.095-4.755 11.613 0 2.761 2.238 5 5 5s5-2.239 5-5c0-3.646 2.967-6.613 6.613-6.613s6.613 2.967 6.613 6.613c0 2.761 2.238 5 5 5s5-2.239 5-5c0-4.518-1.818-8.615-4.755-11.613 2.936-2.998 4.755-7.095 4.755-11.613 0-9.161-7.453-16.613-16.613-16.613s-16.613 7.453-16.613 16.613c.001 4.517 1.819 8.615 4.755 11.613zm18.472-11.614c0 3.646-2.967 6.613-6.613 6.613s-6.613-2.967-6.613-6.613 2.967-6.613 6.613-6.613 6.613 2.967 6.613 6.613z" fill="#73aacf"/></g><path d="m456.74 150.44c-1.279 0-2.56-.488-3.535-1.465-1.953-1.952-1.953-5.118 0-7.07l10-10c1.951-1.953 5.119-1.953 7.07 0 1.953 1.952 1.953 5.118 0 7.07l-10 10c-.975.977-2.255 1.465-3.535 1.465z" fill="#2a719b"/><g fill="#ff7eb8"><path d="m56.26 349.212c-1.279 0-2.56-.488-3.535-1.465-1.953-1.952-1.953-5.118 0-7.07l10-10c1.951-1.953 5.119-1.953 7.07 0 1.953 1.952 1.953 5.118 0 7.07l-10 10c-.976.977-2.256 1.465-3.535 1.465z"/><path d="m446.288 202.28c-2.762 0-5-2.238-5-5 0-3.309-2.691-6-6-6-2.762 0-5-2.238-5-5s2.238-5 5-5c3.309 0 6-2.691 6-6 0-2.762 2.238-5 5-5s5 2.238 5 5c0 3.309 2.691 6 6 6 2.762 0 5 2.238 5 5s-2.238 5-5 5c-3.309 0-6 2.691-6 6 0 2.762-2.238 5-5 5z"/><path d="m56.26 151.44c-2.762 0-5-2.238-5-5 0-3.309-2.691-6-6-6-2.762 0-5-2.238-5-5s2.238-5 5-5c3.309 0 6-2.691 6-6 0-2.762 2.238-5 5-5s5 2.238 5 5c0 3.309 2.691 6 6 6 2.762 0 5 2.238 5 5s-2.238 5-5 5c-3.309 0-6 2.691-6 6 0 2.762-2.239 5-5 5z"/><path d="m440.001 390.762c-2.762 0-5-2.238-5-5 0-3.309-2.691-6-6-6-2.762 0-5-2.238-5-5s2.238-5 5-5c3.309 0 6-2.691 6-6 0-2.762 2.238-5 5-5s5 2.238 5 5c0 3.309 2.691 6 6 6 2.762 0 5 2.238 5 5s-2.238 5-5 5c-3.309 0-6 2.691-6 6 0 2.761-2.238 5-5 5z"/></g></g></g></svg>