<svg id="Capa_1" enable-background="new 0 0 512 512" height="512" viewBox="0 0 512 512" width="512" xmlns="http://www.w3.org/2000/svg" xmlns:xlink="http://www.w3.org/1999/xlink"><linearGradient id="SVGID_1_" gradientUnits="userSpaceOnUse" x1="0" x2="512" y1="256" y2="256"><stop offset="0" stop-color="#ffdbed" stop-opacity="0"/><stop offset="1" stop-color="#ffdbed"/></linearGradient><path d="m418.32 2.5c-55.666-9.521-178.298 12.183-200.004 105.017-14.431 61.722-14.007 112.075-50.427 113.02-21.67.562-32.97-44.31-62.889-48.001-39.047-4.817-66.145 27.695-83.057 57.138-37.205 64.772-25.571 174.918 23.354 228.632 118.488 130.086 259.197-5.952 319.358-112.309 38.585-68.213 125.637-123.352 143.767-200.248 15.177-64.376-18.503-131.003-90.102-143.249z" fill="url(#SVGID_1_)"/><path d="m291.184 244.228-33.957 39.411h-175.245c-5.523 0-10 4.477-10 10v185.999c0 5.523 4.477 10 10 10h335.037c5.523 0 10-4.477 10-10v-228.882c0-5.523-4.477-10-10-10h-118.259c-2.911 0-5.677 1.268-7.576 3.472z" fill="#6583fe" opacity=".2"/><path d="m388.261 314.815h-159.404c-7.261 0-13.147-5.886-13.147-13.147v-266.16c0-7.261 5.886-13.147 13.147-13.147h159.404c7.261 0 13.147 5.886 13.147 13.147v266.159c0 7.261-5.886 13.148-13.147 13.148z" fill="#fff"/><path d="m401.408 67.365v-31.857c0-7.261-5.886-13.147-13.147-13.147h-159.404c-7.261 0-13.147 5.886-13.147 13.147v31.856h185.698z" fill="#ff7eb8"/><g fill="#fff"><path d="m250.08 49.296c-2.42 0-4.382-1.962-4.382-4.382v-.101c0-2.421 1.962-4.382 4.382-4.382s4.382 1.962 4.382 4.382v.101c0 2.42-1.962 4.382-4.382 4.382z"/><path d="m267.709 49.296c-2.42 0-4.382-1.962-4.382-4.382v-.101c0-2.421 1.962-4.382 4.382-4.382s4.382 1.962 4.382 4.382v.101c0 2.42-1.962 4.382-4.382 4.382z"/><path d="m285.338 49.296c-2.42 0-4.382-1.962-4.382-4.382v-.101c0-2.421 1.962-4.382 4.382-4.382s4.382 1.962 4.382 4.382v.101c0 2.42-1.962 4.382-4.382 4.382z"/><path d="m367.038 49.245h-23.244c-2.421 0-4.382-1.962-4.382-4.382s1.962-4.382 4.382-4.382h23.244c2.421 0 4.382 1.962 4.382 4.382s-1.962 4.382-4.382 4.382z"/><path d="m328.692 49.245h-5.714c-2.421 0-4.382-1.962-4.382-4.382s1.962-4.382 4.382-4.382h5.714c2.421 0 4.382 1.962 4.382 4.382s-1.961 4.382-4.382 4.382z"/></g><path d="m368.166 129.289h-119.656c-2.421 0-4.382-1.962-4.382-4.382s1.962-4.382 4.382-4.382h119.655c2.421 0 4.382 1.962 4.382 4.382.001 2.42-1.961 4.382-4.381 4.382z" fill="#d2deff"/><circle cx="368.608" cy="99.927" fill="#ff7eb8" r="4.382"/><path d="m368.166 145.504h-119.656c-2.421 0-4.382-1.962-4.382-4.382s1.962-4.382 4.382-4.382h119.655c2.421 0 4.382 1.962 4.382 4.382.001 2.42-1.961 4.382-4.381 4.382z" fill="#d2deff"/><path d="m368.166 161.719h-119.656c-2.421 0-4.382-1.962-4.382-4.382s1.962-4.382 4.382-4.382h119.655c2.421 0 4.382 1.962 4.382 4.382s-1.961 4.382-4.381 4.382z" fill="#d2deff"/><path d="m368.166 177.933h-119.656c-2.421 0-4.382-1.962-4.382-4.382s1.962-4.382 4.382-4.382h119.655c2.421 0 4.382 1.962 4.382 4.382s-1.961 4.382-4.381 4.382z" fill="#d2deff"/><path d="m368.166 194.148h-119.656c-2.421 0-4.382-1.962-4.382-4.382s1.962-4.382 4.382-4.382h119.655c2.421 0 4.382 1.962 4.382 4.382.001 2.42-1.961 4.382-4.381 4.382z" fill="#d2deff"/><path d="m109.302 340.719v-239.926c0-4.841 3.924-8.765 8.765-8.765h182.955c4.841 0 8.765 3.924 8.765 8.765v239.926c0 4.841-3.924 8.765-8.765 8.765h-182.956c-4.84 0-8.764-3.924-8.764-8.765z" fill="#d2deff"/><path d="m287.874 118.322v139.132h-156.661v-139.132c0-2.42 1.962-4.382 4.382-4.382h147.896c2.421 0 4.383 1.962 4.383 4.382z" fill="#4369fd"/><circle cx="197.327" cy="192.842" fill="#ff7eb8" r="33.547"/><path d="m287.874 257.454v-66.955c-11.697-4.07-24.278-6.286-37.364-6.286-48.526 0-89.934 30.431-106.225 73.241z" fill="#01eca5"/><path d="m249.527 257.454h-118.314v-45.288c12.289-8.023 26.958-12.679 42.717-12.679 36.199 0 66.667 24.578 75.597 57.967z" fill="#97ffd2"/><path d="m283.492 277.309h-147.896c-2.42 0-4.382-1.962-4.382-4.382v-28.339h156.661v28.339c-.001 2.42-1.963 4.382-4.383 4.382z" fill="#fff"/><path d="m291.184 224.228-33.957 39.411h-175.245c-5.523 0-10 4.477-10 10v185.999c0 5.523 4.477 10 10 10h335.037c5.523 0 10-4.477 10-10v-228.882c0-5.523-4.477-10-10-10h-118.259c-2.911 0-5.677 1.268-7.576 3.472z" fill="#6583fe"/><path d="m427.018 426.357h-319.518c-2.761 0-5-2.239-5-5v-105.664c0-2.761 2.239-5 5-5h319.518z" fill="#d2deff"/><path d="m417.017 215.756-10.607.003v-180.249c0-10.008-8.142-18.149-18.15-18.149h-159.4c-10.008 0-18.15 8.142-18.15 18.149v51.519h-92.644c-7.59 0-13.765 6.175-13.765 13.765v128.206c0 2.762 2.239 5 5 5s5-2.238 5-5v-128.207c0-2.076 1.689-3.765 3.765-3.765h182.955c2.076 0 3.765 1.688 3.765 3.765v114.963h-6.026c-4.37 0-8.512 1.898-11.364 5.209l-32.461 37.675h-172.954c-8.271 0-15 6.729-15 15v185.999c0 8.271 6.729 15 15 15h335.037c8.271 0 15-6.729 15-15v-228.883c.001-8.272-6.728-15-15.001-15zm5.002 243.883c0 2.757-2.243 5-5 5h-335.038c-2.757 0-5-2.243-5-5v-185.999c0-2.757 2.243-5 5-5h175.245c1.455 0 2.838-.634 3.788-1.736l33.957-39.411c.951-1.104 2.332-1.736 3.788-1.736h68.65c2.761 0 5-2.238 5-5s-2.239-5-5-5h-52.624v-114.964c0-7.59-6.175-13.765-13.765-13.765h-80.31v-51.518c0-4.493 3.656-8.149 8.15-8.149h159.4c4.494 0 8.15 3.656 8.15 8.149v185.25c0 1.326.527 2.599 1.465 3.536s2.21 1.464 3.537 1.464l15.607-.004c2.757 0 5 2.243 5 5z" fill="#2626bc"/><path d="m117.5 346.454v-14.655c0-2.761 2.239-5 5-5h14.655c4.455 0 6.685 5.386 3.536 8.536l-14.655 14.655c-3.15 3.149-8.536.919-8.536-3.536z" fill="#ff7eb8"/><path d="m309.358 385.055h71.52c2.762 0 5-2.239 5-5s-2.238-5-5-5h-71.52c-2.762 0-5 2.239-5 5s2.239 5 5 5z" fill="#9fb0fe"/><path d="m209.358 403.721h171.52c2.762 0 5-2.239 5-5s-2.238-5-5-5h-171.52c-2.762 0-5 2.239-5 5s2.239 5 5 5z" fill="#9fb0fe"/><path d="m349.121 361.556c-2.936 2.998-4.755 7.095-4.755 11.613 0 2.761 2.238 5 5 5s5-2.239 5-5c0-3.646 2.967-6.613 6.613-6.613s6.613 2.967 6.613 6.613c0 2.761 2.238 5 5 5s5-2.239 5-5c0-4.518-1.818-8.615-4.755-11.613 2.936-2.998 4.755-7.095 4.755-11.613 0-9.161-7.453-16.613-16.613-16.613s-16.613 7.453-16.613 16.613c0 4.517 1.819 8.615 4.755 11.613zm18.472-11.614c0 3.646-2.967 6.613-6.613 6.613s-6.613-2.967-6.613-6.613 2.967-6.613 6.613-6.613 6.613 2.967 6.613 6.613z" fill="#ff7eb8"/><circle cx="385.878" cy="328.329" fill="#ffa8cf" r="5"/><path d="m144.285 60.863c-2.761 0-5-2.238-5-5 0-3.309-2.691-6-6-6-2.761 0-5-2.238-5-5s2.239-5 5-5c3.309 0 6-2.691 6-6 0-2.762 2.239-5 5-5s5 2.238 5 5c0 3.309 2.691 6 6 6 2.761 0 5 2.238 5 5s-2.239 5-5 5c-3.309 0-6 2.691-6 6 0 2.762-2.239 5-5 5z" fill="#01eca5"/><path d="m62.5 168.954c-2.761 0-5-2.238-5-5 0-3.309-2.691-6-6-6-2.761 0-5-2.238-5-5s2.239-5 5-5c3.309 0 6-2.691 6-6 0-2.762 2.239-5 5-5s5 2.238 5 5c0 3.309 2.691 6 6 6 2.761 0 5 2.238 5 5s-2.239 5-5 5c-3.309 0-6 2.691-6 6 0 2.762-2.239 5-5 5z" fill="#6583fe"/><path d="m435.5 171.719c-1.28 0-2.559-.488-3.536-1.465-1.953-1.952-1.953-5.118 0-7.07l10-10c1.953-1.953 5.118-1.953 7.071 0 1.953 1.952 1.953 5.118 0 7.07l-10 10c-.976.976-2.255 1.465-3.535 1.465z" fill="#ff7eb8"/><path d="m57.5 219.756c-1.28 0-2.559-.488-3.536-1.465-1.953-1.952-1.953-5.118 0-7.07l10-10c1.953-1.953 5.118-1.953 7.071 0 1.953 1.952 1.953 5.118 0 7.07l-10 10c-.976.977-2.255 1.465-3.535 1.465z" fill="#ff7eb8"/><path d="m450.5 277.665c-1.28 0-2.559-.488-3.536-1.465-1.953-1.952-1.953-5.118 0-7.07l10-10c1.953-1.953 5.118-1.953 7.071 0 1.953 1.952 1.953 5.118 0 7.07l-10 10c-.976.977-2.255 1.465-3.535 1.465z" fill="#01eca5"/></svg>