<svg id="Capa_1" enable-background="new 0 0 512 512" height="512" viewBox="0 0 512 512" width="512" xmlns="http://www.w3.org/2000/svg" xmlns:xlink="http://www.w3.org/1999/xlink"><linearGradient id="SVGID_1_" gradientUnits="userSpaceOnUse" x1="48.606" x2="438.791" y1="463.622" y2="-1.382"><stop offset="0" stop-color="#d2deff" stop-opacity="0"/><stop offset=".459" stop-color="#cee2fd" stop-opacity=".67"/><stop offset=".6852" stop-color="#c9e7fa"/></linearGradient><g><g><path d="m418.32 2.5c-55.666-9.521-178.298 12.183-200.004 105.017-14.431 61.722-14.007 112.075-50.427 113.02-21.67.562-32.97-44.31-62.889-48.001-39.047-4.817-66.145 27.695-83.057 57.138-37.205 64.772-25.571 174.918 23.354 228.632 118.488 130.086 259.197-5.952 319.358-112.309 38.585-68.213 125.637-123.352 143.767-200.248 15.177-64.376-18.503-131.003-90.102-143.249z" fill="url(#SVGID_1_)"/></g><g><path d="m458.715 149.794h-203.565v-60.625c0-8.29-6.71-15-15-15h-181.86c-8.29 0-15 6.71-15 15v353.67c0 8.28 6.71 15 15 15h181.86c8.29 0 15-6.72 15-15v-36.348h20.005c2.761 0 5-2.239 5-5v-19.282h178.56c5.523 0 10-4.477 10-10v-212.415c0-5.523-4.477-10-10-10z" fill="#bae1f8"/><g><g><g><g><g><g><g><path d="m255.15 69.169v353.67c0 8.28-6.71 15-15 15h-181.86c-8.29 0-15-6.72-15-15v-353.67c0-8.29 6.71-15 15-15h181.86c8.29 0 15 6.71 15 15z" fill="#fff"/><path d="m255.15 69.161v172.51h-211.86v-172.51c0-8.28 6.71-15 15-15h181.86c8.29 0 15 6.72 15 15z" fill="#3e85a9"/><g><circle cx="146.139" cy="133.339" fill="#3e85a9" r="71.417"/><g><path d="m187.54 191.541v-.01l-37.09-63.32c-.23-.38-.5-.72-.8-1.02-.46-.46-1-.82-1.6-1.07-.59-.25-1.24-.38-1.91-.38s-1.31.14-1.91.38c-.4.16-.77.38-1.11.64-.52.39-.96.88-1.29 1.45l-37.09 63.32-29.37 50.14h11.58l26.32-44.92 32.87-56.11 32.87 56.11 26.31 44.92h11.59z" fill="#ff7eb8"/></g><path d="m187.539 191.536c-2.71 1.93-5.56 3.68-8.53 5.22l-32.87-56.12-32.87 56.12c-2.97-1.54-5.82-3.29-8.53-5.22l37.09-63.32c.89-1.53 2.53-2.47 4.31-2.47s3.42.94 4.31 2.47z" fill="#ff7eb8"/></g><path d="m255.155 105.512v-36.346c0-8.284-6.716-15-15-15h-181.87c-8.284 0-15 6.716-15 15v36.346z" fill="#226191"/><g fill="#fff"><path d="m82.499 84.896c-2.761 0-5-2.238-5-5v-.115c0-2.762 2.239-5 5-5s5 2.238 5 5v.115c0 2.762-2.238 5-5 5z"/><path d="m102.613 84.896c-2.761 0-5-2.238-5-5v-.115c0-2.762 2.239-5 5-5s5 2.238 5 5v.115c0 2.762-2.239 5-5 5z"/><path d="m122.726 84.896c-2.761 0-5-2.238-5-5v-.115c0-2.762 2.239-5 5-5s5 2.238 5 5v.115c0 2.762-2.239 5-5 5z"/><path d="m215.941 84.839h-26.52c-2.762 0-5-2.239-5-5s2.238-5 5-5h26.52c2.762 0 5 2.239 5 5s-2.239 5-5 5z"/><path d="m172.191 84.839h-6.52c-2.762 0-5-2.239-5-5s2.238-5 5-5h6.52c2.762 0 5 2.239 5 5s-2.239 5-5 5z"/></g></g></g></g></g><g><path d="m152.228 326.164h-71.52c-2.762 0-5-2.239-5-5s2.238-5 5-5h71.52c2.762 0 5 2.239 5 5s-2.238 5-5 5z" fill="#a9d2ea"/><circle cx="217.733" cy="292.664" fill="#ff7eb8" r="5"/><g><g><path d="m217.228 344.664h-136.52c-2.762 0-5-2.239-5-5s2.238-5 5-5h136.52c2.762 0 5 2.239 5 5s-2.238 5-5 5z" fill="#a9d2ea"/></g></g><g><g><path d="m217.228 363.164h-136.52c-2.762 0-5-2.239-5-5s2.238-5 5-5h136.52c2.762 0 5 2.239 5 5s-2.238 5-5 5z" fill="#a9d2ea"/></g></g><g><g><path d="m217.228 381.664h-136.52c-2.762 0-5-2.239-5-5s2.238-5 5-5h136.52c2.762 0 5 2.239 5 5s-2.238 5-5 5z" fill="#a9d2ea"/></g></g></g></g></g><g><g><path d="m280.15 110.509v270.98c0 2.76-2.23 5-5 5h-85.73c-2.76 0-5-2.24-5-5v-270.98c0-2.76 2.24-5 5-5h85.73c2.77 0 5 2.24 5 5z" fill="#2a719b"/><path d="m205 105.509v280.98h-15.58c-2.76 0-5-2.24-5-5v-270.98c0-2.76 2.24-5 5-5z" fill="#226191"/><path d="m184.421 348.334v33.156c0 2.761 2.239 5 5 5h85.734c2.761 0 5-2.239 5-5v-33.156z" fill="#2a719b"/><path d="m205 348.339v38.15h-15.58c-2.76 0-5-2.24-5-5v-33.15z" fill="#226191"/></g><g><g><path d="m458.715 129.794h-274.294v232.415h274.294c5.523 0 10-4.477 10-10v-212.415c0-5.523-4.477-10-10-10z" fill="#a9d2ea"/><path d="m184.421 129.794h20.579v232.415h-20.579z" fill="#73aacf"/><path d="m438.72 200.659v90.68c0 2.53-1.92 4.6-4.43 4.91-16.47 2-29.53 15.06-31.54 31.52-.31 2.52-2.38 4.44-4.91 4.44h-213.42v-172.41h213.42c2.53 0 4.6 1.92 4.91 4.43 2.01 16.47 15.07 29.52 31.54 31.53 2.51.3 4.43 2.37 4.43 4.9z" fill="#3e85a9"/><path d="m184.42 159.799h20.58v172.41h-20.58z" fill="#3e85a9"/><path d="m418.72 212.379v67.24c-15.03 5.69-26.91 17.57-32.59 32.59h-201.71v-132.41h201.71c5.68 15.02 17.56 26.9 32.59 32.58z" fill="#fff"/><path d="m184.42 179.799h20.58v132.41h-20.58z" fill="#fff"/><g><circle cx="267.459" cy="246.001" fill="#3e85a9" r="51.316"/><g><g><circle cx="367.126" cy="246.001" fill="#73aacf" r="17.167"/></g></g><path d="m273.975 241.001h-1.516v-10.18h9.453c2.762 0 5-2.238 5-5s-2.238-5-5-5h-9.453v-2.514c0-2.762-2.238-5-5-5s-5 2.238-5 5v2.514h-1.516c-8.32 0-15.09 6.77-15.09 15.09s6.77 15.09 15.09 15.09h1.516v10.18h-9.453c-2.762 0-5 2.238-5 5s2.238 5 5 5h9.453v2.514c0 2.762 2.238 5 5 5s5-2.238 5-5v-2.514h1.516c8.32 0 15.09-6.77 15.09-15.09-.001-8.32-6.77-15.09-15.09-15.09zm-13.032 0c-2.807 0-5.09-2.283-5.09-5.09s2.283-5.09 5.09-5.09h1.516v10.18zm13.032 20.18h-1.516v-10.18h1.516c2.807 0 5.09 2.283 5.09 5.09-.001 2.807-2.284 5.09-5.09 5.09z" fill="#fff"/></g><g><g><g><path d="m425.547 170.373c-2.761 0-5-2.238-5-5v-5.282c0-2.762 2.239-5 5-5s5 2.238 5 5v5.282c0 2.762-2.239 5-5 5z" fill="#ff7eb8"/></g><g><path d="m440.297 170.373c-2.761 0-5-2.238-5-5v-5.282c0-2.762 2.239-5 5-5s5 2.238 5 5v5.282c0 2.762-2.239 5-5 5z" fill="#ff7eb8"/></g></g></g></g><path d="m458.715 124.794h-173.565v-14.284c0-5.514-4.486-10-10-10h-14.995v-31.344c0-11.028-8.973-20-20-20h-181.87c-11.028 0-20 8.972-20 20v140.223c0 2.762 2.239 5 5 5s5-2.238 5-5v-140.223c0-5.514 4.486-10 10-10h181.87c5.514 0 10 4.486 10 10v31.344h-60.735c-5.514 0-10 4.486-10 10v270.98c0 5.514 4.486 10 10 10h60.735v31.347c0 5.514-4.486 10-10 10h-181.87c-5.514 0-10-4.486-10-10v-179.447c0-2.762-2.239-5-5-5s-5 2.238-5 5v179.447c0 11.028 8.972 20 20 20h181.87c11.028 0 20-8.972 20-20v-31.347h14.995c5.514 0 10-4.486 10-10v-14.281h173.564c8.271 0 15-6.729 15-15v-212.415c.001-8.272-6.728-15-14.999-15zm-183.565 256.696h-85.73v-14.281h85.73zm188.565-29.281c0 2.757-2.243 5-5 5h-269.295v-222.415h56.729c2.761 0 5-2.238 5-5s-2.239-5-5-5h-56.729v-14.284h85.73v19.284c0 2.762 2.238 5 5 5h178.564c2.757 0 5 2.243 5 5v212.415z" fill="#014073"/></g></g><path d="m117.22 291.051c0-9.161-7.453-16.613-16.613-16.613s-16.613 7.453-16.613 16.613c0 4.518 1.818 8.615 4.755 11.613-2.936 2.998-4.755 7.095-4.755 11.613 0 2.761 2.238 5 5 5s5-2.239 5-5c0-3.646 2.967-6.613 6.613-6.613s6.613 2.967 6.613 6.613c0 2.761 2.238 5 5 5s5-2.239 5-5c0-4.518-1.818-8.615-4.755-11.613 2.937-2.997 4.755-7.095 4.755-11.613zm-16.613-6.613c3.646 0 6.613 2.967 6.613 6.613s-2.967 6.613-6.613 6.613-6.613-2.967-6.613-6.613 2.966-6.613 6.613-6.613z" fill="#a9d2ea"/></g><path d="m329.775 90.839c-2.762 0-5-2.238-5-5 0-3.309-2.691-6-6-6-2.762 0-5-2.238-5-5s2.238-5 5-5c3.309 0 6-2.691 6-6 0-2.762 2.238-5 5-5s5 2.238 5 5c0 3.309 2.691 6 6 6 2.762 0 5 2.238 5 5s-2.238 5-5 5c-3.309 0-6 2.691-6 6 0 2.762-2.238 5-5 5z" fill="#ff7eb8"/><path d="m384.293 424.335c-2.762 0-5-2.238-5-5 0-3.309-2.691-6-6-6-2.762 0-5-2.238-5-5s2.238-5 5-5c3.309 0 6-2.691 6-6 0-2.762 2.238-5 5-5s5 2.238 5 5c0 3.309 2.691 6 6 6 2.762 0 5 2.238 5 5s-2.238 5-5 5c-3.309 0-6 2.691-6 6 0 2.762-2.238 5-5 5z" fill="#ff7eb8"/><path d="m431.388 84.781c-1.279 0-2.56-.488-3.535-1.465-1.953-1.952-1.953-5.118 0-7.07l10-10c1.951-1.953 5.119-1.953 7.07 0 1.953 1.952 1.953 5.118 0 7.07l-10 10c-.976.977-2.256 1.465-3.535 1.465z" fill="#2a719b"/><path d="m296.57 434.335c-1.279 0-2.56-.488-3.535-1.465-1.953-1.952-1.953-5.118 0-7.07l10-10c1.951-1.953 5.119-1.953 7.07 0 1.953 1.952 1.953 5.118 0 7.07l-10 10c-.975.977-2.255 1.465-3.535 1.465z" fill="#2a719b"/><path d="m401.69 454.335c-1.279 0-2.56-.488-3.535-1.465-1.953-1.952-1.953-5.118 0-7.07l10-10c1.951-1.953 5.119-1.953 7.07 0 1.953 1.952 1.953 5.118 0 7.07l-10 10c-.975.977-2.255 1.465-3.535 1.465z" fill="#ff7eb8"/></g></g></svg>