<svg id="Capa_1" enable-background="new 0 0 512 512" height="512" viewBox="0 0 512 512" width="512" xmlns="http://www.w3.org/2000/svg" xmlns:xlink="http://www.w3.org/1999/xlink"><linearGradient id="SVGID_1_" gradientUnits="userSpaceOnUse" x1="0" x2="512" y1="256" y2="256"><stop offset="0" stop-color="#d2deff" stop-opacity="0"/><stop offset=".459" stop-color="#cee2fd" stop-opacity=".67"/><stop offset=".6852" stop-color="#c9e7fa"/></linearGradient><g><g><path d="m4.896 324.259c17.448 172.871 292.417 167.142 420.804 136.265 82.47-19.834 87.596-59.472 86.106-144.001-.96-54.486 3.443-198.725-32.004-244.123-54.448-69.733-103.228-25.998-170.656-3.235-86.488 29.197-120.189-22.932-202.476-21.38-120.641 2.278-110.779 187.252-101.774 276.474z" fill="url(#SVGID_1_)"/></g><g><circle cx="320.927" cy="307.893" fill="#73aacf" r="51.201"/><g><path d="m464.796 169.69c-.356-2.645-2.369-4.772-4.926-5.539l-61.726-18.505h-61.88c-2.053-11.514-12.108-20.258-24.213-20.258-12.104 0-22.16 8.744-24.213 20.258h-230.695c-5.523 0-10 4.477-10 10v29.901c0 5.523 4.477 10 10 10h58.994c-1.109 2.33-1.886 4.857-2.213 7.544l-8.353 68.618c-.79 6.493 1.517 12.98 6.229 17.516l43.931 42.283h.004v63.276h-3.733c-2.874 0-5.205 2.33-5.205 5.205v34.086c0 2.874 2.33 5.205 5.205 5.205h3.733v17.699c0 5.523 4.477 10 10 10h130.352c5.523 0 10-4.477 10-10v-17.699h4.143c2.874 0 5.205-2.33 5.205-5.205v-34.085c0-2.874-2.33-5.205-5.205-5.205h-4.143v-52.865l18.268-19.226c4.32-4.538 6.735-10.565 6.735-16.842v-99.071c2.604-3.178 4.421-7.021 5.172-11.234h61.88l61.971-18.578c3.103-.93 5.127-3.98 4.683-7.279z" fill="#bae1f8"/><g><path d="m459.87 144.151-61.726-18.505h-341c-5.523 0-10 4.477-10 10v29.901c0 5.523 4.477 10 10 10h341l61.971-18.578c3.101-.93 5.125-3.979 4.681-7.279-.357-2.646-2.37-4.773-4.926-5.539z" fill="#2a719b"/><path d="m83.643 125.646h-26.5c-5.523 0-10 4.477-10 10v29.901c0 5.523 4.477 10 10 10h26.5z" fill="#73aacf"/><path d="m398.143 175.547 61.971-18.578c2.814-.844 4.742-3.434 4.742-6.372s-1.928-5.528-4.742-6.372l-61.971-18.578s-10 7.854-10 24.95c0 17.403 10 24.95 10 24.95z" fill="#fff"/><path d="m460.115 144.224-27.221-8.161s-3.25 4.312-3.25 14.533c0 10.154 3.25 14.533 3.25 14.533l27.221-8.161c2.814-.844 4.742-3.434 4.742-6.372s-1.928-5.528-4.742-6.372z" fill="#2a719b"/><g><g><g><g><g><path d="m331.09 154.44v131.41c0 6.28-2.41 12.31-6.73 16.84l-18.27 19.23v125.06h-150.35v-292.54z" fill="#fff"/><g fill="#bae1f8"><path d="m331.09 257.7v28.15c0 6.28-2.41 12.31-6.73 16.84l-18.27 19.23v34.99c-21.04-6.36-36.36-25.9-36.36-49.02 0-28.27 22.92-51.2 51.2-51.2 3.48 0 6.88.35 10.16 1.01z"/><path d="m260.381 203.035c0 19.57-15.864 35.423-35.423 35.423h-69.222v-53.962h86.106c5.121 0 9.754 2.071 13.116 5.423 3.352 3.363 5.423 7.995 5.423 13.116z"/><path d="m331.091 154.445v55.69c-5.746 2.821-12.21 4.403-19.039 4.403-9.358 0-18.018-2.988-25.107-8.046-7.266 5.069-16.082 8.046-25.586 8.046-24.712 0-44.822-20.1-44.822-44.822v-15.27h114.554z"/></g><path d="m155.736 403.556h150.352v44.5h-150.352z" fill="#73aacf"/><g fill="#fff"><path d="m154.18 195.805c-14.929 0-27.031-12.102-27.031-27.031v-45.791c0-14.929 12.102-27.031 27.031-27.031 14.929 0 27.031 12.102 27.031 27.031v45.791c0 14.928-12.102 27.031-27.031 27.031z"/><path d="m208.242 195.805c-14.929 0-27.031-12.102-27.031-27.031v-45.791c0-14.929 12.102-27.031 27.031-27.031 14.929 0 27.031 12.102 27.031 27.031v45.791c0 14.928-12.102 27.031-27.031 27.031z"/><path d="m261.36 195.805c-14.408 0-26.087-11.68-26.087-26.087v-44.01c0-14.408 11.68-26.087 26.087-26.087 14.408 0 26.087 11.68 26.087 26.087v44.01c.001 14.407-11.679 26.087-26.087 26.087z"/><path d="m312.051 195.805c-13.588 0-24.603-11.015-24.603-24.603v-41.21c0-13.588 11.015-24.603 24.603-24.603 13.588 0 24.603 11.015 24.603 24.603v41.21c0 13.587-11.015 24.603-24.603 24.603z"/></g><path d="m251.898 300.324c0-88.016-75.835-84.756-75.835-84.756h48.891c19.566 0 35.428-15.862 35.428-35.428 0-10.241-8.302-18.544-18.544-18.544h-103.644c-12.36 0-22.776 9.225-24.27 21.495l-8.353 68.618c-.79 6.493 1.517 12.979 6.229 17.515l43.931 42.284z" fill="#fff"/></g></g><path d="m310.231 419.278h-158.227c-2.874 0-5.205-2.33-5.205-5.205v-34.085c0-2.874 2.33-5.205 5.205-5.205h158.227c2.874 0 5.205 2.33 5.205 5.205v34.085c0 2.875-2.33 5.205-5.205 5.205z" fill="#ff7eb8"/></g><path d="m287.448 85.023c-2.762 0-5-2.239-5-5 0-3.309-2.691-6-6-6-2.762 0-5-2.239-5-5s2.238-5 5-5c3.309 0 6-2.691 6-6 0-2.761 2.238-5 5-5s5 2.239 5 5c0 3.309 2.691 6 6 6 2.762 0 5 2.239 5 5s-2.238 5-5 5c-3.309 0-6 2.691-6 6 0 2.761-2.238 5-5 5z" fill="#ff7eb8"/><path d="m72.644 240.538c-2.762 0-5-2.239-5-5 0-3.309-2.691-6-6-6-2.762 0-5-2.239-5-5s2.238-5 5-5c3.309 0 6-2.691 6-6 0-2.761 2.238-5 5-5s5 2.239 5 5c0 3.309 2.691 6 6 6 2.762 0 5 2.239 5 5s-2.238 5-5 5c-3.309 0-6 2.691-6 6 0 2.761-2.239 5-5 5z" fill="#2a719b"/><g fill="#ff7eb8"><path d="m360.235 383.804c-2.762 0-5-2.239-5-5 0-3.309-2.691-6-6-6-2.762 0-5-2.239-5-5s2.238-5 5-5c3.309 0 6-2.691 6-6 0-2.761 2.238-5 5-5s5 2.239 5 5c0 3.309 2.691 6 6 6 2.762 0 5 2.239 5 5s-2.238 5-5 5c-3.309 0-6 2.691-6 6 0 2.761-2.238 5-5 5z"/><path d="m216.938 60.023c-1.279 0-2.56-.488-3.535-1.464-1.953-1.953-1.953-5.119 0-7.071l10-10c1.951-1.952 5.119-1.952 7.07 0 1.953 1.953 1.953 5.119 0 7.071l-10 10c-.976.976-2.256 1.464-3.535 1.464z"/></g></g></g></g><path d="m429.644 214.538c-1.279 0-2.56-.488-3.535-1.464-1.953-1.953-1.953-5.119 0-7.071l10-10c1.951-1.952 5.119-1.952 7.07 0 1.953 1.953 1.953 5.119 0 7.071l-10 10c-.976.975-2.256 1.464-3.535 1.464z" fill="#2a719b"/></g><g><circle cx="320.927" cy="287.893" fill="#ff7eb8" r="51.201"/><circle cx="320.927" cy="287.893" fill="#fff" r="36.805"/><path d="m469.751 149.022c-.608-4.514-3.923-8.306-8.445-9.661l-61.727-18.505c-.466-.14-.949-.21-1.436-.21h-58.01c-3.923-11.756-15.025-20.258-28.083-20.258-9.318 0-17.638 4.331-23.069 11.082-5.174-9.997-15.61-16.85-27.622-16.85-10.317 0-19.47 5.056-25.128 12.815-5.478-9.822-15.969-16.482-27.99-16.482-11.355 0-21.342 5.944-27.031 14.879-5.69-8.935-15.676-14.879-27.031-14.879-16.875 0-30.734 13.12-31.937 29.694h-65.098c-8.271 0-15 6.729-15 15v29.901c0 8.271 6.729 15 15 15h52.127c-.121.64-.23 1.285-.309 1.939l-8.354 68.619c-.974 8.008 1.914 16.128 7.726 21.722l42.399 40.809v28.363c0 2.761 2.238 5 5 5s5-2.239 5-5v-30.492c0-1.359-.554-2.66-1.532-3.603l-43.933-42.284c-3.561-3.427-5.33-8.402-4.733-13.309l8.353-68.618c1.188-9.748 9.488-17.099 19.308-17.099h103.644c7.468 0 13.544 6.076 13.544 13.544 0 16.778-13.649 30.428-30.428 30.428h-46.297c-1.603-.04-2.595-.004-2.809.004-2.717.117-4.843 2.384-4.784 5.103s2.279 4.893 4.999 4.893h1.928c6.478.15 29.864 1.901 47.385 18.749 14.28 13.732 21.521 34.258 21.521 61.008 0 2.761 2.238 5 5 5s5-2.239 5-5c0-29.634-8.306-52.616-24.687-68.308-5.021-4.81-10.4-8.547-15.771-11.448h8.514c14.766 0 27.702-7.961 34.758-19.813.546.03 1.095.05 1.648.05 10.7 0 20.155-5.435 25.75-13.688 5.265 8.222 14.474 13.688 24.941 13.688 5.075 0 9.856-1.285 14.035-3.545v34.68c-1.7-.156-3.418-.246-5.158-.246-30.989 0-56.201 25.211-56.201 56.201 0 24.009 15.138 44.54 36.366 52.575v29.314h-47.047v-22.214c0-2.761-2.238-5-5-5s-5 2.239-5 5v22.213h-92.042c-5.627 0-10.205 4.578-10.205 10.205v34.085c0 5.196 3.906 9.488 8.934 10.117v22.791c0 2.761 2.238 5 5 5s5-2.239 5-5v-22.703h140.36v22.703c0 2.761 2.238 5 5 5s5-2.239 5-5v-22.746c5.224-.44 9.343-4.825 9.343-10.161v-34.085c0-5.336-4.118-9.721-9.343-10.161v-26.612c3.196.567 6.479.879 9.835.879 30.989 0 56.2-25.211 56.2-56.201 0-25.737-17.396-47.473-41.042-54.107v-44.094c0-.368-.046-.725-.121-1.071 3.573-4.892 5.689-10.912 5.689-17.421v-40.556h55.756l61.024 18.295c.746.223 1.324.806 1.406 1.417.11.821-.378 1.587-1.161 1.822l-61.27 18.368h-27.16c-2.762 0-5 2.239-5 5s2.238 5 5 5h27.894c.486 0 .97-.071 1.436-.21l61.973-18.579c5.52-1.656 8.968-7.012 8.198-12.736zm-317.952 230.966c0-.113.092-.205.205-.205h158.228c.112 0 .204.092.204.205v34.085c0 .113-.092.205-.204.205h-158.228c-.113 0-.205-.092-.205-.205zm215.329-92.094c0 25.475-20.726 46.201-46.2 46.201-25.476 0-46.201-20.726-46.201-46.201s20.726-46.201 46.201-46.201c25.474 0 46.2 20.725 46.2 46.201zm-158.886-186.942c12.148 0 22.031 9.883 22.031 22.031v2.724 30.889h-44.063v-33.613c.001-12.148 9.884-22.031 22.032-22.031zm-156.098 64.595v-29.901c0-2.757 2.243-5 5-5h21.5v39.901h-21.5c-2.757 0-5-2.243-5-5zm61.021 5h-24.521v-39.901h33.505v30.722c-3.617 2.356-6.693 5.489-8.984 9.179zm18.983-13.318v-34.246c0-12.148 9.883-22.031 22.031-22.031s22.031 9.883 22.031 22.031v33.613h-38.017c-2.067 0-4.088.222-6.045.633zm131.848 33.393c.899-3.345 1.386-6.857 1.386-10.482 0-12.982-10.562-23.544-23.544-23.544h-1.564v-30.889c0-11.627 9.46-21.087 21.087-21.087 11.628 0 21.088 9.46 21.088 21.087v4.285 39.726c-.001 10.732-8.067 19.6-18.453 20.904zm48.055.183c-10.809 0-19.603-8.794-19.603-19.604v-1.484-39.726c0-10.81 8.794-19.604 19.603-19.604 10.81 0 19.604 8.794 19.604 19.604v41.21c-.001 10.81-8.795 19.604-19.604 19.604z" fill="#014073"/><g fill="#ff7eb8"><path d="m336.851 267.862h-5.444c-2.761 0-5 2.238-5 5s2.239 5 5 5h.444v25.063c0 2.762 2.239 5 5 5s5-2.238 5-5v-30.063c0-2.761-2.239-5-5-5z"/><path d="m316.769 274.495h-1.632v-1.633c0-2.762-2.239-5-5-5s-5 2.238-5 5v1.633h-1.633c-2.761 0-5 2.238-5 5s2.239 5 5 5h1.633v1.632c0 2.762 2.239 5 5 5s5-2.238 5-5v-1.632h1.632c2.761 0 5-2.238 5-5s-2.239-5-5-5z"/></g></g></g></g></svg>