<svg xmlns="http://www.w3.org/2000/svg" xmlns:xlink="http://www.w3.org/1999/xlink" viewBox="0 0 319.65 295.93"><defs><linearGradient id="a" x1="255.73" y1="5.02" x2="220.8" y2="77.22" gradientUnits="userSpaceOnUse"><stop offset="0" stop-color="#27d96e"/><stop offset="1" stop-color="#275a7c"/></linearGradient><linearGradient id="b" x1="-5021.39" y1="-1181.19" x2="-5076.25" y2="-1119.09" gradientTransform="matrix(-0.9, -0.44, -0.44, 0.9, -4970.91, -1124.62)" xlink:href="#a"/><linearGradient id="c" x1="144.68" y1="230.02" x2="194.38" y2="279.73" xlink:href="#a"/><linearGradient id="d" x1="-5568.6" y1="243.54" x2="-5536.63" y2="275.52" gradientTransform="matrix(-1, 0, 0, 1, -5430.4, 0)" xlink:href="#a"/><linearGradient id="e" x1="-1720.05" y1="-2472.64" x2="-1670.35" y2="-2422.94" gradientTransform="matrix(0.31, 0.95, -0.95, 0.31, -1565.99, 2605.23)" xlink:href="#a"/><linearGradient id="f" x1="-5606.82" y1="-1542.96" x2="-5554.22" y2="-1490.36" gradientTransform="matrix(-0.59, -0.45, -0.61, 0.78, -3942.18, -1085.28)" xlink:href="#a"/><linearGradient id="g" x1="209.62" y1="207.97" x2="205.1" y2="270.46" gradientUnits="userSpaceOnUse"><stop offset="0" stop-color="#568bff"/><stop offset="1" stop-color="#d667ff"/></linearGradient><linearGradient id="h" x1="102.52" y1="174.12" x2="122.93" y2="109.42" gradientUnits="userSpaceOnUse"><stop offset="0" stop-color="#ff8e34"/><stop offset="1" stop-color="#ffce00"/></linearGradient><linearGradient id="i" x1="-141.47" y1="947.61" x2="-91.77" y2="997.31" gradientTransform="translate(-157.35 -882.13) rotate(-18.78)" xlink:href="#a"/><linearGradient id="j" x1="-91.07" y1="-587.4" x2="-41.37" y2="-537.7" gradientTransform="translate(109.25 618.36) rotate(16.36)" xlink:href="#a"/><linearGradient id="k" x1="-5585.53" y1="-1556.98" x2="-5529.99" y2="-1501.45" gradientTransform="matrix(-0.61, -0.42, -0.56, 0.82, -4005.3, -1007.59)" xlink:href="#a"/><linearGradient id="l" x1="155.33" y1="8.73" x2="174.15" y2="101.32" xlink:href="#a"/><linearGradient id="m" x1="125.5" y1="31.61" x2="98.48" y2="65.15" xlink:href="#a"/><linearGradient id="n" x1="296.01" y1="190.58" x2="223.15" y2="273.04" xlink:href="#a"/><linearGradient id="o" x1="-5337.37" y1="490.26" x2="-5392.22" y2="552.35" gradientTransform="matrix(-0.99, 0.11, 0.11, 0.99, -5216.65, 287.55)" xlink:href="#a"/><linearGradient id="p" x1="-5231.01" y1="-237.63" x2="-5279.24" y2="-183.04" gradientTransform="matrix(-0.99, -0.16, -0.16, 0.99, -5141.44, -364.8)" xlink:href="#a"/><clipPath id="r"><path d="M245.11,56.39l10.48-7.2a115.58,115.58,0,0,1,15.72-38.45,185.09,185.09,0,0,0-17.93,8.78L251,31.15,245.83,24c-52.41,33.32-50.74,77.13-50.74,77.13l46.19-32.67a83.89,83.89,0,0,1,9.28-10.41Z" style="fill:url(#a)"/></clipPath><clipPath id="t"><path d="M63,58.2l-6-8A75.87,75.87,0,0,0,55.2,20.24c4.18,3.9,7.89,7.72,11.19,11.45L65.14,40l5.76-3c30.72,38.43,18,66.22,18,66.22l-26.21-36a64.36,64.36,0,0,0-4.26-9.72Z" style="fill:url(#b)"/></clipPath><clipPath id="v"><path d="M35.63,56.53,29.14,65.7l-3.65-9.57A74.91,74.91,0,0,0,10,58.49,47.88,47.88,0,0,0,20.83,79.06L33,75.14l-8.33,7.61a44.69,44.69,0,0,0,5.27,3.92l12.6.73-4,3.52c14.07,5.25,29.87,3.45,39.95-4.17C78.41,86.75,66.11,60.34,35.63,56.53Z" style="fill:url(#i)"/></clipPath><clipPath id="x"><path d="M207.45,38.31l-10.58,3.75,2.52-9.92a75.31,75.31,0,0,0-14-7,48,48,0,0,0-3,23.06L194.55,52l-11.2,1.43a44.7,44.7,0,0,0,2.06,6.24l9.88,7.85-5.32.55c8.49,12.4,22.45,20,35.07,19.58C225,87.63,230.19,59,207.45,38.31Z" style="fill:url(#j)"/></clipPath><clipPath id="z"><path d="M280,54.77l2.13,10.29,6.65-9.18a48.76,48.76,0,0,1,12.32,4.71,68.92,68.92,0,0,1-16.85,19.3l-8.86-5.8,4.28,9a52.15,52.15,0,0,1-5.94,3.2l-11-1.14,2.14,4.17c-13.93,3.24-26.7-1-32.46-10.21C232.43,79.09,252.67,54.08,280,54.77Z" style="fill:url(#k)"/></clipPath><clipPath id="ab"><path d="M171.44,34.2l-3.54,1.18,2-4.14a44.72,44.72,0,0,0-5.52-8L145.58,24a33.49,33.49,0,0,1,10.54,27.85c-1.51,18.07,16.56,32.37,16.56,32.37A60.5,60.5,0,0,0,171.44,34.2Z" style="fill:url(#l)"/></clipPath><clipPath id="ad"><path d="M91.65,69.24a39,39,0,0,1,8.91-22c.66-.79,1.53,4,2.3,3.19.57-.55,1-6.63,1.64-7.17A41.64,41.64,0,0,1,114.3,37c7-.9,13.46,3.14,13.46,3.14l-12.34,4.26s5.16,18.39-11.21,24.89S91.65,69.24,91.65,69.24Z" style="fill:url(#m)"/></clipPath><linearGradient id="ae" x1="157.34" y1="37.73" x2="157.34" y2="141.55" gradientUnits="userSpaceOnUse"><stop offset="0" stop-color="#fff492"/><stop offset="1" stop-color="#ffbad6"/></linearGradient><linearGradient id="af" x1="80.7" y1="114.09" x2="80.7" y2="96.88" gradientUnits="userSpaceOnUse"><stop offset="0" stop-color="#6f8add"/><stop offset="1" stop-color="#9cfaf0"/></linearGradient><linearGradient id="ag" x1="88.57" y1="113.33" x2="88.57" y2="85.34" xlink:href="#af"/><linearGradient id="ah" x1="96.44" y1="114.25" x2="96.44" y2="99.33" xlink:href="#af"/><linearGradient id="ai" x1="104.31" y1="113.97" x2="104.31" y2="95.11" xlink:href="#af"/><linearGradient id="aj" x1="112.18" y1="113.7" x2="112.18" y2="91" xlink:href="#af"/><linearGradient id="ak" x1="80.66" y1="101.62" x2="80.66" y2="93.64" xlink:href="#af"/><linearGradient id="al" x1="88.68" y1="90.51" x2="88.68" y2="82.52" xlink:href="#af"/><linearGradient id="am" x1="96.45" y1="104.65" x2="96.45" y2="96.67" xlink:href="#af"/><linearGradient id="an" x1="104.21" y1="100.08" x2="104.21" y2="92.09" xlink:href="#af"/><linearGradient id="ao" x1="112.4" y1="96.25" x2="112.4" y2="88.27" xlink:href="#af"/><linearGradient id="ap" x1="-1804.75" y1="-2591.55" x2="-1781.06" y2="-2591.55" gradientTransform="translate(-1776.78 2568.66) rotate(73.56)" gradientUnits="userSpaceOnUse"><stop offset="0" stop-color="#ffa934"/><stop offset="1" stop-color="#ffce00"/></linearGradient><clipPath id="ar"><path d="M266,240.89l10.88-6.58a115.61,115.61,0,0,1,17.92-37.47,184.35,184.35,0,0,0-18.4,7.72L273.32,216l-4.75-7.41c-54.25,30.22-55.12,74.06-55.12,74.06l48-29.94a82.14,82.14,0,0,1,9.86-9.85Z" style="fill:url(#n)"/></clipPath><clipPath id="at"><path d="M168.29,224.1l-9.37-3.58a75.83,75.83,0,0,0-17.46-24.36c5.62,1.06,10.79,2.31,15.58,3.7l3.37,7.68,3.3-5.57c46.5,16.07,50.57,46.38,50.57,46.38l-41.4-16.43a63.15,63.15,0,0,0-8.79-5.94Z" style="fill:url(#o)"/></clipPath><clipPath id="av"><path d="M76.39,249.78l-7.12-5.21a66.46,66.46,0,0,0-9.18-24.7c4.52,2.2,8.62,4.45,12.36,6.74l1.09,7.29,4.08-4c35.73,24.39,32.17,51,32.17,51L78.48,257.47a55.06,55.06,0,0,0-6.09-7.08Z" style="fill:url(#p)"/></clipPath><clipPath id="ax"><path d="M166.63,233.18l-9.09,6.58-.38-10.23a76,76,0,0,0-15.44-2.76,48,48,0,0,0,3.64,23l12.74.19-10.34,4.52a43.92,43.92,0,0,0,3.73,5.41l11.69,4.75-5,2c11.64,9.5,27.17,12.88,39.17,8.92C197.4,275.56,194.26,246.59,166.63,233.18Z" style="fill:url(#c)"/></clipPath><clipPath id="az"><path d="M124.09,245.57l5.85,4.24.24-6.58a48.76,48.76,0,0,1,9.93-1.78,30.94,30.94,0,0,1-2.34,14.78l-8.2.12,6.66,2.91a29.46,29.46,0,0,1-2.41,3.48l-7.52,3.06,3.19,1.3c-7.49,6.11-17.48,8.29-25.2,5.74C104.29,272.84,106.31,254.2,124.09,245.57Z" style="fill:url(#d)"/></clipPath><clipPath id="bb"><path d="M254.24,224.23l-9.08-6.6,9.61-3.54a75.72,75.72,0,0,0-2.17-15.53,47.89,47.89,0,0,0-20.71,10.6l3.78,12.16-7.51-8.42a44,44,0,0,0-4,5.23l-.89,12.58-3.46-4.07c-5.42,14-3.81,29.83,3.68,40C223.51,266.64,250.07,254.66,254.24,224.23Z" style="fill:url(#e)"/></clipPath><clipPath id="bd"><path d="M279,245.35l1.45,9.84,6.79-8.31A46.34,46.34,0,0,1,298.67,252a65.39,65.39,0,0,1-17,17.32l-8.06-6,3.55,8.73a50.76,50.76,0,0,1-5.79,2.69l-10.34-1.68,1.79,4.07c-13.34,2.29-25.19-2.38-30.13-11.44C232.71,265.73,253.22,243.19,279,245.35Z" style="fill:url(#f)"/></clipPath><linearGradient id="be" x1="101.29" y1="349.41" x2="252.2" y2="218.53" gradientUnits="userSpaceOnUse"><stop offset="0" stop-color="#ff63a2"/><stop offset="1" stop-color="#ffc082"/></linearGradient><clipPath id="bg"><path d="M180.65,225.06c-2.65,2.55-12.82,16.71-8.38,29.34s18,9.64,18,9.64l33.81.34s11.73-.31,16.85-10.21-5.43-27.9-10.48-32.14S197.08,209.18,180.65,225.06Z" style="fill:url(#g)"/></clipPath><linearGradient id="bh" x1="208.5" y1="245.73" x2="207.66" y2="257.38" gradientUnits="userSpaceOnUse"><stop offset="0" stop-color="#ffff90"/><stop offset="1" stop-color="#ffff6f"/></linearGradient><clipPath id="bi"><path d="M215.52,272.37s-39.76-5-45-1.9c-6.34,3.73-4.35,13.35-.31,15.53,3.06,1.64,38.5-2.18,38.5-2.18Z" style="fill:#8980a8"/></clipPath><clipPath id="bj"><path d="M198.63,278.65s36.73-17.76,44.13-15.95,6.61,11.94,3.88,14.27-43.54,11.25-43.54,11.25Z" style="fill:#8980a8"/></clipPath><clipPath id="bl"><path d="M97.63,90.33s-.71,39,7.57,48.58c5.94,1.42,13.53.79,13.53.79s27.08-6,31.06-34.64l6.37.4s3.19,35.44-27.47,51.36c.8,11.15,4,45.79,4,45.79s-32.65,8-48.58-.39c0,.39,9.16-45.79,9.16-45.79s-12.34-30.26-3.18-66.9C93.65,89.93,97.63,90.33,97.63,90.33Z" style="fill:url(#h)"/></clipPath></defs><title>Middel 1</title><g style="isolation:isolate"><path d="M245.11,56.39l10.48-7.2a115.58,115.58,0,0,1,15.72-38.45,185.09,185.09,0,0,0-17.93,8.78L251,31.15,245.83,24c-52.41,33.32-50.74,77.13-50.74,77.13l46.19-32.67a83.89,83.89,0,0,1,9.28-10.41Z" style="fill:url(#a)"/><g style="clip-path:url(#r)"><path d="M280.86,0,269.65,11.4s-29.8,60.69-74.37,77.93c52.82-.87,64.93-6.66,64.93-6.66Z" style="fill:#5b2a7c;opacity:0.2;mix-blend-mode:multiply"/></g><path d="M63,58.2l-6-8A75.87,75.87,0,0,0,55.2,20.24c4.18,3.9,7.89,7.72,11.19,11.45L65.14,40l5.76-3c30.72,38.43,18,66.22,18,66.22l-26.21-36a64.36,64.36,0,0,0-4.26-9.72Z" style="fill:url(#b)"/><g style="clip-path:url(#t)"><path d="M50.82,10.22l5.46,11S62.79,70,91.83,95.55C52.28,78,44.68,70.33,44.68,70.33Z" style="fill:#5b2a7c;opacity:0.2;mix-blend-mode:multiply"/></g><path d="M35.63,56.53,29.14,65.7l-3.65-9.57A74.91,74.91,0,0,0,10,58.49,47.88,47.88,0,0,0,20.83,79.06L33,75.14l-8.33,7.61a44.69,44.69,0,0,0,5.27,3.92l12.6.73-4,3.52c14.07,5.25,29.87,3.45,39.95-4.17C78.41,86.75,66.11,60.34,35.63,56.53Z" style="fill:url(#i)"/><g style="clip-path:url(#v)"><path d="M3.66,45.13,10,58.49S46.58,83.63,94.11,88.34c-.28,11.43-33.63,20.39-33.63,20.39L14.33,97.58,0,60.69Z" style="fill:#5b2a7c;opacity:0.2;mix-blend-mode:multiply"/></g><path d="M207.45,38.31l-10.58,3.75,2.52-9.92a75.31,75.31,0,0,0-14-7,48,48,0,0,0-3,23.06L194.55,52l-11.2,1.43a44.7,44.7,0,0,0,2.06,6.24l9.88,7.85-5.32.55c8.49,12.4,22.45,20,35.07,19.58C225,87.63,230.19,59,207.45,38.31Z" style="fill:url(#j)"/><g style="clip-path:url(#x)"><path d="M187.86,10.58l-2.51,14.57S200.81,66.76,237,98c-6.82,9.18-39.24-2.69-39.24-2.69L166.41,59.61l9.51-38.41Z" style="fill:#5b2a7c;opacity:0.2;mix-blend-mode:multiply"/></g><path d="M280,54.77l2.13,10.29,6.65-9.18a48.76,48.76,0,0,1,12.32,4.71,68.92,68.92,0,0,1-16.85,19.3l-8.86-5.8,4.28,9a52.15,52.15,0,0,1-5.94,3.2l-11-1.14,2.14,4.17c-13.93,3.24-26.7-1-32.46-10.21C232.43,79.09,252.67,54.08,280,54.77Z" style="fill:url(#k)"/><g style="clip-path:url(#z)"><path d="M311.45,48,301.12,60.59s-40.45,20.09-82.65,17.77c-4,11.67,21.08,25.76,21.08,25.76L283,99.68l25.85-35.35Z" style="fill:#5b2a7c;opacity:0.2;mix-blend-mode:multiply"/></g><path d="M171.44,34.2l-3.54,1.18,2-4.14a44.72,44.72,0,0,0-5.52-8L145.58,24a33.49,33.49,0,0,1,10.54,27.85c-1.51,18.07,16.56,32.37,16.56,32.37A60.5,60.5,0,0,0,171.44,34.2Z" style="fill:url(#l)"/><g style="clip-path:url(#ab)"><path d="M137.17,21.48l9.2,2.91s11.21,2.24,12.78,5.16.9,19.51,6.06,30.05,7.85,26.46,7.85,26.46l-17.5-7.4Z" style="fill:#5b2a7c;opacity:0.2;mix-blend-mode:multiply"/></g><path d="M91.65,69.24a39,39,0,0,1,8.91-22c.66-.79,1.53,4,2.3,3.19.57-.55,1-6.63,1.64-7.17A41.64,41.64,0,0,1,114.3,37c7-.9,13.46,3.14,13.46,3.14l-12.34,4.26s5.16,18.39-11.21,24.89S91.65,69.24,91.65,69.24Z" style="fill:url(#m)"/><g style="clip-path:url(#ad)"><path d="M89.85,77.52a88.54,88.54,0,0,0,20.59-34.35,3.51,3.51,0,0,1,.91-1.71,3.49,3.49,0,0,1,1.82-.6q12-1.62,24-2.71c-9.85,8.77-15.62,21.16-20.53,33.4a9.25,9.25,0,0,1-2.13,3.59,8.5,8.5,0,0,1-3.14,1.52A89.12,89.12,0,0,1,93,80.44" style="fill:#5b2a7c;opacity:0.2;mix-blend-mode:multiply"/></g><rect x="50.1" y="61.47" width="214.48" height="109.18" rx="9.48" style="fill:#3b253d"/><rect x="59.19" y="69.58" width="196.31" height="92.96" rx="4.11" style="fill:url(#ae)"/><path d="M60.84,140l-8.24,1.73V90.43l8.24,1.73A6.43,6.43,0,0,1,66,98.46v35.19A6.43,6.43,0,0,1,60.84,140Z" style="fill:#3b253d"/><path d="M58.21,129.87h0A1.88,1.88,0,0,1,56.32,128v-26A1.88,1.88,0,0,1,58.21,100h0a1.89,1.89,0,0,1,1.89,1.89V128A1.89,1.89,0,0,1,58.21,129.87Z" style="fill:#5b2a7c;opacity:0.4;mix-blend-mode:multiply"/><path d="M250.73,129.87h0a1.89,1.89,0,0,1-1.89-1.89v-26a1.89,1.89,0,0,1,1.89-1.89h0a1.88,1.88,0,0,1,1.89,1.89V128A1.88,1.88,0,0,1,250.73,129.87Z" style="fill:#5b2a7c;opacity:0.2;mix-blend-mode:multiply"/><rect x="177.33" y="93.38" width="65.37" height="59.08" rx="3.18" style="fill:#fff"/><rect x="161.79" y="131.98" width="4.66" height="17.08" style="fill:#fff"/><rect x="161.79" y="131.98" width="4.66" height="17.08" transform="translate(304.63 -23.6) rotate(90)" style="fill:#fff"/><rect x="228.61" y="99.76" width="3.6" height="13.2" style="fill:#ff6683"/><rect x="223.81" y="104.56" width="13.2" height="3.6" style="fill:#ff6683"/><rect x="72.82" y="75.54" width="47.28" height="47.28" rx="3.18" style="fill:#fff"/><rect x="125.08" y="75.54" width="47.28" height="47.28" rx="3.18" style="fill:#fff"/><rect x="177.33" y="75.54" width="65.37" height="13.64" rx="3.18" style="fill:#fff"/><rect x="78.5" y="97.66" width="4.4" height="17.63" style="fill:url(#af)"/><rect x="86.37" y="86.6" width="4.4" height="28.69" style="fill:url(#ag)"/><rect x="94.24" y="100" width="4.4" height="15.29" style="fill:url(#ah)"/><rect x="102.11" y="95.96" width="4.4" height="19.33" style="fill:url(#ai)"/><rect x="109.98" y="92.02" width="4.4" height="23.26" style="fill:url(#aj)"/><path d="M81.88,93.27a1.23,1.23,0,1,1-1.23-1.22A1.22,1.22,0,0,1,81.88,93.27Z" style="fill:url(#ak)"/><path d="M89.91,82.16a1.23,1.23,0,1,1-1.23-1.22A1.23,1.23,0,0,1,89.91,82.16Z" style="fill:url(#al)"/><path d="M97.67,96.3a1.23,1.23,0,1,1-1.22-1.22A1.22,1.22,0,0,1,97.67,96.3Z" style="fill:url(#am)"/><path d="M105.43,91.73a1.22,1.22,0,1,1-1.22-1.22A1.22,1.22,0,0,1,105.43,91.73Z" style="fill:url(#an)"/><path d="M113.62,87.9a1.22,1.22,0,1,1-1.22-1.22A1.22,1.22,0,0,1,113.62,87.9Z" style="fill:url(#ao)"/><path d="M147.81,88.06a8.39,8.39,0,1,1-8.38-8.38A8.38,8.38,0,0,1,147.81,88.06Z" style="fill:#6045a2"/><path d="M145.48,88.06a6.06,6.06,0,1,1-6-6.06A6.05,6.05,0,0,1,145.48,88.06Z" style="fill:#632a7c;opacity:0.2;mix-blend-mode:multiply"/><polygon points="138.1 83.81 138.1 91.56 142.32 87.34 138.1 83.81" style="fill:#fff"/><path d="M161.79,101.69h-32.5V99.21h32.5a1.24,1.24,0,0,1,1.24,1.24h0A1.23,1.23,0,0,1,161.79,101.69Z" style="fill:#bde3ff;opacity:0.6000000000000001"/><path d="M140,106.76H129.29v-2.48H140a1.23,1.23,0,0,1,1.24,1.24h0A1.24,1.24,0,0,1,140,106.76Z" style="fill:#bde3ff;opacity:0.6000000000000001"/><path d="M164.37,111.82H129.29v-2.48h35.08a1.25,1.25,0,0,1,1.25,1.24h0A1.24,1.24,0,0,1,164.37,111.82Z" style="fill:#bde3ff;opacity:0.6000000000000001"/><path d="M157.12,116.89H129.29v-2.48h27.83a1.23,1.23,0,0,1,1.24,1.24h0A1.24,1.24,0,0,1,157.12,116.89Z" style="fill:#bde3ff;opacity:0.6000000000000001"/><path d="M201.38,115.68l15.45-5.2a16.31,16.31,0,1,1-1.88-3.83Z" style="fill:#6045a2"/><path d="M214.57,115.68a13.19,13.19,0,1,1-13.19-13.19A13.2,13.2,0,0,1,214.57,115.68Z" style="fill:#fff"/><path d="M201.38,115.67l-11.44,3.1A11.85,11.85,0,1,1,204.73,127Z" style="fill:url(#ap)"/><path d="M211.45,115.68a10.07,10.07,0,1,1-10.07-10.07A10.07,10.07,0,0,1,211.45,115.68Z" style="fill:#fff"/><path d="M201.38,115.68h7.52a7.53,7.53,0,1,1-3.71-6.49Z" style="fill:#ff6683"/><path d="M206.74,115.68a5.36,5.36,0,1,1-5.36-5.37A5.36,5.36,0,0,1,206.74,115.68Z" style="fill:#fff"/><path d="M223.27,137.49h-37.5v-2.33h37.5a1.16,1.16,0,0,1,1.16,1.17h0A1.16,1.16,0,0,1,223.27,137.49Z" style="fill:#bde3ff"/><path d="M223.27,81.6h-37.5V79.27h37.5a1.16,1.16,0,0,1,1.16,1.16h0A1.16,1.16,0,0,1,223.27,81.6Z" style="fill:#bde3ff"/><path d="M229.79,86.25h-44V83.93h44A1.16,1.16,0,0,1,231,85.09h0A1.16,1.16,0,0,1,229.79,86.25Z" style="fill:#bde3ff"/><path d="M232.82,142.15h-47v-2.33h47A1.16,1.16,0,0,1,234,141h0A1.16,1.16,0,0,1,232.82,142.15Z" style="fill:#bde3ff"/><path d="M208.22,146.81H185.77v-2.33h22.45a1.16,1.16,0,0,1,1.17,1.16h0A1.17,1.17,0,0,1,208.22,146.81Z" style="fill:#bde3ff"/><path d="M319.65,287.62c0,4.35-63.5,7.87-141.84,7.87S36,292,36,287.62s63.51-7.88,141.84-7.88S319.65,283.27,319.65,287.62Z" style="fill:#e887b0;opacity:0.2;mix-blend-mode:multiply"/><path d="M266,240.89l10.88-6.58a115.61,115.61,0,0,1,17.92-37.47,184.35,184.35,0,0,0-18.4,7.72L273.32,216l-4.75-7.41c-54.25,30.22-55.12,74.06-55.12,74.06l48-29.94a82.14,82.14,0,0,1,9.86-9.85Z" style="fill:url(#n)"/><g style="clip-path:url(#ar)"><path d="M304.94,186.67,293.08,197.4s-33.26,58.86-78.75,73.48c52.77,2.21,65.2-2.88,65.2-2.88Z" style="fill:#5b2a7c;opacity:0.2;mix-blend-mode:multiply"/></g><path d="M168.29,224.1l-9.37-3.58a75.83,75.83,0,0,0-17.46-24.36c5.62,1.06,10.79,2.31,15.58,3.7l3.37,7.68,3.3-5.57c46.5,16.07,50.57,46.38,50.57,46.38l-41.4-16.43a63.15,63.15,0,0,0-8.79-5.94Z" style="fill:url(#o)"/><g style="clip-path:url(#at)"><path d="M132.4,190l10.48,6.37s31.6,37.8,69.78,43.85c-42.82,6.27-53.33,3.87-53.33,3.87Z" style="fill:#5b2a7c;opacity:0.2;mix-blend-mode:multiply"/></g><path d="M76.39,249.78l-7.12-5.21a66.46,66.46,0,0,0-9.18-24.7c4.52,2.2,8.62,4.45,12.36,6.74l1.09,7.29,4.08-4c35.73,24.39,32.17,51,32.17,51L78.48,257.47a55.06,55.06,0,0,0-6.09-7.08Z" style="fill:url(#p)"/><g style="clip-path:url(#av)"><path d="M53.83,212.57l7.42,7.83s18.06,39.37,49,53.33c-37.77-4.58-46.13-9.05-46.13-9.05Z" style="fill:#5b2a7c;opacity:0.2;mix-blend-mode:multiply"/></g><path d="M166.63,233.18l-9.09,6.58-.38-10.23a76,76,0,0,0-15.44-2.76,48,48,0,0,0,3.64,23l12.74.19-10.34,4.52a43.92,43.92,0,0,0,3.73,5.41l11.69,4.75-5,2c11.64,9.5,27.17,12.88,39.17,8.92C197.4,275.56,194.26,246.59,166.63,233.18Z" style="fill:url(#c)"/><g style="clip-path:url(#ax)"><path d="M140,212.09l1.69,14.68s26.55,35.58,70,55.35c-3.95,10.73-38.4,8.47-38.4,8.47l-40.1-25.41-1.69-39.54Z" style="fill:#5b2a7c;opacity:0.2;mix-blend-mode:multiply"/></g><path d="M124.09,245.57l5.85,4.24.24-6.58a48.76,48.76,0,0,1,9.93-1.78,30.94,30.94,0,0,1-2.34,14.78l-8.2.12,6.66,2.91a29.46,29.46,0,0,1-2.41,3.48l-7.52,3.06,3.19,1.3c-7.49,6.11-17.48,8.29-25.2,5.74C104.29,272.84,106.31,254.2,124.09,245.57Z" style="fill:url(#d)"/><g style="clip-path:url(#az)"><path d="M141.2,232l-1.09,9.44S123,264.34,95.06,277.06c2.54,6.9,24.7,5.45,24.7,5.45l25.8-16.35,1.09-25.43Z" style="fill:#5b2a7c;opacity:0.2;mix-blend-mode:multiply"/></g><path d="M254.24,224.23l-9.08-6.6,9.61-3.54a75.72,75.72,0,0,0-2.17-15.53,47.89,47.89,0,0,0-20.71,10.6l3.78,12.16-7.51-8.42a44,44,0,0,0-4,5.23l-.89,12.58-3.46-4.07c-5.42,14-3.81,29.83,3.68,40C223.51,266.64,250.07,254.66,254.24,224.23Z" style="fill:url(#e)"/><g style="clip-path:url(#bb)"><path d="M266,192.39l-13.43,6.17S227,234.84,221.73,282.32c-11.43-.42-20-33.87-20-33.87l11.71-46,37-13.89Z" style="fill:#5b2a7c;opacity:0.2;mix-blend-mode:multiply"/></g><path d="M279,245.35l1.45,9.84,6.79-8.31A46.34,46.34,0,0,1,298.67,252a65.39,65.39,0,0,1-17,17.32l-8.06-6,3.55,8.73a50.76,50.76,0,0,1-5.79,2.69l-10.34-1.68,1.79,4.07c-13.34,2.29-25.19-2.38-30.13-11.44C232.71,265.73,253.22,243.19,279,245.35Z" style="fill:url(#f)"/><g style="clip-path:url(#bd)"><path d="M309.14,240.64,298.67,252s-39.34,16.77-79.12,12.26c-4.41,10.81,18.52,25.51,18.52,25.51L279.35,288l26.39-32Z" style="fill:#5b2a7c;opacity:0.2;mix-blend-mode:multiply"/></g><path d="M62.93,284.77s0-9.47,8.43-7.63c3.68-8.43,10.53-1.32,10.53-1.32s1-11.84,13.68-12.9,17.38,10,17.38,10,16.85-10,27.9,4.73c3.69-6.05,9.74.53,9.74.53s2.64-24.22,24-25.27,25.27,15.53,25.27,15.53,34.75-22.11,49.23-10.26,16.06,20.53,16.06,20.53,8.93-5.92,20,.79c4.74-3.42,9.48,4.47,9.48,4.47Z" style="fill:url(#be)"/><path d="M180.65,225.06c-2.65,2.55-12.82,16.71-8.38,29.34s18,9.64,18,9.64l33.81.34s11.73-.31,16.85-10.21-5.43-27.9-10.48-32.14S197.08,209.18,180.65,225.06Z" style="fill:url(#g)"/><g style="clip-path:url(#bg)"><path d="M192.47,252.06a62,62,0,0,1-3.38-20.7c.74,0,1.14.85,1.38,1.54l3.88,11.38c.86,2.52,1.78,5.12,3.63,7,2.84,2.91,7.21,3.56,11.25,4.05a7,7,0,0,0,3.38-.14c1.89-.73,2.75-2.86,3.42-4.77q2.59-7.51,5.2-15a24.83,24.83,0,0,1,2.41-5.51c.92.24,1,1.5.9,2.44l-2.85,24.77" style="fill:#ff2a7c;opacity:0.2;mix-blend-mode:multiply"/></g><path d="M203.06,188.33s-5.85,18-6.07,20.57,7.65,5.79,7.65,5.79l-2.45,7.81s7.26,4.38,14.79,0c0-5.08,1.46-16.54,1.46-16.54a6.35,6.35,0,0,0,4.58-5.31c.67-4.44-.57-13.29-5.59-15.23S203.06,188.33,203.06,188.33Z" style="fill:#ffb282"/><path d="M212.58,191.12s-4.88,6.44-14.12,4.2c-.9-4.63,3.74-8.93,3.74-8.93a15.6,15.6,0,0,1-5.66-.12c6.22-6.78,11.43-4.63,11.43-4.63s9.5-6.11,18.89,3.39c4.86-1.92,5.88,0,5.88,0L228.1,187s6.52,17.73-10.56,25.76c.37-5.13,1.4-19.08,1.4-19.08l-6.45,2.82S211.36,194.87,212.58,191.12Z" style="fill:#a73d52"/><path d="M217.06,199.83a6.68,6.68,0,0,1,2-3.14,2.24,2.24,0,0,1,2.25-.67,2.36,2.36,0,0,1,1,1.2,7,7,0,0,1,.75,3.27,4.4,4.4,0,0,1-1.32,3,7.22,7.22,0,0,1-1.64,1,3.55,3.55,0,0,1-1.4.49,2,2,0,0,1-1.66-.79,2.48,2.48,0,0,1-.44-1.81" style="fill:#ffb282"/><path d="M199.5,263.94a23.24,23.24,0,0,0-11.95,3.27,4.76,4.76,0,0,0-2.42,2.62c-.4,1.6.78,3.18,2.12,4.14,3.95,2.84,9.26,2.55,14.1,2.15l29-2.42.24-5.46a5.34,5.34,0,0,0-.76-3.72,5.15,5.15,0,0,0-3.17-1.41,72.18,72.18,0,0,0-24.27-.26" style="fill:#776d9b"/><polygon points="185.07 239.73 188.18 263.33 183.52 263.33 183.52 267.37 230.72 267.37 230.72 263.33 226.37 263.33 231.65 239.73 185.07 239.73" style="fill:#3c1843"/><path d="M212.72,251.86a4.66,4.66,0,1,1-4.66-4.66A4.66,4.66,0,0,1,212.72,251.86Z" style="mix-blend-mode:soft-light;fill:url(#bh)"/><path d="M215.52,272.37s-39.76-5-45-1.9c-6.34,3.73-4.35,13.35-.31,15.53,3.06,1.64,38.5-2.18,38.5-2.18Z" style="fill:#8980a8"/><g style="clip-path:url(#bi)"><path d="M156,272.27c2.26,5.61,9,7.81,15.05,8.38,16.76,1.61,33.47-4,50.31-3.53,2.68.08,5.47.34,7.76,1.75a2.73,2.73,0,0,1,1.33,1.49c.27,1-.5,2-1.27,2.73-4.31,4-10.26,5.67-16,6.88A162,162,0,0,1,181,293.42c-5,0-10.09-.17-14.86-1.7s-9.23-4.52-11.62-8.92" style="fill:#322a7c;opacity:0.2;mix-blend-mode:multiply"/></g><path d="M200.11,279.14l-11.29,2.26L188,293.52s5.55,1.44,7.19-.21,3.29-6.36,3.29-6.36l5.55-.82Z" style="fill:#6e1846"/><path d="M211.87,276.15l11.49-.75,3.94,11.49s-5,2.83-7,1.67-4.83-5.3-4.83-5.3l-5.57.65Z" style="fill:#6e1846"/><path d="M198.63,278.65s36.73-17.76,44.13-15.95,6.61,11.94,3.88,14.27-43.54,11.25-43.54,11.25Z" style="fill:#8980a8"/><g style="clip-path:url(#bj)"><path d="M202.19,271.4c-.45,3.87,2.86,7.4,6.61,8.49s7.76.33,11.55-.59a197.35,197.35,0,0,0,28.54-9.6c1,4.85-1.54,9.89-5.22,13.19s-8.4,5.19-13.07,6.84c-15.71,5.57-33.4,9.22-48.77,2.78" style="fill:#322a7c;opacity:0.2;mix-blend-mode:multiply"/></g><path d="M131.83,114.05s5.71,21.83-7.8,21.83C121.33,119.94,131.83,114.05,131.83,114.05Z" style="fill:#ffb282"/><path d="M154.75,107l1.67-5.31s1.77-6.46,1.82-6.76-.46-.76-.71-.66A18.66,18.66,0,0,0,156,96.81a31.1,31.1,0,0,0,.85-4.09c-.15-.15-.75-.41-1-.25a41.52,41.52,0,0,0-1.26,4.09s.41-5,.31-5.21-.61-.15-1,0-.91,5.21-.91,5.21L152.78,92a1,1,0,0,0-.9.2c-.36.36-.41,8-.41,8l-1.26-2.62s-.91-.06-1,.35,1.92,8.43,1.92,8.43Z" style="fill:#ffb282"/><path d="M92,91.57l0-5.55s.19-6.7.23-7,.66-.59.87-.42a18.67,18.67,0,0,1,.74,2.92,34.13,34.13,0,0,1,.37-4.16c.19-.1.85-.17,1,0s0,4.28,0,4.28,1.09-5,1.23-5.07.62,0,1,.3-.64,5.24-.64,5.24l1.51-4.29a1,1,0,0,1,.82.46c.23.44-2,7.79-2,7.79L99,84s.88.21.81.62-4.29,7.5-4.29,7.5Z" style="fill:#ffb282"/><path d="M89.43,202.56s-6.83,33.54,13,72h6.13c.68,0-.94-41.36-.86-56.14h3.47c.7,0-.57,56.24,0,56.24h6.5s14.68-28.45,12.81-73.16C113,198.84,89.43,202.56,89.43,202.56Z" style="fill:#3c1843"/><path d="M97.63,90.33s-.71,39,7.57,48.58c5.94,1.42,13.53.79,13.53.79s27.08-6,31.06-34.64l6.37.4s3.19,35.44-27.47,51.36c.8,11.15,4,45.79,4,45.79s-32.65,8-48.58-.39c0,.39,9.16-45.79,9.16-45.79s-12.34-30.26-3.18-66.9C93.65,89.93,97.63,90.33,97.63,90.33Z" style="fill:url(#h)"/><g style="clip-path:url(#bl)"><path d="M87.13,88c-1,16.77-.76,34.11,5.63,49.66,2.18,5.31,5,10.35,6.88,15.79a44.29,44.29,0,0,1,2.27,12.7c.15,5.13-.59,10.37.71,15.33,2,7.82,8.84,13.58,16.14,17s15.32,5.09,22.91,7.88c1.78.65,3.87,1.88,3.68,3.77s-2.42,2.65-4.25,3l-18.29,3.78c-6.53,1.35-13.14,2.7-19.8,2.47s-13.5-2.21-18.38-6.75c-6.23-5.8-8.36-14.77-9-23.27a100.82,100.82,0,0,1,.78-21.47c1.58-11.2,4.86-22.29,4.16-33.58-.47-7.53-2.7-14.86-3.26-22.38s.89-15.79,6.45-20.89" style="fill:#ff2a7c;opacity:0.2;mix-blend-mode:multiply"/></g><path d="M108.82,264.35S96.47,266,95.67,267s3.48,14.76,3.48,14.76-7,4.3-7.51,5.1a2.74,2.74,0,0,0,0,2.15h18Z" style="fill:#6e1846"/><path d="M110.33,264.35S122.67,266,123.48,267,120,281.79,120,281.79s7,4.3,7.51,5.1a2.74,2.74,0,0,1,0,2.15h-18Z" style="fill:#6e1846"/><path d="M109.41,111.08c-6.35,1.5-5.35,8.76-8.11,15.78-2.34,6-17.56,19.34-15.4,36.9,10.27,2.16,28.37,2.43,28.37,2.43l.81-8.91,3.78,8.64,6-1.35s-.27-27,2.43-35.12S129.13,117,129.13,117l5.64-.94s0-12.57-12.13-11.76A19,19,0,0,0,109.41,111.08Z" style="fill:#3c1843"/><path d="M126.78,120.87a5.63,5.63,0,0,0-.69,4c.2,1.05,1,3.07,2.32,2.93,1.14-.11,2.32-1.93,2.62-2.94a4.07,4.07,0,0,0-.77-3.35C129.44,120.23,127.85,119.14,126.78,120.87Z" style="fill:#ffb282"/><path d="M128.62,115.87c.08,3.86,1.61,7.67,1,11.48a4.76,4.76,0,0,0,1.64-3.42,17.24,17.24,0,0,0-.71-7.68,8.61,8.61,0,0,0-1.35-2.71" style="fill:#3c1843"/><polygon points="89.59 88.66 88.81 91.61 99.06 92.54 99.06 90.06 89.59 88.66" style="fill:#ffe054"/><polygon points="149.05 104.19 149.05 106.67 157.9 107.14 157.9 104.5 149.05 104.19" style="fill:#ffe054"/></g></svg>