<svg xmlns="http://www.w3.org/2000/svg" viewBox="0 0 500 500"><defs><style>.cls-7{fill:#fff;}.cls-2{fill:#e3f3fd;}.cls-10,.cls-11,.cls-12,.cls-13,.cls-14,.cls-16,.cls-17,.cls-18,.cls-19,.cls-2,.cls-20,.cls-21,.cls-22,.cls-23,.cls-24,.cls-26,.cls-27,.cls-28,.cls-29,.cls-30,.cls-31,.cls-32,.cls-33,.cls-34,.cls-35,.cls-36,.cls-37,.cls-38,.cls-39,.cls-4,.cls-40,.cls-41,.cls-42,.cls-43,.cls-45,.cls-46,.cls-48,.cls-49,.cls-5,.cls-6,.cls-7{fill-rule:evenodd;}.cls-3{fill:#f2f5f8;}.cls-4{fill:#fffafb;}.cls-5{fill:#d8edf7;}.cls-6{fill:#ebf6fa;}.cls-13,.cls-8{fill:#afdaec;}.cls-17,.cls-9{fill:#c8dee1;}.cls-10{fill:#c3e5f3;}.cls-11{fill:#a3cbde;}.cls-12{fill:#f1f2f3;}.cls-14{fill:#d1ebf8;}.cls-15,.cls-16{fill:#abc4c8;}.cls-18{fill:#d4cdcb;}.cls-19{fill:#ede9e6;}.cls-20,.cls-47{fill:#00000f;}.cls-21{fill:#7d7d58;}.cls-22{fill:#c0c293;}.cls-23{fill:#d7d9b9;}.cls-24{fill:#adaf84;}.cls-25,.cls-26{fill:#a36e50;}.cls-27{fill:#7b4e37;}.cls-28{fill:#4d0f1a;}.cls-29{fill:#fbe0d5;}.cls-30,.cls-44{fill:#030822;}.cls-31{fill:#141a33;}.cls-32{fill:#0b1329;}.cls-33{fill:#01051d;}.cls-34{fill:#9fa178;}.cls-35{fill:#e2e4cc;}.cls-36{fill:#5c6c4b;}.cls-37{fill:#e9695b;}.cls-38{fill:#f5ac83;}.cls-39{fill:#ee9073;}.cls-40{fill:#272c45;}.cls-41{fill:#2c3049;}.cls-42{fill:#5abee5;}.cls-43{fill:#292c44;}.cls-45{fill:#d84743;}.cls-46{fill:#212741;}.cls-48{fill:#061028;}.cls-49{fill:#f9cbaf;}</style></defs><title>designer</title><g id="BACKGROUND"></g><g id="OBJECTS"><path class="cls-2" d="M98,399.77a70.4,70.4,0,0,1-70.19-70.2h0A70.4,70.4,0,0,1,98,259.37h0a29.77,29.77,0,0,0,29.69-29.68h0A29.77,29.77,0,0,0,98,200H94.42a31,31,0,0,1-30.86-30.86h0a31,31,0,0,1,30.86-30.86h10.84a12,12,0,0,0,12-12h0a12,12,0,0,0-12-12h-8A8.32,8.32,0,0,1,89,106h0a8.32,8.32,0,0,1,8.3-8.29h53.52a13.07,13.07,0,0,0,13-13h0a13.06,13.06,0,0,0-13-13h-16a8.31,8.31,0,0,1-8.29-8.29h0a8.32,8.32,0,0,1,8.29-8.3H369.23a10.86,10.86,0,0,1,10.82,10.83h0a10.84,10.84,0,0,1-10.82,10.81H352.82a17.06,17.06,0,0,0-17,17h0a17,17,0,0,0,17,17h63.5a10.85,10.85,0,0,1,10.82,10.82h0a10.84,10.84,0,0,1-10.82,10.81H405.93A15.72,15.72,0,0,0,390.25,148h0a15.72,15.72,0,0,0,15.68,15.68h14.14a40.38,40.38,0,0,1,40.26,40.27h0a40.39,40.39,0,0,1-40.26,40.27h-4.61a38.84,38.84,0,0,0-38.73,38.73h0a38.85,38.85,0,0,0,38.73,38.73h10a39.16,39.16,0,0,1,39.05,39.05h0a39.16,39.16,0,0,1-39.05,39Zm299-323.1A10.82,10.82,0,1,0,386.1,65.86a10.82,10.82,0,0,0,10.82,10.81ZM74,114.26A8.29,8.29,0,1,0,65.74,106,8.29,8.29,0,0,0,74,114.26Z"/><rect class="cls-3" x="322.27" y="239.57" width="51.39" height="160.2"/><path class="cls-4" d="M322.27,399.77V252.65h27.2a10.1,10.1,0,0,1,10.07,10.07v137Z"/><path class="cls-5" d="M369,239.57h69.77a39.86,39.86,0,0,1-18.69,4.64h-4.61a38.84,38.84,0,0,0-38.73,38.73h0a38.85,38.85,0,0,0,38.73,38.73h10a39.16,39.16,0,0,1,39.05,39.05h0a39.16,39.16,0,0,1-39.05,39H369Z"/><path class="cls-6" d="M379.8,399.77V298a38.88,38.88,0,0,0,35.66,23.65h10a39.16,39.16,0,0,1,39.05,39.05h0a39.16,39.16,0,0,1-39.05,39Zm0-131.92v-5.13a10.1,10.1,0,0,1,10.07-10.07h1.52A39.15,39.15,0,0,0,379.8,267.85Z"/><path class="cls-7" d="M445,235.5H320.79a4.81,4.81,0,0,0-4.8,4.8h0a4.81,4.81,0,0,0,4.8,4.8h86.43a38,38,0,0,1,8.24-.89h4.61A40.07,40.07,0,0,0,445,235.5Z"/><rect class="cls-8" x="258.13" y="72.99" width="63.49" height="59.72"/><rect class="cls-9" x="256.11" y="70.5" width="63.49" height="59.72"/><rect class="cls-1" x="264.85" y="80.05" width="46" height="40.62"/><path class="cls-10" d="M223.22,55V399.77H98a70.4,70.4,0,0,1-70.19-70.2h0A70.4,70.4,0,0,1,98,259.37h0a29.77,29.77,0,0,0,29.69-29.68h0A29.77,29.77,0,0,0,98,200H94.42a31,31,0,0,1-30.86-30.86h0a31,31,0,0,1,30.86-30.86h10.84a12,12,0,0,0,12-12h0a12,12,0,0,0-12-12h-8A8.32,8.32,0,0,1,89,106h0a8.32,8.32,0,0,1,8.3-8.29h53.52a13.07,13.07,0,0,0,13-13h0a13.06,13.06,0,0,0-13-13h-16a8.31,8.31,0,0,1-8.29-8.29h0a8.32,8.32,0,0,1,8.29-8.3ZM74,114.26A8.29,8.29,0,1,0,65.74,106,8.29,8.29,0,0,0,74,114.26Z"/><path class="cls-11" d="M211.3,55v3.58h11.92V59H191V70.63h32.21V71H211.3V82.65h11.92V83H191V94.68h32.21V95H211.3V106.7h11.92v.36H191v11.66h32.21v.36H211.3v11.67h11.92v.35H191v11.67h32.21v.36H211.3V154.8h11.92v.35H191v11.67h32.21v.35H211.3v11.67h11.92v.36H191v11.67h32.21v.35H211.3v11.67h11.92v.36H191v11.66h32.21v.36H211.3v11.67h11.92v.35H191V239h32.21v.36H211.3V251h11.92v.36H191V263h32.21v.35H211.3V275h11.92v.36H191v11.66h32.21v.36H211.3v11.67h11.92v.35H191V311.1h32.21v.36H211.3v11.66h11.92v.36H191v11.67h32.21v.35H211.3v11.67h11.92v.36H191V359.2h32.21v.35H211.3v11.67h11.92v.36H191v11.67h32.21v.35H211.3v11.67h11.92v.35H191v4.15h-.35v-4.15H150.43v4.15h-.35v-4.15H109.85v4.15h-.35v-4.15H74.25l-1-.35H89.21V383.6H53.26l-.41-.35H68.92V371.58H41.8l-.26-.36h7.09V359.55H34.53c-.06-.12-.12-.23-.17-.35H68.92V347.53H30.1l-.09-.36H48.63V335.5H28l0-.35h.36V323.48H28c0-.12,0-.23,0-.36H48.63V311.46H30.15l.09-.36H68.92V299.43H34.6c.06-.11.11-.23.17-.35H48.63V287.41H41.92l.28-.36H68.92V275.39H53.45l.44-.36H89.21V263.36H74.69c.34-.12.67-.24,1-.35H109.5v-6l.35-.16V263h40.23V251.34H118.2l.38-.36h11.21V239.32H126l.12-.36h23.94V227.29H127.54l0-.35h2.28V215.27h-5.92l-.2-.36h26.41V203.25H111.39c-.23-.13-.47-.24-.72-.36h19.12V191.22H89.56v8.4l-.35-.06v-8.34H72.91l-.36-.35h37V179.2H69.27V187l-.35-.51V179.2H65.25l-.12-.36H89.21V167.17H63.63c0-.11,0-.23,0-.35h5.27V155.15h-2l.19-.35H89.21V143.13H77.88l.57-.36H109.5v-5.26l.35-.14v5.4h40.23V131.1H116.25l.15-.35h13.39V119.08H114.86l-.27-.36h35.49V107.06H109.85v8.12l-.35-.14v-8H89.08c0-.12,0-.24,0-.36h.17v-2.56a9.13,9.13,0,0,1,.35-1.16v3.72h40.23v-9h.35v9h40.23V95h-11.7l.45-.35h31.54V83H163.75c0-.12,0-.24-.05-.36h6.67V71H131.65a7.12,7.12,0,0,1-.74-.35h19.17V59h-22.3c.07-.12.15-.24.23-.35h1.78V56.75l.35-.26v2.12h40.23V55h.35v3.58H211V55Zm-129,52c0-.12,0-.24,0-.36H65.77c0,.12,0,.24,0,.36h3.11v5.44l.35.26v-5.7ZM211,383.6H170.72v11.67H211V383.6Zm-40.58,0H130.14v11.67h40.23V383.6Zm-40.58,0H89.56v11.67h40.23V383.6Zm60.87-12H150.43v11.67h40.23V371.58Zm-40.58,0H109.85v11.67h40.23V371.58Zm-40.58,0H69.27v11.67H109.5V371.58Zm101.45-12H170.72v11.67H211V359.55Zm-40.58,0H130.14v11.67h40.23V359.55Zm-40.58,0H89.56v11.67h40.23V359.55Zm-40.58,0H49v11.67H89.21V359.55Zm101.45-12H150.43V359.2h40.23V347.53Zm-40.58,0H109.85V359.2h40.23V347.53Zm-40.58,0H69.27V359.2H109.5V347.53ZM211,335.5H170.72v11.67H211V335.5Zm-40.58,0H130.14v11.67h40.23V335.5Zm-40.58,0H89.56v11.67h40.23V335.5Zm-40.58,0H49v11.67H89.21V335.5Zm101.45-12H150.43v11.67h40.23V323.48Zm-40.58,0H109.85v11.67h40.23V323.48Zm-40.58,0H69.27v11.67H109.5V323.48Zm-40.58,0H28.69v11.67H68.92V323.48Zm142-12H170.72v11.66H211V311.46Zm-40.58,0H130.14v11.66h40.23V311.46Zm-40.58,0H89.56v11.66h40.23V311.46Zm-40.58,0H49v11.66H89.21V311.46Zm101.45-12H150.43V311.1h40.23V299.43Zm-40.58,0H109.85V311.1h40.23V299.43Zm-40.58,0H69.27V311.1H109.5V299.43Zm101.45-12H170.72v11.67H211V287.41Zm-40.58,0H130.14v11.67h40.23V287.41Zm-40.58,0H89.56v11.67h40.23V287.41Zm-40.58,0H49v11.67H89.21V287.41Zm101.45-12H150.43v11.66h40.23V275.39Zm-40.58,0H109.85v11.66h40.23V275.39Zm-40.58,0H69.27v11.66H109.5V275.39Zm101.45-12H170.72V275H211V263.36Zm-40.58,0H130.14V275h40.23V263.36Zm-40.58,0H89.56V275h40.23V263.36Zm60.87-12H150.43V263h40.23V251.34Zm20.29-12H170.72V251H211V239.32Zm-40.58,0H130.14V251h40.23V239.32Zm20.29-12H150.43V239h40.23V227.29Zm20.29-12H170.72v11.67H211V215.27Zm-40.58,0H130.14v11.67h40.23V215.27Zm20.29-12H150.43v11.66h40.23V203.25Zm20.29-12H170.72v11.67H211V191.22Zm-40.58,0H130.14v11.67h40.23V191.22Zm20.29-12H150.43v11.67h40.23V179.2Zm-40.58,0H109.85v11.67h40.23V179.2Zm60.87-12H170.72v11.67H211V167.17Zm-40.58,0H130.14v11.67h40.23V167.17Zm-40.58,0H89.56v11.67h40.23V167.17Zm60.87-12H150.43v11.67h40.23V155.15Zm-40.58,0H109.85v11.67h40.23V155.15Zm-40.58,0H69.27v11.67H109.5V155.15Zm101.45-12H170.72V154.8H211V143.13Zm-40.58,0H130.14V154.8h40.23V143.13Zm-40.58,0H89.56V154.8h40.23V143.13Zm60.87-12H150.43v11.67h40.23V131.1Zm20.29-12H170.72v11.67H211V119.08Zm-40.58,0H130.14v11.67h40.23V119.08Zm20.29-12H150.43v11.66h40.23V107.06ZM211,95H170.72V106.7H211V95Zm0-24H170.72V82.65H211V71ZM190.66,59H150.43V70.63h40.23Z"/><path class="cls-12" d="M264.85,90.91h.25a.26.26,0,0,1,.27.24v.59h3.11l0-.87a.27.27,0,0,1,.27-.24h3.31a.25.25,0,0,1,.26.24v2h1.34V92a.23.23,0,0,1,.08-.17.28.28,0,0,1,.19-.07h1.2a.25.25,0,0,1,.26.24v8.28h1.22a.25.25,0,0,1,.19.07.19.19,0,0,1,.08.17v1.72h1v-.44a.26.26,0,0,1,.27-.24h.58a.26.26,0,0,1,.26.2V93.58a.25.25,0,0,1,.18-.23l.29-.09,0,0a1.93,1.93,0,0,0,0-.23c0-.26,0-.51,0-.76a.26.26,0,0,1,.26-.24h.44l0-4.73a.25.25,0,0,1,.25-.24l.47,0V85.19a.26.26,0,0,1,.27-.24h.22a3.25,3.25,0,0,0,0-.43c0-.49,0-1,0-1.47a.2.2,0,0,1,.08-.17.27.27,0,0,1,.19-.08h4a.26.26,0,0,1,.27.25v1.88a.61.61,0,0,1,.36.14.22.22,0,0,1,.11.2V87h.48a.26.26,0,0,1,.26.25V92l.48,0a.25.25,0,0,1,.26.24l0,1h.24a.25.25,0,0,1,.26.24l0,18.39h2V97.2a.36.36,0,0,1,.12-.29.45.45,0,0,1,.27-.08h.05v-1a.25.25,0,0,1,.26-.24h.44a2.43,2.43,0,0,0,0-.45c0-.5,0-1,0-1.5a2.18,2.18,0,0,1,0-.51.36.36,0,0,1,.2-.3h0a.14.14,0,0,0,0-.06,1.84,1.84,0,0,0,0-.41c0-.14,0-.29,0-.42a.26.26,0,0,1,.27-.22l2,0a.28.28,0,0,1,.23.12c0-.34,0-.68,0-1a.26.26,0,0,1,.27-.22l2.11,0a.26.26,0,0,1,.27.25l0,1.93h0a.73.73,0,0,1,.33.16.21.21,0,0,1,.09.18l0,2.46.43,0a.25.25,0,0,1,.24.21l.13,1a.35.35,0,0,1,.13,0,.44.44,0,0,1,.18.33v12.54h1.68v-1.9a.21.21,0,0,1,.08-.17.23.23,0,0,1,.19-.07l.68,0a.26.26,0,0,1,.27.24v1.89h1.33a.25.25,0,0,1,.26.23l0,.58h.12v-1.34a.26.26,0,0,1,.27-.24h1.87a.26.26,0,0,1,.27.23c0,.2,0,.4,0,.61a.25.25,0,0,1,.15,0h1.8a.26.26,0,0,1,.27.23l0,.47,0,0a.8.8,0,0,0,.11-.25,2,2,0,0,0,0-.55c0-.25,0-.5,0-.76a.24.24,0,0,1,.25-.23l1.46,0V80.05h1v40.62h-46Z"/><path class="cls-13" d="M416.75,143c-8.66-8.83-15.11,2.38-14.21,13.64.85,10.67,10,47.28,8.34,62.68h3.53C423,199.56,427.85,154.29,416.75,143Z"/><path class="cls-4" d="M413.11,219.31c8.39-31.13-2.23-74.16-2.26-74.31a.51.51,0,0,0-.61-.36.49.49,0,0,0-.36.6c0,.14,10.66,43.22,2.21,74.07Z"/><path class="cls-7" d="M395.37,162.44c-9.13-4.84-11.44,5.72-7.88,14.46,2.95,7.23,16,28.65,20.92,42.41h4.64C413.45,200.29,406.15,168.15,395.37,162.44Z"/><path class="cls-14" d="M411.36,219.31c-3-25.72-20.13-53.67-20.19-53.77a.42.42,0,0,0-.71.43c.06.1,17.05,27.87,20.07,53.34Z"/><path class="cls-14" d="M434,174.65c8.85-3.87,10.25,6.13,6.32,14-2.66,5.34-12.25,19-18.71,30.64h-7.37C416.74,201.72,424.83,178.64,434,174.65Z"/><path class="cls-4" d="M416.85,219.31c6.29-21.32,20.76-41.4,20.82-41.48a.39.39,0,0,1,.63.45c-.06.08-14.38,20-20.65,41Z"/><rect class="cls-15" x="401.46" y="212.27" width="28.76" height="9.22" rx="1.41"/><polygon class="cls-16" points="407.32 217.48 424.37 217.48 428.81 221.5 425.18 235.5 415.85 235.5 406.51 235.5 402.88 221.5 407.32 217.48"/><polygon class="cls-17" points="428.81 221.5 428.07 224.37 403.62 224.37 402.88 221.5 428.81 221.5"/><polygon class="cls-13" points="378.68 217.5 359.54 217.5 367.9 235.5 387.03 235.5 378.68 217.5"/><polygon class="cls-17" points="344.12 198.6 383.34 198.6 374.49 235.5 335.27 235.5 344.12 198.6"/><polygon class="cls-7" points="347.36 203.67 377.67 203.67 371.25 230.43 340.94 230.43 347.36 203.67"/><polygon class="cls-7" points="348.94 205.43 375.25 205.43 369.68 228.67 343.36 228.67 348.94 205.43"/><polygon class="cls-18" points="365.41 228.67 343.36 228.67 346.63 215.04 349.8 212.91 360.83 222.72 365.41 228.67"/><polygon class="cls-19" points="371.66 220.39 369.68 228.67 343.36 228.67 343.96 226.17 363.46 213.11 371.66 220.39"/><path class="cls-20" d="M439,420.66H415.41a6.6,6.6,0,0,0-6.58,6.58h0a6.6,6.6,0,0,0,6.58,6.58h9.88a5.24,5.24,0,0,1,5.22,5.22h0a5.24,5.24,0,0,1-5.22,5.22h-352A5.24,5.24,0,0,1,68,439h0a5.24,5.24,0,0,1,5.22-5.22h9.43a6.6,6.6,0,0,0,6.58-6.58h0a6.6,6.6,0,0,0-6.58-6.58H61.1a10.48,10.48,0,0,1-10.44-10.45h0A10.47,10.47,0,0,1,61.1,399.77H439a10.47,10.47,0,0,1,10.44,10.44h0A10.48,10.48,0,0,1,439,420.66Zm.4,23.6a5.22,5.22,0,1,0-5.22-5.22A5.22,5.22,0,0,0,439.4,444.26Z"/><path class="cls-21" d="M102.12,238.26c15.28-15.56,26.65,4.2,25.06,24-1.5,18.81-17.71,83.34-14.71,110.49h-6.21C91.08,338,82.56,258.18,102.12,238.26Z"/><path class="cls-22" d="M108.55,372.79c-14.78-54.87,3.93-130.72,4-131a.88.88,0,0,1,1.06-.65.89.89,0,0,1,.65,1.07c-.07.25-18.8,76.19-3.91,130.56Z"/><path class="cls-22" d="M139.82,272.54C155.92,264,160,282.63,153.7,298c-5.2,12.76-28.18,50.51-36.87,74.76h-8.18C108,339.27,120.81,282.62,139.82,272.54Z"/><path class="cls-21" d="M111.63,372.79c5.33-45.33,35.48-94.6,35.59-94.78a.73.73,0,1,1,1.25.76c-.11.18-30.06,49.13-35.38,94Z"/><path class="cls-23" d="M71.77,294.06c-15.61-6.82-18.08,10.81-11.15,24.72,4.69,9.42,21.6,33.51,33,54h13C102.15,341.78,87.9,301.11,71.77,294.06Z"/><path class="cls-24" d="M102,372.79c-11.08-37.57-36.59-73-36.7-73.12a.68.68,0,0,0-1-.16.69.69,0,0,0-.16,1c.1.14,25.35,35.18,36.4,72.32Z"/><rect class="cls-25" x="90.33" y="372.54" width="29.59" height="10.81" rx="1.65"/><polygon class="cls-26" points="113.89 378.65 96.36 378.65 91.78 383.36 95.52 399.77 105.12 399.77 114.73 399.77 118.46 383.36 113.89 378.65"/><polygon class="cls-27" points="91.78 383.36 92.55 386.59 117.69 386.59 118.46 383.36 91.78 383.36"/><path class="cls-7" d="M433.81,296.86h0a4.82,4.82,0,0,1,4.8,4.81h0a4.82,4.82,0,0,1-4.8,4.81h0a4.82,4.82,0,0,1-4.8-4.81h0A4.82,4.82,0,0,1,433.81,296.86Z"/><path class="cls-7" d="M379.11,310.16h13.35a1.85,1.85,0,0,0,1.84-1.84h0a1.85,1.85,0,0,0-1.84-1.84h-18a4.82,4.82,0,0,1-4.81-4.81h0a4.83,4.83,0,0,1,4.81-4.81h46.7a4.82,4.82,0,0,1,4.81,4.81h0a4.82,4.82,0,0,1-4.81,4.81H404.91a1.85,1.85,0,0,0-1.84,1.84h0a1.85,1.85,0,0,0,1.84,1.84h6.27a3.72,3.72,0,0,1,3.71,3.71h0a3.72,3.72,0,0,1-3.71,3.71H400.82a7.4,7.4,0,0,0-7.38,7.38v3.38a1.74,1.74,0,0,1-1.74,1.74h0a1.74,1.74,0,0,1-1.74-1.74V321.9a4.34,4.34,0,0,0-4.33-4.32h-6.52a3.72,3.72,0,0,1-3.71-3.71h0A3.72,3.72,0,0,1,379.11,310.16Z"/><path class="cls-7" d="M383.16,338.19c-1,1.17-10.48,6.45-10.48,6.45l3.53,49.85s.09,5.28,6.1,5.28h19.43c6,0,6.1-5.28,6.1-5.28l3.52-49.85s-9.53-5.28-10.48-6.45Z"/><path class="cls-26" d="M373.53,355.27h37a1.27,1.27,0,0,1,1.28,1.37L409.58,388a1.27,1.27,0,0,1-1.28,1.19H375.74a1.29,1.29,0,0,1-1.28-1.19l-2.21-31.33a1.24,1.24,0,0,1,.34-1A1.27,1.27,0,0,1,373.53,355.27Z"/><path class="cls-7" d="M378.61,334.81h26.83a6,6,0,0,1,5.93,5.93h0a6,6,0,0,1-5.93,5.93H378.61a6,6,0,0,1-5.93-5.93h0A6,6,0,0,1,378.61,334.81Z"/><path class="cls-26" d="M371.9,340.72h40.24a3.34,3.34,0,0,1,3.33,3.33h0a3.33,3.33,0,0,1-3.33,3.32H371.9a3.32,3.32,0,0,1-3.32-3.32h0A3.33,3.33,0,0,1,371.9,340.72Z"/><path class="cls-28" d="M392,384.67a12.46,12.46,0,1,0-12.45-12.46A12.49,12.49,0,0,0,392,384.67Z"/><path class="cls-4" d="M392,383.18a11,11,0,1,0-11-11A11,11,0,0,0,392,383.18Z"/><path class="cls-28" d="M392,363.4h0a5.32,5.32,0,0,1,5.3,5.3v7a5.32,5.32,0,0,1-3.53,5V375.1c0-1.94-.31-2.22-1.05-2.91l-.35-.34c-.18-.17-.36-.33-.55-.48-.7-.59-1.42-1.2-1.42-3.45v-4.27a5.25,5.25,0,0,1,1.6-.25Zm.74,17.57V375.1c0-1.49-.21-1.68-.72-2.16l-.38-.36a4.57,4.57,0,0,0-.47-.42c-.89-.74-1.8-1.51-1.8-4.24v-3.81a5.31,5.31,0,0,0-2.67,4.59v7A5.32,5.32,0,0,0,392,381h0A4.52,4.52,0,0,0,392.76,381Z"/><path class="cls-27" d="M412.92,341.79a3.31,3.31,0,0,1-1.58,2.83,3.24,3.24,0,0,1-1.74.5H369.36a3.11,3.11,0,0,1-.62-.06,3.33,3.33,0,0,0,3.16,2.31h40.24a3.32,3.32,0,0,0,.62-6.59A3.1,3.1,0,0,1,412.92,341.79Z"/><path class="cls-29" d="M408.63,335.75a6,6,0,0,1-5.44,3.57H376.35a5.87,5.87,0,0,1-3.18-.93,5.82,5.82,0,0,0-.49,2.33h38.69A5.94,5.94,0,0,0,408.63,335.75Z"/><path class="cls-29" d="M405.12,350.23a1.47,1.47,0,0,1,1.47,1.58l-.24,3.46h4.26l.56-7.9H372.88l.2,2.86Zm-1.55,38.93-.4,5.68a1.38,1.38,0,0,1-1.37,1.28H376.55c.55,1.55,2,3.65,5.77,3.65h19.43c6,0,6.1-5.28,6.1-5.28l.38-5.33Z"/><path class="cls-27" d="M406.51,356.64,404.29,388a1.27,1.27,0,0,1-1.27,1.19h5.28a1.27,1.27,0,0,0,1.28-1.19l2.22-31.33a1.28,1.28,0,0,0-.34-1,1.26,1.26,0,0,0-.85-.4h-5.38a1.27,1.27,0,0,1,.94.4A1.24,1.24,0,0,1,406.51,356.64Z"/><path class="cls-7" d="M168,210.51a1,1,0,1,0-1-1A1,1,0,0,0,168,210.51Z"/><path class="cls-7" d="M320.49,187.45a1,1,0,1,0-1-1A1,1,0,0,0,320.49,187.45Z"/><path class="cls-7" d="M241.38,124a1,1,0,1,0-1-1A1,1,0,0,0,241.38,124Z"/><path class="cls-7" d="M160.31,252.94a1,1,0,1,0-1-1A1,1,0,0,0,160.31,252.94Z"/><path class="cls-7" d="M304,258.73a1,1,0,1,0-1-1A1,1,0,0,0,304,258.73Z"/><path class="cls-7" d="M322.06,151.42a1,1,0,1,0-1-1A1,1,0,0,0,322.06,151.42Z"/><path class="cls-7" d="M146.6,133.06a1,1,0,1,0-1-1A1,1,0,0,0,146.6,133.06Z"/><path class="cls-7" d="M347.51,147.5a2.16,2.16,0,1,0-2.15-2.15A2.16,2.16,0,0,0,347.51,147.5Z"/><path class="cls-7" d="M299.15,172.37a2.16,2.16,0,1,0-2.16-2.15A2.16,2.16,0,0,0,299.15,172.37Z"/><path class="cls-7" d="M207.89,115.58a2.16,2.16,0,1,0-2.15-2.15A2.15,2.15,0,0,0,207.89,115.58Z"/><path class="cls-7" d="M170.55,157.3a2.15,2.15,0,1,0-2.15-2.15A2.15,2.15,0,0,0,170.55,157.3Z"/><path class="cls-7" d="M190.66,261.48a2.16,2.16,0,1,0-2.16-2.15A2.15,2.15,0,0,0,190.66,261.48Z"/><path class="cls-7" d="M304,261.08a2.16,2.16,0,1,0-2.15-2.15A2.16,2.16,0,0,0,304,261.08Z"/><path class="cls-30" d="M295.56,232.76a.74.74,0,1,1,1.11,1,23.83,23.83,0,0,0-6.18,18.53c.68,7.34,4.43,14.59,9.88,20.42a.74.74,0,1,1-1.07,1c-5.67-6-9.56-13.62-10.28-21.29A25.33,25.33,0,0,1,295.56,232.76Z"/><path class="cls-31" d="M270.41,162a.73.73,0,0,1-.85-.61.74.74,0,0,1,.61-.85s12.54-2.17,14.94,9.2a55.55,55.55,0,0,1,.87,9.94c.2,7.33.39,14.25,7.49,18.36a.73.73,0,1,1-.74,1.27c-7.81-4.51-8-11.84-8.22-19.59a54.09,54.09,0,0,0-.85-9.68C281.56,160.06,270.44,162,270.41,162Z"/><path class="cls-30" d="M191.2,225.53a.74.74,0,1,1,1.36.6s-2.27,4.88,5,14c3.81,4.8,7.31,10.1,9.26,15.62s2.35,11.4-.12,17.11a.74.74,0,0,1-1.36-.58c2.31-5.33,1.94-10.77.08-16s-5.29-10.51-9-15.2C188.57,231.22,191.2,225.55,191.2,225.53Z"/><path class="cls-32" d="M286.19,188.86A46,46,0,0,0,296.72,198c6.3,3.88,14,22.6.09,35.95s-11.94,30.58,2.78,39-80.74,4.7-80.74,4.7l-.07-47.28,37.42-24.16S285.56,187.9,286.19,188.86Z"/><path class="cls-33" d="M289,191.85a45.19,45.19,0,0,0,7.75,6.12c6.3,3.88,14,22.6.09,35.95s-11.94,30.58,2.78,39-80.74,4.7-80.74,4.7l-.07-47.28,37.42-24.16s13.5-8.39,22.39-13.49A19.33,19.33,0,0,0,289,191.85Z"/><path class="cls-20" d="M288.45,277.62c-6.5.5-14.85.71-23.51.77-8.59-2.29-16.16-5.08-16.11-6,.14-2.45-30,1.4-30-2.53S227,236.27,227,236.27l40.48-22,21.12-2s8.15,5.55,2.12,16.47-25.34,27.73-5.74,45.1A18.77,18.77,0,0,1,288.45,277.62Z"/><path class="cls-22" d="M204.72,265.55s-10.91,4.24-15.82,10-35.65,91.73-37.64,98.73a13.75,13.75,0,0,0,.14,7.28L172,384.77c5.59-11.59,19.55-42.4,19.55-42.4Z"/><path class="cls-34" d="M204.72,265.55s-10.91,4.24-15.82,10a13.5,13.5,0,0,0-1.35,2.27c3.71,7.34,1.17,23.31-1.16,37-2.9,17-11.89,52.81-16.75,63a15.21,15.21,0,0,1-4.47,5.91l6.82,1.08c5.59-11.59,28.93-65.65,28.93-65.65Z"/><path class="cls-7" d="M199,268.2l-1.36.73a2.37,2.37,0,0,1,.62,1.39,2.14,2.14,0,0,1,0,.72.26.26,0,0,0,.28.13,3.11,3.11,0,0,0,.57-2.69c0-.09,0-.19-.07-.28Zm-2.9,1.62a5.22,5.22,0,0,1,2.62,3.26,5.12,5.12,0,0,1-1.06,4.25,3.86,3.86,0,0,1-.07,1c-.29,1.54-1.35,2.5-1.1,1.59a4.38,4.38,0,0,0,.1-1.35,7.22,7.22,0,0,0-.17-1.26c-.47-2.2-2.25-3.83-3.71-5.22,1.09-.8,2.25-1.56,3.39-2.24Zm-5.29,3.78c-.41.36-.79.72-1.15,1.09a15.26,15.26,0,0,1,2.22,5,8.43,8.43,0,0,1,.19,1.7,4.5,4.5,0,0,0,.16,2.48c.49.74.41-.23,1.2-.1s1.66-1.25,1.91-2.67a4.25,4.25,0,0,0,0-2.24,6.39,6.39,0,0,0-2.26-2.85,11.68,11.68,0,0,1-2.27-2.39Zm-2.6,2.95c.31.52.67,1.08,1.11,1.7A16,16,0,0,1,190.4,280c1.91,3.63,2,7.22,1.18,7.66-1,.52-1.24,1-1.93,2-.42.65-.8.48-1.05.25a5.23,5.23,0,0,1-.42.79c-.3,1.13-2.1,1-2.1,1-.19.39-1.7.78-1.48,0s1-2.24-.2-7.17c.62-1.45,1.2-2.76,1.72-3.92l.16.27c.33.56.69,1.15,1.07,1.73.22.36.42.7.6,1a21,21,0,0,0-.3-3.09c-.05-.21-.09-.41-.14-.6a8.28,8.28,0,0,0-.47-1.29c.44-.92.84-1.67,1.17-2.25Zm-4.68,10.2c-.64,1.54-1.33,3.21-2,5a2.25,2.25,0,0,1,.63.35c.8.62,1.64,0,2.11-1.24.34-.88-.2-2.47-.7-4.1Zm-6.26,15.72c-.43,1.09-.85,2.2-1.29,3.33a7.64,7.64,0,0,1,1.55-.5,4,4,0,0,1,1.84.05c.81.2,1.42.53,1.54.51s.05-.15.05-.15c-.73-.27-1.5-2.25-1.9-3.09a1.28,1.28,0,0,0-.49-.61.57.57,0,0,0-.74.19.93.93,0,0,1-.56.27Zm-1.6,4.15c-.3.8-.61,1.6-.92,2.42a3.85,3.85,0,0,1,.52-.24c.22-.09.4-.47.56-.26a.56.56,0,0,1-.09.71c-.34.28-1.12.55-1.33.92a.29.29,0,0,1-.14.13l-.88,2.34a.28.28,0,0,1,.2-.1s.74,0,.87.25a2,2,0,0,1-.46,1.62c-.41.37-.92.27-1,0a1.61,1.61,0,0,1,0-.66c-1.6,4.24-3.22,8.6-4.83,12.94l0,.13a2.2,2.2,0,0,0,1.55,2c.25.75.72,1,1.56,1.29a4.51,4.51,0,0,1,1.46,1.18c.37.3.38.05.38.05-.94-2.08-1.41-8-1.22-12s1.58-4.2,1.88-3.83,0,1,0,1c-2.29,6.28-.83,13.92-.36,14.24s1.22-.25,2.38,1.19a3.22,3.22,0,0,0,2.77,1.33c.17-.05.07-.29.07-.29-2-2.86-2.62-8.62-2.59-11.3s.66-3.49,1-2.63-.45,3-.34,5a31.84,31.84,0,0,0,1.29,6.8c.61,2,1.86,1.77,1.86,1.77.54.63,1.63.34,2.09.15s1.23.79,0-1.3a27.33,27.33,0,0,1-2.93-8.82c-.55-3.3.37-4.15.89-3.51s0,2.8.56,7,2.23,6.11,3.05,6.47a2.87,2.87,0,0,0,2.19-.23c-.11,0-.38-.24-.76-.72a1.4,1.4,0,0,0,.28.06,1.3,1.3,0,0,0,.45-.05,1,1,0,0,0,.18-.08c.3.49.54.71.54.5a2.1,2.1,0,0,1,1-1.49,1.38,1.38,0,0,0,.47-1.13c.42-.07.52-.64.35-1.43a14.14,14.14,0,0,0-.41-2.78,3.44,3.44,0,0,1,.85,2c.13.3.26.27.26.27-.11-.85.44-1.91.34-2.68a2.08,2.08,0,0,0-.43-1.11,3.17,3.17,0,0,0-1.1-2,5.31,5.31,0,0,0-.53-1.54,3.33,3.33,0,0,0-.76-2.68,4.58,4.58,0,0,0-1.09-1,7.29,7.29,0,0,1,0-1.12,3.8,3.8,0,0,0-.78-2.81,4.84,4.84,0,0,0-1-1c.1-.74-.47-1.75-.33-2.19s0-2.33-.9-2c-.66.2-1.5-.28-2.69-.65a8.79,8.79,0,0,0-1.61-.33,7.6,7.6,0,0,0-2.43.2Zm-22.83,62.81c-.5,1.47-.9,2.66-1.18,3.54a3.17,3.17,0,0,1,1.72,2.28,2.37,2.37,0,0,1,0,.73.26.26,0,0,0,.28.12,3.08,3.08,0,0,0,.58-2.68,7.84,7.84,0,0,0-.95-2.3,1.43,1.43,0,0,0-.4-1.69Zm-1.7,5.28a5.27,5.27,0,0,1,2.7,3.3,5,5,0,0,1-.72,3.78l-1.72-.27a13.94,13.94,0,0,1-.26-6.81Zm24.15,3.09c.61-1.32,1.26-2.7,1.92-4.14a22.43,22.43,0,0,0-1.46-3.12c-1.39-2.42-2.85-4.42-2.67-5.5s2.08,1.39,3.36,4.47c.6,1.45.94,2.36,1.26,3.11l2.06-4.47a14.13,14.13,0,0,0-1.92-2.47c-1.9-1.89-3.56-3.14-3.42-4.51s2-2,3.52.74a47.85,47.85,0,0,1,2.33,5.14c1.73-3.76,3.47-7.56,5-11a6.35,6.35,0,0,0-1.11-1.25,5,5,0,0,0-.79-1.33c-.81-.95-.71-2.26-1.93-2.71s-4.3.33-5.4,1.38-1.05,1.7-1.58,2.24c0,0-.29.38-.55-.82s-.32-3.1-1-4.24a11.61,11.61,0,0,0-1-1.81c-.27-.25-1,.2-1,.2s-1.39-.87-2.14-.23-1,1.33-2.57,1.27a2.11,2.11,0,0,0-2,1,3,3,0,0,0-1.22.54c-.66.54-.56,1-.56,1s-1.37,1.06-1,3.73c0,0,.07.17.2,0s.89-1.68,1.47-1.94a4.51,4.51,0,0,1,3.92,0c1.65.9,2.16,1.34,1.89,1.61s-2.4,0-3.55-.19a4.59,4.59,0,0,0-3.94,1.42c-.89,1.12-.78,2.36-.59,3.87s.4,2.14.59,2.29.52-1.25,1-1.82a9,9,0,0,1,3.9-2.3c1.84-.51,2.28,0,2.42.36s-2.46,1.63-3.22,2.27-3.74,3.88-3.89,4.57a5.74,5.74,0,0,0,0,2.39,8.76,8.76,0,0,0-1.06,2.22,10.59,10.59,0,0,0,.87,3.78c.19.14.21-1.6,1.23-3s1.91-2.83,2.58-3.11.54.93-1,2.4a8.3,8.3,0,0,0-2.36,3.66,5.94,5.94,0,0,0,.42,3.51c.29.68.63.62.63.62a.19.19,0,0,0,.1-.23,3.26,3.26,0,0,1-.18-1.54,10.53,10.53,0,0,1,1.57-3.72,11,11,0,0,0,1.79-2.7c.25-.72,1.19-.65.61.59s-2.17,1.79-2.6,3.7-.26,4.37-.67,4.58c-.26.14.38,1.1,1,2.07l5.15-1.24c-.44-1.87-1.38-6.31-.95-6.74s.95-.93,1.53,1.75a29.51,29.51,0,0,1,.81,4.66l2.73-.66a53.36,53.36,0,0,0-1.63-6.06c-.83-2.46-1.29-3.41-.88-4s1.31.14,2.23,3.43c.8,2.82,1.16,4.69,1.62,6.27ZM195.72,318l1.76-10.27c-2,1.17-3.73,1.68-4,3.92a6.53,6.53,0,0,0,1.64,4.43,5,5,0,0,0,.59,1.92Zm2.22-12.94c-.17.11-.33.24-.5.37-1.62,1.27-3.92,1.57-3.85,3.5a2.35,2.35,0,0,0,.14.74s0,.14-.26.09a3.82,3.82,0,0,1-.94-2.78,6.17,6.17,0,0,1,.65-2.2,1.33,1.33,0,0,1,.34-1.79,5.33,5.33,0,0,1,1.68-.92,4.8,4.8,0,0,1,2.65-4.47,10.85,10.85,0,0,1,1.47-.58l-.5,2.93a4.55,4.55,0,0,0-2.59,2,5,5,0,0,1,.89.09,3.35,3.35,0,0,0,1.34,0l-.52,3.05ZM198.4,274s0-1.27-.47-1.65-.2.45-.1.92.49,1.25.57.73ZM194,312.64s-.21-1.29.24-1.61.26.48.23.94-.33,1.2-.47.67ZM187.75,288c0,.58.69.88.81,0a5.27,5.27,0,0,0-.35-2.1c-.14-.37-.43,0-.32.32a14.26,14.26,0,0,1-.14,1.75Zm-3.61,37.15c.27.07.51.71.58,2.41a1.62,1.62,0,0,1,0,.22,7.27,7.27,0,0,0,.27,1.7c-1.06-1.23-1.49-3.9-1.14-4.22a.29.29,0,0,1,.28-.11Zm-3.83-15.95a10.34,10.34,0,0,1,1.37,1.26,9.82,9.82,0,0,0-1.16-.38,5.62,5.62,0,0,0-.8-.15c-2-.25-2.91-.65-2.83-1.35s.63-.62,2.19-.07a4.46,4.46,0,0,1,1.23.69Zm.71,3a12,12,0,0,1,2.66,2.8c.28.41.53.75.76,1a9.37,9.37,0,0,0-1.68-.52,3.84,3.84,0,0,0-1.46-2.15,4.09,4.09,0,0,0-1.62-.65c-.82-.14-1.57-1.06-.44-1.2a2.8,2.8,0,0,1,1.78.69ZM186.37,324a3.1,3.1,0,0,1-1.69-.89c-.73-.93,0-1.69.65-.59a9.46,9.46,0,0,0,1,1.48Zm-1.22-3.7c-2.29-1-2.83-2.39-2.1-2.4s1.46,1.34,2.1,2.4ZM153.51,379s0-1.28-.46-1.66-.2.45-.1.93.49,1.24.56.73Zm14.89-28.11c.91,0,1.68.08,1.89.38.49.69-.46.41-1.89-.38Zm12.41,2.69c-2-.06-3.52.63-3.94.3s.84-1.21,2-1.2a2.25,2.25,0,0,1,1.92.9Zm-4.34,2.82c.14-1.08,1.56-1.33,3.59.8a9.06,9.06,0,0,1,1.61,2.61A10.13,10.13,0,0,0,179,358c-2.22-1-2.7-.57-2.55-1.64Zm-5.75,9a3.58,3.58,0,0,1,.66,1.26c.06.51-.26.95-.48.89s-.48-1.49-.51-1.81.11-.58.33-.34Zm-2.85.9c-.42.25-1.18,1.05-1.42.75s.14-.73.14-.73c.58-.62,2-.93,2-.65s-.35.38-.77.63Zm4.63-2c-.29.2-.82-.34-1-.93a2.57,2.57,0,0,1,.27-1.51c.58-.59,1,2.24.74,2.44Zm-3-1.92c-.41-.08-.56-.68-.5-.84a5.26,5.26,0,0,1,1.34-.47c.16,0,.41.28.34.66s-.77.73-1.18.65Zm-1.1.35c-.16.33-1.88.64-1.83.42a9.48,9.48,0,0,1,1.47-1.23c.36-.19.52.48.36.81Zm3.49-5.18a.61.61,0,0,1-.48-.57c.05-.17.69-.28.69-.28.59,0,.06.85-.21.85Zm2.06-.25a.34.34,0,0,1-.33-.48s.75-1.29,1.15-1.4,1,.32.95.81-1.56,1.07-1.77,1.07Zm-2.56,1c0,.54-.4.65-1.11.31a1.56,1.56,0,0,1-.95-1.14c0-.23.45-.44.59-.44a1.2,1.2,0,0,1,1.47,1.27Zm11.27-31.16a12.43,12.43,0,0,1-.69-3.67c-.06-1.31,1.19-1.16.77.34a9.83,9.83,0,0,0-.08,3.33Zm-2.11-12c-1.21-.3-1.54-.88-1.24-1.14s.93.54,1.24,1.14Zm-4.09,2.36c-.26.08-.88-2.86,0-3.07,0,0,.42-.1.59.61a3.78,3.78,0,0,1-.56,2.46Zm-.29-5.81c-.37.13-.14-1,1.13-1.1,0,0,.54,0,.64.46s-.1.74-.4.72a4.35,4.35,0,0,0-1.37-.08Zm2.43,6.34c-.35.24-.69-2.3,0-2.14.15.05.34.21.43.77A1.45,1.45,0,0,1,178.61,318Z"/><path class="cls-35" d="M199,268.2l-1.36.73a2.37,2.37,0,0,1,.62,1.39,2.14,2.14,0,0,1,0,.72.26.26,0,0,0,.28.13,3.11,3.11,0,0,0,.57-2.69c0-.09,0-.19-.07-.28Zm-2.9,1.62a5.22,5.22,0,0,1,2.62,3.26,5.12,5.12,0,0,1-1.06,4.25,3.86,3.86,0,0,1-.07,1c-.29,1.54-1.35,2.5-1.1,1.59a4.38,4.38,0,0,0,.1-1.35,7.22,7.22,0,0,0-.17-1.26c-.47-2.2-2.25-3.83-3.71-5.21l.06,0h0l.08-.06h0l0,0,.05,0,.05,0,.06,0,.1-.07,0,0,.05,0,.06,0,0,0,.1-.07,0,0,.06,0,.05,0,0,0,.11-.07.05,0,0,0,.05,0,.06,0,0,0,0,0,0,0,.06,0,0,0,.05,0,.06,0,0,0,0,0,0,0,.06,0,.1-.07.05,0,.06,0,0,0h0l.06,0,.05,0,0,0,.06,0,.05,0,0,0h0l.06,0,.21-.13.05,0h0l.33-.2h0l.05,0,.05,0,.16-.1.06,0h0l0,0Zm-5.29,3.78,0,0,0,0-.1.08,0,0h0l0,0,0,0h0l0,0h0l0,0,0,0h0l0,0,0,.05,0,0,0,0h0l-.12.12,0,0h0l0,0,0,0v0h0l-.19.19,0,0h0l0,0v0l-.17.17,0,0a15.26,15.26,0,0,1,2.22,5,8.43,8.43,0,0,1,.19,1.7,4.5,4.5,0,0,0,.16,2.48c.49.74.41-.23,1.2-.1s1.66-1.25,1.91-2.67a4.25,4.25,0,0,0,0-2.24,6.39,6.39,0,0,0-2.26-2.85,11.68,11.68,0,0,1-2.27-2.39Zm-3.26,4.18q.36-.7.66-1.23c.31.52.67,1.08,1.11,1.7A16,16,0,0,1,190.4,280c1.91,3.63,2,7.22,1.18,7.66-1,.52-1.24,1-1.93,2a1.23,1.23,0,0,1-.24.29c.1-5-.38-9.31-1.86-12.24ZM186,317c-.29,1.58-.62,3.29-1,5.09a2,2,0,0,1,.32.39,9.46,9.46,0,0,0,1,1.48,3.45,3.45,0,0,1-1.59-.78c-.14.71-.3,1.43-.45,2.16a5.12,5.12,0,0,1,.39,2.26,1.62,1.62,0,0,1,0,.22,7.27,7.27,0,0,0,.27,1.7,5.94,5.94,0,0,1-1.07-2.33c-.34,1.59-.71,3.21-1.09,4.88a2.55,2.55,0,0,0,.69.51,2.87,2.87,0,0,0,2.19-.23c-.11,0-.38-.24-.76-.72a1.4,1.4,0,0,0,.28.06,1.3,1.3,0,0,0,.45-.05,1,1,0,0,0,.18-.08c.3.49.54.71.54.5a2.1,2.1,0,0,1,1-1.49,1.38,1.38,0,0,0,.47-1.13c.42-.07.52-.64.35-1.43a14.14,14.14,0,0,0-.41-2.78,3.44,3.44,0,0,1,.85,2c.13.3.26.27.26.27-.11-.85.44-1.91.34-2.68a2.08,2.08,0,0,0-.43-1.11,3.17,3.17,0,0,0-1.1-2,5.31,5.31,0,0,0-.53-1.54,3.33,3.33,0,0,0-.76-2.68A3.91,3.91,0,0,0,186,317Zm-7.83,34c-.16.62-.32,1.23-.49,1.84a3.31,3.31,0,0,1,1.22-.24,2.25,2.25,0,0,1,1.92.9,20.77,20.77,0,0,0-3.42.39c-.16.58-.32,1.16-.47,1.73.59-.32,1.72,0,3.14,1.5a9.06,9.06,0,0,1,1.61,2.61A10.13,10.13,0,0,0,179,358c-1.54-.66-2.24-.68-2.48-1-.28,1-.57,2-.85,3,.66,0,1.49.56,2.25,1.89a40.39,40.39,0,0,1,2.2,4.85c1.56-3.54,3.22-7.31,4.89-11.12a6,6,0,0,0-.82-.86,5,5,0,0,0-.79-1.33c-.81-.95-.71-2.26-1.93-2.71a6,6,0,0,0-3.33.29Zm-3.25,11.64a30.17,30.17,0,0,0,2.93,3,13.47,13.47,0,0,1,1.78,2.25l-2,4.5c-.3-.71-.63-1.59-1.18-2.92a17,17,0,0,0-2.35-4.12c.27-.88.54-1.79.82-2.72Zm-1.29,4.23q-.39,1.25-.78,2.4a15,15,0,0,1,.79,2.24c.79,2.79,1.15,4.64,1.61,6.2.59-1.31,1.23-2.74,1.9-4.25a21.71,21.71,0,0,0-1.39-2.95c-.8-1.38-1.61-2.63-2.13-3.64Zm-1.52,4.62.18.55a53.36,53.36,0,0,1,1.63,6.06l-2.73.66a20.54,20.54,0,0,0-.53-3.36c.46-1.15.94-2.46,1.45-3.91ZM169.53,378c-.23.48-.47.94-.72,1.37l1-.24-.26-1.13Zm26.19-60,1.76-10.27c-2,1.17-3.73,1.68-4,3.92a6.53,6.53,0,0,0,1.64,4.43,5,5,0,0,0,.59,1.92Zm2.22-12.94c-.17.11-.33.24-.5.37-1.62,1.27-3.92,1.57-3.85,3.5a2.35,2.35,0,0,0,.14.74s0,.14-.26.09a3.82,3.82,0,0,1-.94-2.78,6.17,6.17,0,0,1,.65-2.2,1.33,1.33,0,0,1,.34-1.79,5.33,5.33,0,0,1,1.68-.92,4.8,4.8,0,0,1,2.65-4.47,10.85,10.85,0,0,1,1.47-.58l-.5,2.93a4.55,4.55,0,0,0-2.59,2,5,5,0,0,1,.89.09,3.35,3.35,0,0,0,1.34,0l-.52,3.05ZM198.4,274s0-1.27-.47-1.65-.2.45-.1.92.49,1.25.57.73ZM194,312.64s-.21-1.29.24-1.61.26.48.23.94S194.09,313.17,194,312.64Z"/><path class="cls-22" d="M292.69,264.53s10.95,4.16,15.89,9.85,36.3,91.47,38.34,98.46a13.64,13.64,0,0,1-.09,7.28l-20.56,3.39c-5.67-11.54-19.85-42.26-19.85-42.26Z"/><path class="cls-34" d="M292.7,264.53s10.94,4.16,15.88,9.85a13.7,13.7,0,0,1,1.37,2.25c-3.65,7.38-1,23.32,1.42,37,3,17,12.27,52.72,17.2,62.91a15.2,15.2,0,0,0,4.51,5.88l-6.81,1.12c-5.67-11.55-19.85-42.26-19.85-42.26Z"/><path class="cls-7" d="M293.12,264.7c1.81.73,9,3.76,13.67,7.89-.41.54-.08,2.4,2.23,5.66A16,16,0,0,1,310.1,280c1.91,3.63,2,7.22,1.17,7.66a4.49,4.49,0,0,0-1.92,2c-.41.65-.81.48-1.05.25a5.23,5.23,0,0,1-.42.79c-.3,1.13-2.1,1-2.1,1-.19.39-1.7.78-1.48,0s1.09-2.34-.31-7.62a17.64,17.64,0,0,0-.85-2.52c-1-2.27-1.8-1.38-1.62-.72a8.16,8.16,0,0,0,.37,1,15.69,15.69,0,0,1,.83,2.82c.44,2.18,1.68,4.8,1.21,6s-1.31,1.86-2.11,1.24-1.44-.33-1.62-.65.46-.65.62-2.3-1-4.4-1.48-3.95-.36,1.89-.26,3.31-.26,2.2-1.38,1.9l-.39-.08-1.25-7c.37-.9.28-1.83-.37-2.07l-.84-4.72c.8,0,1.55.09,2.2,0,1.51-.21,2.22-2.25-.29-2a3.48,3.48,0,0,0-2.08,1.08l-.82-4.61c.39-.06.79-.1,1.17-.12,2.46-.13,2.73-1.77,1.51-2.29a3.19,3.19,0,0,0-3.05.4l-.78-4.37.41.06Zm18.55,15.5a7.81,7.81,0,0,1,.1,1.17,4.5,4.5,0,0,0,.16,2.48c.49.74.41-.23,1.2-.1h.12c-.56-1.3-1.09-2.49-1.58-3.56Zm7.09,16.91c1.29,3.21,2.63,6.62,4,10.17a6.61,6.61,0,0,0-2.22,2.51c-.93,1.66-4.21,3.23-4.48,6.4a6.56,6.56,0,0,0,.28,2.62c.45,1.14-1.36-.67-1.52-2.73a6.48,6.48,0,0,1-1.64-4.43c.27-2.32,2.07-2.79,4.2-4s3.61-2.1,3.28-3.1-1.91-.35-3.53.92-3.92,1.57-3.85,3.5a2.35,2.35,0,0,0,.14.74s0,.14-.26.09a3.82,3.82,0,0,1-.94-2.78,6.17,6.17,0,0,1,.65-2.2,1.33,1.33,0,0,1,.34-1.79,5.33,5.33,0,0,1,1.68-.92,4.8,4.8,0,0,1,2.65-4.47,10.25,10.25,0,0,1,1.21-.49Zm4.81,12.24a11,11,0,0,0-.79,1c-1.2,1.71-1,3-3.51,5s-2.06,3.38-1.6,4.85,1.5,3,2.28,2.94.83.93,1.22.26-.16-2.48-.16-2.48c-.54-4,2.45-8.35,3.36-8.44a.54.54,0,0,1,.47.19c-.43-1.1-.85-2.2-1.27-3.28Zm1.53,3.95c.1.9-.3,2.5-1.73,4.78-2.41,3.8-2.1,8.58-1,9.23a6.5,6.5,0,0,1,2.22,2.31c.5.7.87.59,1.09.38a7.58,7.58,0,0,0,.52.85c.46,1.18,2.26,1.29,2.26,1.29.25.42,1.82,1,1.5.24s-1.41-2.49-.7-7.63q0-.22.06-.42-.89-2.35-1.78-4.7a24.89,24.89,0,0,1-1.56,3.25c-.17.32-.33.64-.47.95a18,18,0,0,1-.05-3.67,5.74,5.74,0,0,1,1.2-2.85l-1.53-4Zm5.27,13.87,2.15,5.75,0,0c-.73.53-1.66-.22-2.3-1.52-.48-1-.09-2.61.2-4.27Zm-9.78,44.48-2.85-6.06a5.62,5.62,0,0,0,.72,0c1.51-.22,2.22-2.25-.3-2a2.89,2.89,0,0,0-1.19.39l-1.83-3.9c.44-.07.87-.11,1.29-.14,2.46-.13,2.73-1.76,1.52-2.29-1-.44-2.21-.26-3.59.76l-2.13-4.59a5.5,5.5,0,0,1,3.16.14c3.72,1.17,5.24-.63,4.16-1.44s-2.65-.5-4.49-.06c-1,.24-2.17.45-3.14.71l-1.21-2.61a1.77,1.77,0,0,1,1.28-.17c.29.1.26-.36-.12-.62a2.32,2.32,0,0,0-1.63-.22l-.51-1.09a3,3,0,0,1,1-.48s.34-.83,1.91-1.25,4.36,1.12,5.64,1.59,1.73-.06.64-1a8.66,8.66,0,0,0-5.06-1.41c-1,.16-1.87-.14-1.61-.46s.47-1.73,1.23-2.57,2.34-.21,2.34-.21.56-.91,1-.8,1.43,1.28,2.82,2.44,1.79.83,1.82.37a4.46,4.46,0,0,0-1.73-2.61c-.93-.55-1.44-.14-1.44-.14a1.22,1.22,0,0,1,1.36-1.13c1.09,0,2.68,1.22,4.43,2.95s1.15,3.6.66,5-.2,1.92-.05,2.13c1.13.68,2-1.78,2.84-3.35s2.71-2,6-.1a6.55,6.55,0,0,1,3.27,4.85,6.93,6.93,0,0,1,1.81,1.14,1.47,1.47,0,0,1,.58,1.85,7.84,7.84,0,0,1,.95,2.3,3.05,3.05,0,0,1-.57,2.68.26.26,0,0,1-.28-.12,2.2,2.2,0,0,0,0-.73c-.18-1.94-2.54-2.54-4.34-4s-3.49-2.34-3.69-1.38,1.41,2,3.72,3.54,4.2,2.24,4.78,4.62a5.11,5.11,0,0,1-1.07,4.25,4.36,4.36,0,0,1-.06,1l-1,.24a7.79,7.79,0,0,0-.18-1.26c-.68-3.23-4.2-5.23-5.37-7s-2.94-3.71-3.8-2.86.21,1.26,1.64,3.14,1.41,3.16,4.19,5.45a6.42,6.42,0,0,1,2.26,2.85l-3.46.84c-.76-3.52-3.52-7.07-4.32-7.24s-1.17,1.67,1.76,5.81a17.73,17.73,0,0,1,1.09,1.78l-2.76.66c0-.21-.09-.41-.14-.6-.58-2.2-2.35-4.34-2.72-3.24-.28.83.45,2.41,1.49,4.17l-2.84.69c-1-2.28-1.79-1.38-1.62-.73.08.31.22.63.37,1l-2.7.65Zm-15.72-39.07-.16-.89a2,2,0,0,0,.71.65c.1,0-.16.15-.55.24Zm-.17-.94.24,0a1.3,1.3,0,0,0,.45-.05,1,1,0,0,0,.18-.08c.3.49.54.71.54.5a2.1,2.1,0,0,1,1-1.49,1.38,1.38,0,0,0,.47-1.13c.42-.07.52-.64.35-1.43a14.14,14.14,0,0,0-.41-2.78,3.44,3.44,0,0,1,.85,2c.13.3.26.27.26.27-.11-.85.44-1.91.34-2.68a2.08,2.08,0,0,0-.43-1.11,3.17,3.17,0,0,0-1.1-2,5.31,5.31,0,0,0-.53-1.54,3.33,3.33,0,0,0-.76-2.68,4.58,4.58,0,0,0-1.09-1,6.19,6.19,0,0,1,0-1.12,3.8,3.8,0,0,0-.78-2.81,4.84,4.84,0,0,0-.95-1c.1-.74-.47-1.75-.33-2.19s0-2.33-.9-2a3.08,3.08,0,0,1-1.8-.34l.51,2.86.57.57-.5-.19.43,2.37a13.2,13.2,0,0,1,2.07,2.34c.28.41.54.75.76,1a9.37,9.37,0,0,0-1.68-.52,4,4,0,0,0-.95-1.71l2.05,11.47c.1-.08.19-.13.28-.1.27.07.51.71.58,2.41,0,.07,0,.15,0,.22a7.27,7.27,0,0,0,.27,1.7,4.14,4.14,0,0,1-.53-.82l.53,2.95Zm-4.65-26-.12-.7a1.83,1.83,0,0,0,.73.74s.15.11-.05.15a2,2,0,0,1-.56-.19ZM306,281c.33.56.69,1.15,1.07,1.73.22.36.42.7.6,1a19.73,19.73,0,0,0-.31-3.09c0-.21-.08-.41-.13-.6-.58-2.2-2.35-4.34-2.72-3.25-.29.83.45,2.41,1.49,4.18Zm-4.52-4.61c-1-.08.27,2.4.76,2.58s.56-.2.29-1.14a2.82,2.82,0,0,0-1.05-1.44Zm-2.25-3.71c-.6-.22-2-.11-2,.63s2.47,1.1,2.68.29a.74.74,0,0,0-.65-.92ZM315.93,302a5,5,0,0,1,.89.09c1.76.32,3.66-.92,2.55-1.89-.89-.77-2.61.52-3.44,1.8Zm10.32,26.18c.07.58-.58.8-.82-.07a5.09,5.09,0,0,1,.07-2.08c.1-.35.44,0,.38.37a13.9,13.9,0,0,0,.37,1.78Zm-12.6-15.5c.14.53.43-.2.47-.67s.22-1.26-.23-.94-.24,1.61-.24,1.61Zm22.12,39.3c-1-1.39-2.91-2.91-3.7-2.25-1,.83,1.09,2.33,2.82,2.23a5,5,0,0,1,.88,0Zm-9.15,4.13c.52.35.78.06.6-.44s-1.39-1.43-1.39-1.43c-.22-.15-.57-.07-.58.21a4.23,4.23,0,0,0,1.37,1.66Zm1.93-2.23c.59.11,1.12.05.82-.46a2.08,2.08,0,0,0-.93-.67c-.75-.35-1.09-.29-1.19,0s.71,1,1.3,1.09Zm-5.69,11.56c-1-.08.27,2.4.77,2.59s.56-.21.29-1.14a2.81,2.81,0,0,0-1.06-1.45Zm.55-14.38a3.63,3.63,0,0,0-1.39-1.48c-.89-.46-1,.21-.73.58s2.36,1.8,2.12.9Zm.16-6.79a5.89,5.89,0,0,0,.43,1.39c.34.52.79.59.55-.24a2.78,2.78,0,0,0-.72-1.25c-.14-.13-.36,0-.26.1Zm-3,17.46c-.6-.22-2.05-.11-2,.63s2.47,1.1,2.68.29a.74.74,0,0,0-.65-.92Zm5.69-2c.52.5,1.17.45,1,0a7.2,7.2,0,0,0-1.22-1.94c-.62-.53-.85-.65-1,.07s.67,1.38,1.2,1.87ZM322,354.81c1,0,1.24-.46,1.19-.89s-.6-.58-.6-.58a1.76,1.76,0,0,0-1.9,1c-.08.33.34.5,1.31.47ZM339.5,363s0-1.27-.46-1.65-.2.45-.11.92.5,1.25.57.73Zm-32.05-75c0,.58.69.88.81,0a5.27,5.27,0,0,0-.35-2.1c-.14-.37-.43,0-.32.32a14.26,14.26,0,0,1-.14,1.75ZM306.07,324a3.07,3.07,0,0,1-1.69-.89c-.73-.93,0-1.69.65-.59a9.46,9.46,0,0,0,1,1.48Zm-1.22-3.7c-2.29-1-2.83-2.39-2.1-2.4S304.21,319.19,304.85,320.25Z"/><path class="cls-35" d="M293.12,264.7a64.71,64.71,0,0,1,6,2.79h0l.61.32,0,0,.62.34h0l.24.14,0,0,.14.08.18.1.11.06.29.17h0l.25.15.06,0,.06,0,.21.12.12.08.16.09.16.1.26.17.18.11.1.07.15.09.15.1.18.12,0,0,.41.28.08,0,.15.1.15.11.15.1.11.09.17.12h0l.24.18h0l.14.1.13.1.13.11.17.13.11.08.18.14.08.07h0l.23.19h0l.13.12.13.1.14.13.11.09.14.12c-.41.54-.08,2.4,2.23,5.66l.19.27a29,29,0,0,0-1.06,8.26,5.57,5.57,0,0,0-.24-.82c-.14-.37-.43,0-.32.32a14.26,14.26,0,0,1-.14,1.75c0,.48.49.77.71.36,0,.58,0,1.17.06,1.76a5.06,5.06,0,0,1-.34.62c-.3,1.13-2.1,1-2.1,1-.19.39-1.7.78-1.48,0s1.09-2.34-.31-7.62a17.64,17.64,0,0,0-.85-2.52c-1-2.27-1.8-1.38-1.62-.72a8.16,8.16,0,0,0,.37,1,15.69,15.69,0,0,1,.83,2.82c.44,2.18,1.68,4.8,1.21,6s-1.31,1.86-2.11,1.24-1.44-.33-1.62-.65.46-.65.62-2.3-1-4.4-1.48-3.95-.36,1.89-.26,3.31-.26,2.2-1.38,1.9l-.39-.08-.3-1.68-.95-5.29c.37-.9.28-1.83-.37-2.07l-.84-4.72c.8,0,1.55.09,2.2,0,1.51-.21,2.22-2.25-.29-2a3.48,3.48,0,0,0-2.08,1.08l-.82-4.61c.39-.06.79-.1,1.17-.12,2.46-.13,2.73-1.77,1.51-2.29a3.17,3.17,0,0,0-3,.4l-.79-4.37.41.06Zm24.84,78c.42,1.63.85,3.27,1.28,4.88a3.19,3.19,0,0,0-.32-.33,8.66,8.66,0,0,0-5.06-1.41c-1,.16-1.87-.14-1.61-.46s.47-1.73,1.23-2.57,2.34-.21,2.34-.21.56-.91,1-.8a4.05,4.05,0,0,1,1.14.9Zm1.49,5.67c.51,1.86,1,3.71,1.52,5.52a1.32,1.32,0,0,0-.33.48q-.09.36.6.45c1.68,5.9,3.35,11.31,4.85,15.53l-1.55.38c-1-2.28-1.79-1.38-1.62-.73.08.31.22.63.37,1l-2.7.65,0-.1-.05-.09,0-.09,0-.09,0-.09h0l0-.09-.05-.09,0-.1,0-.09-.05-.09,0-.1,0-.09-.05-.09,0-.1h0l0-.08,0-.09-.05-.1,0-.09,0-.09-.05-.1,0-.09-.05-.1,0-.09,0,0,0-.06-.05-.1,0-.1-.05-.09,0-.09-.05-.1,0-.09,0-.1,0-.09,0-.06,0,0,0-.09,0-.1,0-.09,0-.1,0-.09,0-.1-.05-.09,0-.1,0-.07v0l0-.1-.05-.1,0-.09-.05-.1,0-.09-.05-.1,0-.09-.05-.1,0-.09h0l-.05-.09,0-.1-.05-.09,0-.1,0-.1,0-.09-.05-.1,0-.09-.05-.1v0l0-.07-.05-.1,0-.1-.05-.09a5.62,5.62,0,0,0,.72,0c1.51-.22,2.22-2.25-.3-2a2.89,2.89,0,0,0-1.19.39l-.3-.64L315.14,360c.44-.07.87-.11,1.29-.14,2.46-.13,2.73-1.76,1.52-2.29-1-.44-2.21-.26-3.59.76l-2.13-4.59a5.5,5.5,0,0,1,3.16.14c3.72,1.17,5.24-.63,4.16-1.44s-2.65-.5-4.49-.06c-1,.24-2.17.45-3.14.71h0l-1.68-3.61C310.92,349.22,311.87,349.72,319.45,348.34Zm0,0c-.16.15-.58.15-1.17-.07-1.28-.47-4.07-2-5.64-1.59s-1.91,1.25-1.91,1.25a3,3,0,0,0-1,.48l.15.31.32.69,0,.09Zm-14.58-15.76-.16-.89a2,2,0,0,0,.71.65c.1,0-.16.15-.55.24Zm-3.56-19.91a13.2,13.2,0,0,1,2.07,2.34c.28.41.54.75.76,1a9.37,9.37,0,0,0-1.68-.52,4,4,0,0,0-.95-1.71l2.05,11.47c.1-.08.19-.13.28-.1.27.07.51.71.58,2.41,0,.07,0,.15,0,.22a7.27,7.27,0,0,0,.27,1.7,4.14,4.14,0,0,1-.53-.82l.53,2.95.24,0a1.3,1.3,0,0,0,.45-.05,1,1,0,0,0,.18-.08c.3.49.54.71.54.5a2.1,2.1,0,0,1,1-1.49,1.38,1.38,0,0,0,.47-1.13c.42-.07.52-.64.35-1.43a14.14,14.14,0,0,0-.41-2.78,3.44,3.44,0,0,1,.85,2c.13.3.26.27.26.27-.11-.85.44-1.91.34-2.68a2.08,2.08,0,0,0-.43-1.11,3.17,3.17,0,0,0-1.1-2,5.31,5.31,0,0,0-.53-1.54,3.33,3.33,0,0,0-.76-2.68,4.58,4.58,0,0,0-1.09-1,6.19,6.19,0,0,1,0-1.12,3.8,3.8,0,0,0-.78-2.81,4.84,4.84,0,0,0-.95-1c.1-.74-.47-1.75-.33-2.19s0-2.33-.9-2a3.08,3.08,0,0,1-1.8-.34l.51,2.86.57.57-.5-.19.43,2.37Zm-1.26-7-.12-.7a1.83,1.83,0,0,0,.73.74s.15.11-.05.15a2,2,0,0,1-.56-.19ZM306,281c.33.56.69,1.15,1.07,1.73.22.36.42.7.6,1a19.73,19.73,0,0,0-.31-3.09c0-.21-.08-.41-.13-.6-.58-2.2-2.35-4.34-2.72-3.25-.29.83.45,2.41,1.49,4.18Zm-4.52-4.61c-1-.08.27,2.4.76,2.58s.56-.2.29-1.14a2.82,2.82,0,0,0-1.05-1.44Zm-2.25-3.71c-.6-.22-2-.11-2,.63s2.47,1.1,2.68.29a.74.74,0,0,0-.65-.92Zm23.65,92.7c-1-.08.27,2.4.77,2.59s.56-.21.29-1.14a2.81,2.81,0,0,0-1.06-1.45Zm-2.25-3.71c-.6-.22-2.05-.11-2,.63s2.47,1.1,2.68.29a.74.74,0,0,0-.65-.92ZM306.07,324a3.07,3.07,0,0,1-1.69-.89c-.73-.93,0-1.69.65-.59a9.46,9.46,0,0,0,1,1.48Zm-1.22-3.7c-2.29-1-2.83-2.39-2.1-2.4S304.21,319.19,304.85,320.25Z"/><path class="cls-22" d="M250,253.93s43.26,9.83,45.25,11.62,11,44.63,11,48.82-12.18,66-12.33,74.17c-.06,3.25,2.44,11.58,5.41,20.57H200.61c3-9,5.47-17.32,5.41-20.57-.16-8.2-12.35-70-12.33-74.17s9-47,11-48.82S250,253.93,250,253.93Z"/><path class="cls-34" d="M267,257.9c12.35,3,27.1,6.63,28.24,7.65.91.81,3.25,10,5.54,20.27,0,0-9.65-13.43-10.77-14.1s-18.11-5.1-18.11-5.1l-4.48-4.74-.42-4Zm39.28,56.47c0,4.18-12.18,66-12.33,74.17-.06,3.25,2.44,11.58,5.41,20.57H288.66c-.75-10.37-2-18.21-2.24-18.43-.72-.61-5.53-3-4.41-3.41s5.64-2.52,5.64-7-3.13-34.44-7.6-34.44-71.67-8.61-76-6.93c-2.49,1-4.18,3.7-5.17,5.88-2.13-11.82-4.11-22.68-4.85-27.71,3.65,2.58,7.69,4.39,10.47,4.62,4.16.32,83.18,1.78,90.34.22S306.27,314.37,306.27,314.37Z"/><path class="cls-4" d="M299,278.2c.28,1.15.56,2.33.84,3.55-.16.11-.33.21-.5.31-1.75,1.08-2.32,2.77-2.52,2.59a7.94,7.94,0,0,1,0-3.88,10,10,0,0,1,2.09-1.91,1.34,1.34,0,0,1,.05-.66Zm1,4.38a9.18,9.18,0,0,0-2.61,2.18,4.62,4.62,0,0,0-.54,3.51c.17.73.63.75.63.75a.23.23,0,0,0,.2-.2,2.43,2.43,0,0,1,.24-1.53,11.71,11.71,0,0,1,2.52-2.77c-.15-.65-.3-1.3-.44-1.94Zm.6,2.65c.71,3.18,1.42,6.46,2.09,9.64a9.83,9.83,0,0,1-1.89-.17c-1-.26-1.43.16-1.61-1.09a6.57,6.57,0,0,0-.51-1.54c-.46-1.09-1-2.16-.6-2.24.59-.11,1.14-2.54,2.3-4.3l.22-.3Zm4.91,34.44c-.08.49-.17,1-.26,1.55a4.32,4.32,0,0,0-1.42-.09c-.52.12-.62.58-.25.58a3.11,3.11,0,0,1,1.49.55c-.15.94-.33,1.94-.51,3-1.26-.8-3.44-1.72-5.18-2.57-2.29-1.11-4.25-2-5.75-1.56s.19,2.81,5.11,3a8.73,8.73,0,0,1,5.65,2.1c-.41,2.36-.87,5-1.37,7.75a2.59,2.59,0,0,0-.49-.41s-.47-.27-.74,0,.69.81,1,1.76c-.36,2-.73,4-1.11,6.14h-.32a3.73,3.73,0,0,1,.11,1.11l-.15.87a4.07,4.07,0,0,1-.67,1.2c-.8,1.06-1,2.1-1.72,1.16s-2.59-5.32-4.31-5.74-1.69,2.05,0,3.63,2.69,2.08,3.07,2.88-2.11,1.91-2.73,3c0,0-.15.26-.55,0a13.77,13.77,0,0,0-4-1.12c-1.47-.1-1.82-1-1.49-2.42s.72-2.79.14-3.44-2.43,1.74-2.46,3.46.75,2.3.47,2.56-1.05-.28-2.16.06-2.1-.6-2.52-2,1.53-3.62,2.41-5.66a19.5,19.5,0,0,1,2.08-3.46c.4-.75-1.07-2.44-3.61,2.4s-1.67,6.76-1.49,7.58-1.69-.12-1.88-.58c0,0-2.31-.53-2.54-1.79a6.31,6.31,0,0,1-.42-.94c-.35.14-.87.17-1.3-.63a6.41,6.41,0,0,0-2.17-2.76c-1.2-.88-.1-5.6,4.23-8.74s4.28-5.12,3.07-5.25-6.47,3.4-7,7.42c0,0,.16,1.88-.57,2.45s-.48-.39-1.51-.54-1.94-1.86-2.06-3.39-.26-3,3.62-4.34,4-2.62,6.13-4,3.5-1.41,2.53-2.58-3.52.13-5.26,1.52-6.52,2.14-7.85,5.16a4.94,4.94,0,0,0-.46,2.62c.22,1.21-1.57-1-1.13-3,0,0-1.83-2.49-.75-4.69s3.58-2.23,6.75-3,5.37-1.19,5.25-2.24-2.39-.79-4.89.07-5.62.6-6.13,2.5a1.89,1.89,0,0,0-.05.75s-.09.12-.37,0a3,3,0,0,1-.35-2.92,6.14,6.14,0,0,1,1.54-2s-.53-1.18,1-1.66a8.48,8.48,0,0,1,2.47-.5c.32-1,1.42-3.17,4.87-3.73,4.51-.73,6.85.38,7.68,2.27s1.61,4.7,3.15,4.42c.22-.16.66-.56.24-2.17s-.93-3.72,1.55-4.84,4.69-1.74,6.07-1.38,1.66,1.38,1.58,1.63a2.1,2.1,0,0,0-1.85-.38,3.81,3.81,0,0,0-2.58,2c0,.47.44,1,2.37.29s3.37-1.51,3.94-1.46,1.18,1.17,1.18,1.17,2.09-.06,2.94,1.06.92,2.64,1.2,3.05-.85.4-2.11-.12-5.15-1-6.67-.4-1,1.31.68,1.3,5.48-.58,7.42.42a4.64,4.64,0,0,1,2.23,1.89Zm-106,28.95c-2.58-14.29-5.09-28-5.71-32.71.52,1,1.14,1.84,2,1.68.22-.16.66-.56.24-2.17s-.93-3.72,1.55-4.84,4.69-1.74,6.07-1.38,1.66,1.38,1.58,1.63a2.1,2.1,0,0,0-1.85-.38,3.81,3.81,0,0,0-2.58,2c0,.47.44,1,2.37.29s3.37-1.51,3.94-1.46,1.17,1.17,1.17,1.17,2.1-.06,3,1.06.92,2.64,1.21,3.05-.86.4-2.12-.12-5.15-1-6.67-.4-1,1.31.68,1.3,5.48-.58,7.42.42,2.25,2,2.25,2,2.55,1.2,2.36,3.43a20.67,20.67,0,0,0-.2,4.7c.2.82-1.55-.95-2.27-1.88s-3.76-2.17-6-3.28-4.25-2-5.74-1.56.18,2.81,5.1,3,7.36,3.41,7.59,5.42a4.66,4.66,0,0,1-.38,2.91,3.13,3.13,0,0,1-.52,2.84,5.44,5.44,0,0,1-1,1.15,3.14,3.14,0,0,1-.53,2.45s-.64,2-1.84,2.5a1.54,1.54,0,0,1-.71.12,3.48,3.48,0,0,1-.71,3.18c-.81,1.06-1,2.1-1.72,1.16s-2.59-5.32-4.31-5.74-1.7,2.05,0,3.63,2.69,2.08,3.07,2.88-2.11,1.91-2.73,3c0,0-.15.26-.55,0a14.71,14.71,0,0,0-3.31-1ZM250,279.34a10.74,10.74,0,0,1,2-1.17c2.76-1.16,4.79-1.17,6.21-.37s.55,2.32-2.7,1.87a24.52,24.52,0,0,0-5.53-.1l-.39.05.39-.28Zm0,11.34a4.64,4.64,0,0,1,2.78-.88c1.19.26,1,1.37.14,2.27a4.28,4.28,0,0,1-1.69,1c-.46.14-.86.26-1.23.35a8.37,8.37,0,0,0-2.79.9c-.69.55,1.06,2.64,1.13,3.91,0,0,0,.3.48.28a8.12,8.12,0,0,1,1.18.08,13.22,13.22,0,0,1,2.9.65c1.36.56,2.07-.11,2.39-1.52s.57-2.83,1.38-3.15,1.43,2.62.7,4.18-1.68,1.75-1.54,2.1,1.07.2,1.91,1,2.16.37,3.15-.71.2-3.92.31-6.14a11.93,11.93,0,0,0-.2-2.94,7.18,7.18,0,0,1-.16-1.09c0-.67,1.26-1.36,1.88,1.09a11.84,11.84,0,0,1,.32,2.65c.18,5.46-1.46,6.82-2,7.48s1.58.63,1.95.29c0,0,2.31.53,3.07-.5a6.78,6.78,0,0,0,.79-.66c.24.28.7.53,1.44,0a6.36,6.36,0,0,1,3.16-1.53c1.26-.23,2.23-3.75.88-7.73a14.66,14.66,0,0,0-.86-2c-2.53-4.71-1.62-6.47-.47-6.06,1,.35,3.48,4.45,3.36,8a6,6,0,0,1-.29,1.7s-1,1.62-.56,2.45.6-.14,1.6.18,2.55-.83,3.33-2.15a3.41,3.41,0,0,0,.7-2.18c-.08-.84-.62-1.88-2.06-3.3-2.9-2.88-2.48-4.12-3.76-6.28s-2.53-2.81-1.15-3.44,3.11,1.66,4.07,3.67,4.92,4.78,4.8,8.09a5.8,5.8,0,0,1-.17,1.26,3.67,3.67,0,0,1-.56,1.29c-.61.82,1.08.14,1.94-1.29a3.27,3.27,0,0,0,.39-.92s2.74-1.44,2.73-3.89-2.25-3.57-4.78-5.61-4.31-3.42-3.75-4.31,2.49.33,4.38,2.2,4.78,3,4.41,4.93a1.91,1.91,0,0,1-.29.7s0,.15.33.18a3,3,0,0,0,1.59-2.47,6.12,6.12,0,0,0-.52-2.47s1-.82-.18-1.93a8.71,8.71,0,0,0-2-1.53c.14-1,.11-3.47-2.75-5.48-3.74-2.63-6.32-2.65-7.9-1.31s-3.5,3.52-4.76,2.59c-.13-.24-.35-.79.73-2.05s2.46-2.94.72-5-3.45-3.62-4.85-3.91-2.1.52-2.13.78a2.11,2.11,0,0,1,1.83.47,3.83,3.83,0,0,1,1.43,2.95c-.17.44-.82.68-2.26-.78s-2.37-2.83-2.91-3-1.56.54-1.56.54-1.86-1-3.11-.33-2,2-2.42,2.21.6.74,1.95.82,5.07,1.34,6.17,2.56.35,1.62-1.17.86-4.68-2.91-6.86-2.86-2.88.77-2.88.77a5.33,5.33,0,0,0-1.85.37,3,3,0,0,0-1.76,1.68,21.52,21.52,0,0,1-1.88,4.32c-.54.65,1.8-.18,2.86-.7a2.61,2.61,0,0,1,.78-.22,49.28,49.28,0,0,1,6.09-.09c2.54,0,4.69.07,5.84,1.11s-1.39,2.44-5.88.43a8.63,8.63,0,0,0-6-.57,5.64,5.64,0,0,0-3.14,2.12,4.68,4.68,0,0,0-.94,2.79,3.11,3.11,0,0,0-.77,2.78,5.29,5.29,0,0,0,.4,1.48,3.1,3.1,0,0,0-.59,2.43s-.3,2.07.56,3.06a1.65,1.65,0,0,0,.59.41,3.49,3.49,0,0,0-.76,3.17c.06.28.09.55.12.79.1.89.12,1.44.92,1,.3-.16.84-.55,1.49-1s1.38-1,2.12-1.39Zm16.65,1.39c-.8-2-1.27-3.66-.64-4.41.83-1,2.47,1.52,2.54,3.79,0,.2,0,.41,0,.62a16,16,0,0,1-.58,3.08c-.13-.37-.28-.75-.46-1.14-.3-.66-.6-1.31-.85-1.94ZM250,268.42a1,1,0,0,1,.3-.18c1-.46,2.47.47,2.47.47.41.34.31.8,0,.63a3.06,3.06,0,0,0-2.13,0,.65.65,0,0,1-.61,0,.53.53,0,0,1,0-.91Zm2.1,16.62a6.93,6.93,0,0,1,4.54-1.42c3.36.36,1.8,2.18-.24,2-1.26-.09-2.62-.66-4.3-.61Zm31.18-8.58a8.25,8.25,0,0,0-1.14-.22c-2.3-.32-4.55-2.26-3-2.83,1.25-.46,3.25,1.46,4.13,3ZM270,278.34c-.56-.46-1.37-1.67-1.26-1.94s.58-.26.82-.07c0,0,1.29,1.19,1.37,1.72s-.36.75-.93.29Zm3.22-1.72c-.74-.24-1.6-1.06-1.35-1.36s.69-.28,1.56.23,1,.88,1,.88c.23.56-.48.5-1.22.25Zm-11.06,9.91a2.58,2.58,0,0,1,.93,1.65c.06,1-.14,1.34-.73,1s-1.46-3-.2-2.69Zm5.24-13.86c0,.93-2.28-.95-2.49-1.36s.12-1.05,1.14-.4a3.44,3.44,0,0,1,1.35,1.76Zm2.33-6.56c-.08-.16.24-.2.38,0a2.32,2.32,0,0,1,.55,1.38c.05.87-.51.69-.79.1s-.06-1.29-.14-1.45ZM260.4,282.4s1.08.31.56,1.05-3.6-.18-3.4-.91,2.13-.49,2.84-.14Zm8.06-.65c-.52-.61-1.35-1.43-1-2.1s.65-.51,1.28.15a6,6,0,0,1,1,2.18c.11.47-.76.37-1.29-.23ZM264.31,276c-1.28-.19-1.77-.46-1.56-.76a2.88,2.88,0,0,1,2.8-.53s.68.27.6.71-.56.78-1.84.58Zm20.34,12.07c-.26.49-.53-.36-.51-.84s-.1-1.36.42-.87.09,1.71.09,1.71Zm-36.16-7.65s.54,0,.65.36-1,.43-1.71,1.23-1.1-1.29,1.06-1.59Zm-27.12-16.19c1.62,1.09,2.78,1.59,2.35.8-.18-.33-1.15-.59-2.35-.8Zm7,27.82a8.85,8.85,0,0,0-.65-1.73c-1.1-2.15-1-2.77-1.69-6.06s-2.42-6.15-3-5.14.7,3.3,1.76,6a17.26,17.26,0,0,1,1.16,7,7.82,7.82,0,0,1-.2,1.43,1.63,1.63,0,0,1-2.5,1.18c-.83,0-1.84,1.1-1.58.44s.48-.39.27-2.24c0-.26-.06-.53-.08-.81-.1-1.64,0-3.54-.15-6.47-.17-3.43-1.14-4.3-1.84-3.87s-.39,1.48-.09,4.06a39.63,39.63,0,0,1,.23,6.28,5.05,5.05,0,0,1-.36,1.87,4.18,4.18,0,0,1-3.09,1.42c-.77,0-1.63.51-1.34.09s.46-1.69.88-2.9c0-.16.1-.32.14-.48a22.37,22.37,0,0,0,.41-4.72c.08-2.74-.73-2.39-1.45-2.06s-.87,4.85-.88,6.78v.22c0,1.78.26,3.51-1.3,2.94s-2.7-.26-3.7-.53-1.43.16-1.61-1.09a6.57,6.57,0,0,0-.51-1.54c-.46-1.09-1-2.16-.61-2.24.6-.11,1.15-2.54,2.31-4.3s3.42-1.91,4.56-3-.06-1.36-.61-.73a14.17,14.17,0,0,1-3.18,2.22,11.1,11.1,0,0,0-3.23,3.25,2.43,2.43,0,0,0-.24,1.53.23.23,0,0,1-.2.2s-.46,0-.63-.75a4.62,4.62,0,0,1,.54-3.51,10.38,10.38,0,0,1,4.24-3c2.44-1.08,3-2.22,2-2.11s-2.59,1.34-4.35,2.41-2.32,2.77-2.52,2.59a7.94,7.94,0,0,1,0-3.88,10,10,0,0,1,2.09-1.91,4.78,4.78,0,0,1,.74-2.33c.42-.63,5.34-3.09,6.52-3.53s5-1.05,4.92-1.45-.48-1-3-.92a15.27,15.27,0,0,0-5.82,1.33c-.81.44-1.69,1.73-1.88,1.53s-.27-.85,0-2.37.46-2.74,2-3.62a8,8,0,0,1,5.59-.46c1.43.48,4.13,1.21,4.57,1s-.09-.75-2-2a7.65,7.65,0,0,0-5.13-.87,8.54,8.54,0,0,0-2.53,1.53c-.21.13-.26,0-.26,0a4.13,4.13,0,0,1,2.53-3.38s0-.44,1-.82a5.28,5.28,0,0,1,1.75-.23,3.49,3.49,0,0,1,2.9-.53c2,.42,2.57-.2,3.75-.64s2.72.73,2.72.73,1.1-.27,1.36,0a8.13,8.13,0,0,1,.77,2c.46,1.25,0,3.11-.09,4.34s.46.92.46.92c.86-.39,1-1,2.77-1.8s6-.81,7.49-.08.89,2,1.66,3.09a3.91,3.91,0,0,1,.61,1.47,6.08,6.08,0,0,1,1.5,2.59c.31,1.14-.86,2.66-.86,2.66-.33,1.42-1.92,2.59-3.14,3.18a5.07,5.07,0,0,1,.11.68c.27,2.68-2.15,4.78-2.15,4.78-.7,2.33-3.29,3.34-3.07,3s.53-1.36-.61-3.69-1-4.78-2.2-7.77-3.75-2.83-4.37-1.53,1.17,2.89,3.06,5.18a17.83,17.83,0,0,1,3.22,7.79,3.78,3.78,0,0,1-1.3,3.4l-.21.18c-.18,1.55-2.7,3.22-2.41,2.69a4.58,4.58,0,0,0,0-2.87Zm8.37-22.31a3,3,0,0,0-2.22-1.33c-1.54-.28-3.51.22-3,.71s2.7.11,5.23.62Zm-6.54,1.72c-.53,1,.22.75,2.81,2.2a11.94,11.94,0,0,1,2.9,2.34,7.43,7.43,0,0,0-1.28-2.91c-2-2.55-3.91-2.64-4.43-1.63Zm-10.34,7.45c-.21-.29-.47-.07-.54.25s-.16,1.76.1,1.87.81-.24.9-.74a2.75,2.75,0,0,0-.46-1.38Zm-4,.2c.63-.14,1.23-.13,1.21-.42s-1.93-.32-2.88.14c0,0-.64.33-.42.68s1.47-.25,2.09-.4Zm6.67-.82c.43-.13.74-3-.2-2.55,0,0-.9.79-.84,1.41s.6,1.27,1,1.14Zm-3.31-2.57a1.9,1.9,0,0,0,1.75-.35c.21-.36,0-.73-.24-.72a9.2,9.2,0,0,0-1.89.14.67.67,0,0,0,.38.93Zm-1.54.09c.3-.28.31-1-.21-.88a14.31,14.31,0,0,0-2.32.86c-.13.2,2.22.31,2.53,0Zm6.19-4.22c.35.06,1.29-.62.53-.78,0,0-.86-.05-1,.11s.1.6.46.67Zm2.75.24c.28,0,2.39-.17,2.65-.63s-.42-1-1-1a6.17,6.17,0,0,0-1.95,1.09c-.24.21,0,.5.28.55Zm-3.66.4c.19-.51,0-1.5-1.52-1.58-.19,0-.82.07-.9.29s.05.82.88,1.33,1.36.48,1.54,0Zm79,60.07a11.62,11.62,0,0,0-1.53-2.35c-2-2.25-3.8-3.15-5.42-3.06s-1.52,1.85,1.6,2.87a23.87,23.87,0,0,1,5.35,2.54Zm-4.61,3.79a6.9,6.9,0,0,0-3.46-3.26c-3.18-1.15-2.57,1.17-.67,1.92,1.17.47,2.65.55,4.13,1.34Zm-18.68,2.15c.27-.27.58-.55.91-.82,2.31-1.9,4.43-3.81,4.12-5.06s-2.89.28-3.94,2.3a13.49,13.49,0,0,0-1.09,3.58ZM273,314.75a10.08,10.08,0,0,1,1.13.3c2.21.73,5.08,0,3.93-1.23-.92-1-3.57-.11-5.06.93Zm11.1,7.49c.71-.17,2-.9,2-1.19s-.41-.49-.71-.43c0,0-1.68.51-2,1s0,.82.71.66ZM282,319.29c.78.1,1.91-.26,1.82-.64s-.5-.55-1.51-.47a2.32,2.32,0,0,0-1.29.34c-.45.41.21.66,1,.77ZM287.6,333a2.57,2.57,0,0,0-1.55,1.08c-.48.85-.46,1.27.2,1.26s2.62-2.06,1.35-2.34Zm-9.3,9.6c.09-.59-.12-1.51.07-1.82s-.13-.76-.37-.45a4.17,4.17,0,0,0-.75,2c0,.9,1,.84,1.05.26ZM289,318.28c-.44.82,2.46.14,2.83-.14s.35-1-.85-.86a3.47,3.47,0,0,0-2,1Zm.77-6.92c.14-.11-.12-.28-.32-.2a2.42,2.42,0,0,0-1.11,1c-.42.75.17.84.67.43s.62-1.14.76-1.24ZM291,330.09s-1.1-.19-.95.7,3.31,1.42,3.45.67-1.7-1.38-2.5-1.37ZM284,326c.74-.31,1.84-.69,1.8-1.46s-.36-.73-1.22-.42a5.9,5.9,0,0,0-1.84,1.52c-.31.38.52.67,1.26.36Zm6.24-3.33c1.23.38,1.79.36,1.73,0a2.85,2.85,0,0,0-2.28-1.7s-.73-.05-.85.38.16.95,1.4,1.33Zm-23.57,2c0,.55.63-.09.83-.53s.68-1.18,0-1-.83,1.5-.83,1.5ZM250,370.87a10.74,10.74,0,0,1,2-1.17c2.76-1.16,4.79-1.17,6.21-.37s.55,2.32-2.7,1.87a25.11,25.11,0,0,0-5.53-.1l-.39,0,.39-.28Zm0,11.34a4.64,4.64,0,0,1,2.78-.88c1.19.26,1,1.37.14,2.27H261a7.25,7.25,0,0,1-.16-1.08c0-.68,1.26-1.37,1.88,1.08h3.93c-.8-2-1.27-3.66-.64-4.41.83-1,2.47,1.52,2.54,3.79,0,.2,0,.41,0,.62h3.81a15.23,15.23,0,0,0-.86-2c-2.53-4.71-1.62-6.47-.47-6.06,1,.35,3.48,4.45,3.36,8h4.78c-.08-.84-.62-1.88-2.06-3.3-2.9-2.88-2.48-4.12-3.76-6.28s-2.53-2.81-1.15-3.43,3.11,1.65,4.07,3.66,4.92,4.79,4.8,8.09a5.8,5.8,0,0,1-.17,1.26h1.38a3.27,3.27,0,0,0,.39-.92s2.74-1.44,2.73-3.89-2.25-3.57-4.78-5.61-4.31-3.42-3.75-4.31,2.49.33,4.38,2.2,4.78,3,4.41,4.93a1.84,1.84,0,0,1-.29.7s0,.15.33.18a3,3,0,0,0,1.59-2.48,6.08,6.08,0,0,0-.52-2.45s1-.83-.18-1.94a8.4,8.4,0,0,0-2-1.52c.14-1,.11-3.48-2.75-5.49-3.74-2.63-6.32-2.65-7.9-1.31s-3.5,3.52-4.76,2.59c-.13-.24-.35-.79.73-2.06s2.46-2.93.72-5-3.45-3.62-4.85-3.91-2.1.52-2.13.78a2.11,2.11,0,0,1,1.83.47,3.82,3.82,0,0,1,1.43,2.95c-.17.44-.82.68-2.26-.78s-2.37-2.83-2.91-3-1.56.54-1.56.54-1.86-1-3.11-.33-2,2-2.42,2.21.6.74,1.95.82,5.07,1.34,6.17,2.56.35,1.62-1.17.86-4.68-2.91-6.86-2.86-2.88.77-2.88.77a5.33,5.33,0,0,0-1.85.37,3,3,0,0,0-1.76,1.68,21.52,21.52,0,0,1-1.88,4.32c-.54.65,1.8-.18,2.86-.7a2.61,2.61,0,0,1,.78-.22,51.33,51.33,0,0,1,6.09-.09c2.54,0,4.69.07,5.84,1.11s-1.39,2.44-5.88.43a8.69,8.69,0,0,0-6-.57,5.64,5.64,0,0,0-3.14,2.12,4.68,4.68,0,0,0-.94,2.79,3.11,3.11,0,0,0-.77,2.78,5.29,5.29,0,0,0,.4,1.48,3.1,3.1,0,0,0-.59,2.43s-.3,2.07.56,3.05a1.56,1.56,0,0,0,.59.42,3.5,3.5,0,0,0-.76,3.17c.06.28.09.55.12.79h2.41c.63-.45,1.38-1,2.12-1.39ZM250,360a1,1,0,0,1,.3-.18c1-.46,2.47.47,2.47.47.41.34.31.8,0,.63a3.06,3.06,0,0,0-2.13,0,.62.62,0,0,1-.61,0,.53.53,0,0,1,0-.91Zm2.1,16.62a6.93,6.93,0,0,1,4.54-1.42c3.36.36,1.8,2.18-.24,2-1.26-.09-2.62-.66-4.3-.61ZM283.26,368a8.25,8.25,0,0,0-1.14-.22c-2.3-.31-4.55-2.26-3-2.83,1.25-.46,3.25,1.46,4.13,3.05ZM270,369.87c-.56-.46-1.37-1.67-1.26-1.94s.58-.26.82-.07c0,0,1.29,1.19,1.37,1.72s-.36.75-.93.29Zm3.22-1.72c-.74-.24-1.6-1.06-1.35-1.36s.69-.28,1.56.24,1,.87,1,.87c.23.56-.48.5-1.22.25Zm-11.06,9.91a2.58,2.58,0,0,1,.93,1.65c.06,1-.14,1.34-.73,1s-1.46-3-.2-2.69Zm5.24-13.86c0,.93-2.28-.95-2.49-1.36s.12-1,1.14-.4a3.44,3.44,0,0,1,1.35,1.76Zm2.33-6.56c-.08-.16.24-.2.38,0a2.32,2.32,0,0,1,.55,1.38c.05.87-.51.69-.79.1s-.06-1.29-.14-1.45Zm-9.34,16.28s1.08.32.56,1.06-3.6-.18-3.4-.91,2.13-.49,2.84-.15Zm8.06-.64c-.52-.61-1.35-1.43-1-2.11s.65-.5,1.28.16a6,6,0,0,1,1,2.18c.11.47-.76.37-1.29-.23Zm-4.15-5.73c-1.28-.19-1.77-.46-1.56-.76a2.88,2.88,0,0,1,2.8-.53s.68.28.6.71-.56.78-1.84.58Zm20.34,12.07c-.26.49-.53-.36-.51-.84s-.1-1.36.42-.87.09,1.71.09,1.71Zm-18.3-80.39c.17-.57.76-1.3.73-1.67s.45-.62.53-.24a4.18,4.18,0,0,1-.21,2.13c-.43.8-1.23.34-1-.22ZM250,334.51c.33.13.44.8,0,2.48l-.06.21a5.34,5.34,0,0,0-.18,1.71c-1-1.44-.72-4.13-.17-4.37a.54.54,0,0,1,.41,0Zm0,6.63.25,0c.24.55.49.83.55.62.15-.53,1.05-1,1.82-1.21a1.4,1.4,0,0,0,1-1c.57,0,.88-.51.9-1.32,0-.64.54-1.82.34-2.8a2.67,2.67,0,0,1,.49,2.16c.06.33.24.33.24.33.13-.85,1.18-1.75,1.29-2.52a1.63,1.63,0,0,0-.22-1.19,2.56,2.56,0,0,0-.8-2.2,4.16,4.16,0,0,0-.21-1.62,2.55,2.55,0,0,0-.15-2.78,4.63,4.63,0,0,0-1.12-1.19,5.3,5.3,0,0,1,.31-1.1,2.92,2.92,0,0,0-.13-2.91,5,5,0,0,0-.94-1.17c.37-.7-.06-1.82.26-2.21s.76-2.26-.53-2.2c-.93.05-1.87-.62-3.31-1.25a11.91,11.91,0,0,0-2-.7c-2.68-.68-5-.15-4.37-.53a7.77,7.77,0,0,1,4-.7,7,7,0,0,1,2.4.49c1,.38,1.68.84,1.84.85s.12-.13.12-.13c-.88-.44-1.25-2.55-1.52-3.45a1.28,1.28,0,0,0-.44-.71,1,1,0,0,0-1,0,2.76,2.76,0,0,1-2.81-.81c-.92-.93-1.6-1-2.41-.46a4.72,4.72,0,0,1-2.26.41,2.73,2.73,0,0,0-1.87-.15c-.63.15-1.12,1.32-1.75,2.3a4.82,4.82,0,0,0-.66,3.23c.18.88-.2,1.54-.81,1.25s-2.72-3.2-3.89-3.82a3.37,3.37,0,0,0-2.72.22c-6.41-2.29-5.48,2.49-5.48,2.49a1.54,1.54,0,0,0-.24.91l-.36.12c-1.69.64-1.71,1.89-1.14,3.21a12.23,12.23,0,0,1,.74,4,.26.26,0,0,0,.24.35c.74-.26.56-.81,2.3-3.6a7.39,7.39,0,0,1,6-3.33c.88.15,1.6.28-2.18,2.35a10,10,0,0,0-5.2,6.45,2.5,2.5,0,0,0,.42,2.83s-.2.9,1.08,1.62a2.76,2.76,0,0,1,1.39,2c.1.28.24.09.24.09,1.45-1.84,1.41-4.61,2.64-8.16s4.11-4.06,4.43-3.68a.52.52,0,0,1-.08.73c-4.26,3.38-5.73,9.41-6,11.08a2.16,2.16,0,0,0,1.41,2.28c.08.79.63,1.1,1.62,1.63s1.16,1.12,1.55,1.49.47.13.47.13c-.57-2.24.66-8.08,2.19-12s3.37-3.71,3.66-3.29-.29,1-.29,1c-5,5.57-5.44,13.34-4.94,13.76s1.67,0,2.75,1.71a4.39,4.39,0,0,0,3.19,1.94c.24,0,.18-.26.18-.26-1.72-3.25-.71-9,.17-11.59s1.95-3.25,2.15-2.33-1.53,2.83-2,4.79a24.49,24.49,0,0,0-.44,6.91,2.12,2.12,0,0,0,1.87,2.15c.5.75,2,.71,2.68.64s1.36,1,.35-1.27a20.66,20.66,0,0,1-1.06-9.27c.31-3.33,1.78-3.95,2.26-3.2s-.89,2.72-1.46,6.93,1,6.47,2,7a5.07,5.07,0,0,0,2.93.3A2.49,2.49,0,0,1,249,341a2.53,2.53,0,0,0,.36.12,1.84,1.84,0,0,0,.61.06Zm0-23a11,11,0,0,1,1.39,1.55A11,11,0,0,0,250,319a9.57,9.57,0,0,0-1-.33c-2.5-.71-3.6-1.32-3.27-2s1-.46,2.87.44a6,6,0,0,1,1.39,1Zm0,3.07a11.62,11.62,0,0,1,2.58,3.35c.24.46.47.85.67,1.17a14.88,14.88,0,0,0-2-.9,3.35,3.35,0,0,0-1.23-2.42,5.8,5.8,0,0,0-1.91-1c-1-.33-1.72-1.4-.2-1.27a4,4,0,0,1,2.11,1.09Zm3.29,12.66a4,4,0,0,1-1.92-1.26c-.66-1.08.48-1.65,1-.42a8.74,8.74,0,0,0,.89,1.68Zm-.43-3.88c-2.66-1.55-2.94-3-2-2.82s1.48,1.64,2,2.82Zm-42.43,2.37a11.62,11.62,0,0,0-1.53-2.35c-2-2.25-3.8-3.15-5.42-3.06s-1.52,1.85,1.6,2.87a23.87,23.87,0,0,1,5.35,2.54Zm-4.61,3.79a6.88,6.88,0,0,0-3.47-3.26c-3.17-1.15-2.56,1.17-.66,1.92,1.17.47,2.65.55,4.13,1.34Zm5.24-2.57s-.47-.27-.74,0,.76.85,1,1.86,1.56-.69-.26-1.9Zm-13.61-15.26c-.44.82,2.47.14,2.83-.14s.35-1-.85-.86a3.47,3.47,0,0,0-2,1Zm.77-6.92c.14-.11-.13-.28-.33-.2a2.42,2.42,0,0,0-1.1,1c-.42.75.16.84.67.43s.62-1.14.76-1.24Zm14.14,9.77c-.52.12-.62.58-.25.58a3,3,0,0,1,1.92.93c.51.63,1.5,0,.76-.86s-2.43-.65-2.43-.65Zm-12.87,9s-1.1-.19-.95.7,3.31,1.42,3.45.67-1.7-1.38-2.5-1.37Zm-.72-7.44c1.23.38,1.79.36,1.73,0a2.85,2.85,0,0,0-2.28-1.7s-.73-.05-.85.38.16.95,1.4,1.33ZM248.49,372s.54,0,.65.37-1,.42-1.71,1.22-1.1-1.29,1.06-1.59Zm-27.12-16.19c1.62,1.09,2.78,1.59,2.35.8-.18-.33-1.15-.59-2.35-.8ZM231,383.6h-2.61a8.85,8.85,0,0,0-.65-1.73c-1.1-2.15-1-2.77-1.69-6.06s-2.42-6.14-3-5.13.7,3.29,1.76,6a17.26,17.26,0,0,1,1.16,7h-4.09c-.1-1.64,0-3.54-.15-6.47-.17-3.43-1.14-4.3-1.84-3.87s-.39,1.48-.09,4.06a39.67,39.67,0,0,1,.23,6.28h-3.77a22.37,22.37,0,0,0,.41-4.72c.08-2.74-.73-2.39-1.45-2.06s-.87,4.85-.88,6.78h-7.12c-.46-1.08-1-2.16-.61-2.24.6-.11,1.15-2.54,2.31-4.3s3.42-1.91,4.56-3-.06-1.36-.61-.73a13.85,13.85,0,0,1-3.18,2.22,11.1,11.1,0,0,0-3.23,3.25,2.43,2.43,0,0,0-.24,1.53.23.23,0,0,1-.2.2s-.46,0-.63-.75a4.62,4.62,0,0,1,.54-3.51,10.38,10.38,0,0,1,4.24-3c2.44-1.08,3-2.22,2-2.11s-2.59,1.34-4.35,2.41-2.32,2.77-2.52,2.59a7.94,7.94,0,0,1,0-3.88,10,10,0,0,1,2.09-1.91,4.78,4.78,0,0,1,.74-2.33c.42-.63,5.34-3.09,6.52-3.53s5-1,4.92-1.45-.48-1-3-.92a15.08,15.08,0,0,0-5.82,1.33c-.81.44-1.69,1.73-1.88,1.53s-.27-.85,0-2.37.46-2.74,2-3.62a8,8,0,0,1,5.59-.46c1.43.48,4.13,1.21,4.57,1s-.09-.75-2-2a7.71,7.71,0,0,0-5.13-.87c-.84.1-2.31,1.4-2.53,1.53s-.26-.05-.26-.05a4.13,4.13,0,0,1,2.53-3.38s0-.44,1-.81a5,5,0,0,1,1.75-.24,3.49,3.49,0,0,1,2.9-.53c2,.42,2.57-.2,3.75-.64s2.72.72,2.72.72,1.1-.26,1.36.05a8.33,8.33,0,0,1,.77,2c.46,1.25,0,3.11-.09,4.34s.46.92.46.92c.86-.39,1-1,2.77-1.8s6-.81,7.49-.08.89,2,1.66,3.09a4,4,0,0,1,.61,1.47,6.08,6.08,0,0,1,1.5,2.59c.31,1.14-.86,2.66-.86,2.66-.33,1.42-1.92,2.59-3.14,3.18a5.35,5.35,0,0,1,.11.68c.27,2.68-2.15,4.78-2.15,4.78-.7,2.33-3.29,3.34-3.07,3s.53-1.36-.61-3.69-1-4.78-2.2-7.77-3.75-2.83-4.37-1.53,1.17,2.9,3.06,5.18a17.79,17.79,0,0,1,3.22,7.79,3.78,3.78,0,0,1-1.3,3.4Zm5.76-22.31A3,3,0,0,0,234.5,360c-1.54-.28-3.51.23-3,.71s2.7.11,5.23.62ZM230.18,363c-.53,1,.22.75,2.81,2.2a11.75,11.75,0,0,1,2.9,2.35,7.41,7.41,0,0,0-1.28-2.92c-2-2.55-3.91-2.63-4.43-1.63Zm-10.34,7.45c-.21-.29-.47-.07-.54.25s-.16,1.77.1,1.87.81-.24.9-.74a2.75,2.75,0,0,0-.46-1.38Zm-4,.2c.63-.14,1.23-.13,1.21-.42s-1.93-.32-2.88.14c0,0-.64.33-.42.68s1.47-.25,2.09-.4Zm6.67-.82c.43-.13.74-3-.2-2.55,0,0-.9.8-.84,1.41s.6,1.27,1,1.14Zm-3.31-2.57a1.9,1.9,0,0,0,1.75-.35c.21-.36,0-.73-.24-.72a9.2,9.2,0,0,0-1.89.14.67.67,0,0,0,.38.93Zm-1.54.09c.3-.28.31-1-.21-.88a14.31,14.31,0,0,0-2.32.86c-.13.2,2.22.31,2.53,0Zm6.19-4.22c.35.06,1.29-.62.53-.78,0,0-.86-.05-1,.11s.1.6.46.67Zm2.75.24c.28,0,2.39-.17,2.65-.63s-.42-1-1-1a6.17,6.17,0,0,0-1.95,1.09c-.24.21,0,.5.28.55Zm-3.66.4c.19-.51,0-1.5-1.52-1.57-.19,0-.82.06-.9.28s.05.82.88,1.33,1.36.48,1.54,0Zm24.49-27.66a7.9,7.9,0,0,1,1.16-3.22c1-1.36-.57-1.8-.9-.51a9.36,9.36,0,0,0-.26,3.73Zm1-12.2c-1.48-.58-1.74-1.22-1.26-1.4s1,.74,1.26,1.4Zm-21.3-8a2.92,2.92,0,0,1,2.62-1.42c1.76.09,2.7,1.29,2,1.14a4.26,4.26,0,0,0-2.85,0,6.69,6.69,0,0,1-1.81.26Zm16.79-4.27a8.73,8.73,0,0,0-3.06,1.4s-.3.09-.27-.15c.2-1.47,2.44-1.76,3.33-1.25ZM241,310.22a4.14,4.14,0,0,0-2.28,2.06s.52-2.6,2.28-2.06Zm-8.25,4.08-2.3-1.1a2.19,2.19,0,0,1,2.3,1.1Zm-7,2.73s-1.91.46-2.17,1.73c0,0-.18-1,.11-1.31a2.47,2.47,0,0,1,2.06-.42Zm10.49,2.23c-.46-.13-1.37.43-1.14-.18a2,2,0,0,1,1.39-1.28,3.14,3.14,0,0,1,1.6.47c.7.47-1.38,1.12-1.85,1Zm2.56,2.14c-.05-.32.75-1.76,1.38-1.65.08,0,1,.13,1.07.44s-.46,1.21-1.11,1.47-1.28.06-1.34-.26Zm3.59,3.86c-.36,0-.25-3,.92-3,0,0,.58,0,.58.73a3.6,3.6,0,0,1-1.5,2.26Zm1.65-8.21a11.16,11.16,0,0,0-2,.58c-.39.31-.77-.16-.48-.53s1.72-.56,2-.6.67-.36.82-.12a.49.49,0,0,1-.33.67Zm-1.9-1.77s-.09.2-.93.51a5.8,5.8,0,0,0-1.51.8c-.25.18-.38-.79.42-1.13s1.59-.44,1.72-.53.46.14.3.35Zm1.7,4.26c-.53,0,.13-1,1.82-.81,0,0,.7.12.69.6a.58.58,0,0,1-.74.61,7.43,7.43,0,0,0-1.77-.4Zm1.17,6.73c-.52.15-.17-2.39.67-2.08.18.08.37.28.31.85A1.44,1.44,0,0,1,245,326.27Z"/><path class="cls-35" d="M299,278.2l0,.06v.1l0,.17,0,.05v.16l0,.06v.05l0,.1h0v.16l0,.06v.15h0v.11l0,.06v.11l0,.05v.1h0v.06l0,.05V280l0,.06v.16h0v.11l0,.05v.06l0,.11v.11h0l0,.17,0,.06.19.85c-.16.11-.33.21-.5.31a7.07,7.07,0,0,0-.84.63c-.47-.64-1-1.35-1.53-2.09a11.65,11.65,0,0,1,2-1.74,1.34,1.34,0,0,1,.05-.66Zm1,4.38a10.31,10.31,0,0,0-1.09.72c.45.61.83,1.14,1.13,1.56.14-.12.27-.24.41-.34l-.14-.58v0h0l-.12-.52v0l-.15-.66v-.06l0-.06Zm.61,2.65.13.59-.28-.39.15-.2Zm4.65,36a4.32,4.32,0,0,0-1.42-.09c-.52.12-.62.58-.25.58a3.11,3.11,0,0,1,1.49.55v.85h0l0,.09V325l0,.1v.15c-1.26-.8-3.44-1.72-5.18-2.57a29.9,29.9,0,0,0-2.88-1.26,20.15,20.15,0,0,0,6.54-3.77,1.33,1.33,0,0,1,.24.11,4.64,4.64,0,0,1,2.23,1.89v.44h0v.94h0v.16Zm-12,.9-1.46.12a1.21,1.21,0,0,1,.2.4c.06.37-.5.39-1.73,0a3.77,3.77,0,0,1-.74-.3c-2,.08-4.51.15-7.34.19,0,.64-1.19.88-2.85,2-2.1,1.38-2.26,2.68-6.13,4s-3.75,2.81-3.62,4.34,1,3.24,2.06,3.39.78,1.11,1.51.54.57-2.45.57-2.45c.55-4,5.82-7.55,7-7.42s1.26,2.11-3.07,5.25-5.43,7.86-4.23,8.74a6.41,6.41,0,0,1,2.17,2.76c.43.8.95.77,1.3.63a6.31,6.31,0,0,0,.42.94,1.26,1.26,0,0,0,.16.42c1.27.12,2.15.18,2.54.18.55,0,1.08.46,1.59,1.27-.25-1-.51-3,1.62-7.08,2.54-4.84,4-3.15,3.61-2.4a19.5,19.5,0,0,0-2.08,3.46c-.88,2-2.84,4.25-2.41,5.66s1.41,2.36,2.52,2,1.88.19,2.16-.06-.49-.83-.47-2.56,1.88-4.1,2.46-3.46.19,2-.14,3.44,0,2.32,1.49,2.42a13.77,13.77,0,0,1,4,1.12c.4.22.55,0,.55,0,.62-1.11,3.1-2.23,2.73-3s-1.41-1.3-3.07-2.88-1.69-4.05,0-3.63,3.63,4.8,4.31,5.74.92-.1,1.72-1.16a4.07,4.07,0,0,0,.67-1.2l.15-.87a3.73,3.73,0,0,0-.11-1.11h.32l0-.1v-.1l0-.1,0-.1,0-.09v-.1l0-.1,0-.1,0-.1v-.19l0-.1,0-.1,0-.1V340l0-.1,0-.1,0-.09,0-.1v-.1l0-.09,0-.1v-.1l0-.09,0-.1v0l0-.07v-.1l0-.09,0-.1,0-.09v-.1l0-.09,0-.1v-.1l0-.09,0-.1,0-.09,0-.1v-.09l0-.1,0-.09h0v-.1l0-.1,0-.09v-.09l0-.1,0-.09,0-.1v-.09l0-.1,0-.09v-.1l0-.09,0-.09v-.1l0-.09V336l0-.1v-.09l0-.09v-.1l0-.09,0-.09,0-.1h0c-.29-.95-1.25-1.45-1-1.76s.74,0,.74,0a2.59,2.59,0,0,1,.49.41l0-.13,0-.13,0-.13,0-.13,0-.13,0-.13h0l0-.12,0-.13,0-.12,0-.13,0-.13,0-.13,0-.12,0-.13,0-.13,0-.12,0-.13,0-.12,0-.13,0-.13,0-.12,0-.12,0-.13,0-.12,0-.13,0-.12,0-.12,0-.12h0l0-.12,0-.12,0-.12,0-.12,0-.13,0-.12,0-.12,0-.12,0-.12,0-.12v-.1h0l0-.12,0-.12,0-.12,0-.12,0-.12,0-.11,0-.12,0-.12,0-.11v-.12l0-.09v0l0-.11,0-.12,0-.11,0-.11,0-.12,0-.11,0-.12,0-.11v-.11l0-.11v-.23l0-.11v-.11a8.73,8.73,0,0,0-5.65-2.1c-3.21-.1-5-1.14-5.51-2Zm-15.43.47a14,14,0,0,0-1.22.87c-1.74,1.38-6.52,2.14-7.85,5.16a4.94,4.94,0,0,0-.46,2.62c.22,1.21-1.57-1-1.13-3,0,0-1.83-2.49-.75-4.69a3.23,3.23,0,0,1,.64-.91c3.82,0,7.46,0,10.77,0Zm-81.28,9.48-.49-2.77,0-.07-.06-.39,0-.16-.05-.29,0-.25c-.28-1.61-.55-3.12-.79-4.51l0-.28,0-.18-.15-.89v0l-.06-.36v0c-.1-.56-.19-1.11-.27-1.63v0l-.1-.63,0-.08,0-.23,0-.13-.06-.35,0-.1,0-.24c-.08-.48-.15-.92-.21-1.33a29.44,29.44,0,0,0,8,4.11c-1.23.54.5,2.76,5.25,2.91,4.92.15,7.36,3.41,7.59,5.42a4.66,4.66,0,0,1-.38,2.91,3.13,3.13,0,0,1-.52,2.84,5.44,5.44,0,0,1-1,1.15,3.14,3.14,0,0,1-.53,2.45l0,.07c-4.47-.29-7.53-.34-8.36,0-2.49,1-4.18,3.7-5.17,5.88l0-.16-.08-.39,0-.27-.06-.29-.06-.37,0-.18-.08-.48v-.07l-.1-.54v0l-.09-.51,0-.14-.07-.4,0-.25-.06-.29-.06-.35,0-.19-.08-.45v-.08l-.1-.53v0l-.09-.51,0-.12-.07-.4,0-.23,0-.3-.06-.33,0-.19-.07-.43,0-.09-.19-1,0-.1-.07-.41,0-.2-.06-.3-.05-.3,0-.2-.18-1h0l-.08-.49,0-.08Zm19.69-10-1.33,0c.43.75-.44,1.22-.91.64a2.73,2.73,0,0,0-1-.69c-3.23-.07-5.71-.14-7.19-.19.64.27,1.33.59,2,.94,2.28,1.11,5.32,2.34,6,3.28s2.47,2.7,2.27,1.88a20.67,20.67,0,0,1,.2-4.7,2.75,2.75,0,0,0-.15-1.13Zm85.69,10.29a23.87,23.87,0,0,0-5.35-2.54c-3.12-1-3.23-2.77-1.6-2.87s3.44.81,5.42,3.06a11.62,11.62,0,0,1,1.53,2.35Zm-4.61,3.79c-1.48-.79-3-.87-4.13-1.34-1.9-.75-2.51-3.07.67-1.92a6.9,6.9,0,0,1,3.46,3.26Zm-18.68,2.15a13.49,13.49,0,0,1,1.09-3.58c1.05-2,3.62-3.54,3.94-2.3s-1.81,3.16-4.12,5.06c-.33.27-.64.55-.91.82Zm9-5.23c1.27.28-.68,2.33-1.35,2.34s-.68-.41-.2-1.26A2.57,2.57,0,0,1,287.6,333Zm-9.3,9.6c-.09.58-1,.64-1.05-.26a4.17,4.17,0,0,1,.75-2c.24-.31.55.13.37.45s0,1.23-.07,1.82ZM291,330.09c.8,0,2.64.63,2.5,1.37s-3.31.22-3.45-.67.95-.7.95-.7ZM284,326c-.74.31-1.57,0-1.26-.36a5.9,5.9,0,0,1,1.84-1.52c.86-.31,1.18-.35,1.22.42s-1.06,1.15-1.8,1.46Zm-17.33-1.38c0,.55.63-.09.83-.53s.68-1.18,0-1-.83,1.5-.83,1.5Zm20.54,50a1.09,1.09,0,0,0,0-.18,5.61,5.61,0,0,0-.17-1.43c.06.56.11,1.1.16,1.61Zm-.3-2.88a1.14,1.14,0,0,0-.17-1.45c.06.49.12,1,.17,1.45Zm-37-37.19c.33.13.44.8,0,2.48l-.06.21a5.34,5.34,0,0,0-.18,1.71c-1-1.44-.72-4.13-.17-4.37a.54.54,0,0,1,.41,0Zm0,6.63.25,0c.24.55.49.83.55.62.15-.53,1.05-1,1.82-1.21a1.4,1.4,0,0,0,1-1c.57,0,.88-.51.9-1.32,0-.64.54-1.82.34-2.8a2.67,2.67,0,0,1,.49,2.16c.06.33.24.33.24.33.13-.85,1.18-1.75,1.29-2.52a1.63,1.63,0,0,0-.22-1.19,2.56,2.56,0,0,0-.8-2.2,4.16,4.16,0,0,0-.21-1.62,2.55,2.55,0,0,0-.15-2.78,4.63,4.63,0,0,0-1.12-1.19,5.3,5.3,0,0,1,.31-1.1,2.88,2.88,0,0,0,0-2.73l-3.31,0a12.41,12.41,0,0,1,1.28,2c.24.46.47.85.67,1.17a14.88,14.88,0,0,0-2-.9,3.33,3.33,0,0,0-1.05-2.26l-2.73,0c.42.1.84.85,1,1.41-1.48-.58-1.74-1.22-1.26-1.4l0,0-3.52,0a.83.83,0,0,1,.16.54,3.6,3.6,0,0,1-1.5,2.26c-.31,0-.27-2.15.46-2.81l-3.65,0a.61.61,0,0,1,.34.19c.28.43-.29,1-.29,1-5,5.57-5.44,13.34-4.94,13.76s1.67,0,2.75,1.71a4.39,4.39,0,0,0,3.19,1.94c.24,0,.18-.26.18-.26-1.72-3.25-.71-9,.17-11.59s1.95-3.25,2.15-2.33-1.53,2.83-2,4.79a24.49,24.49,0,0,0-.44,6.91,2.12,2.12,0,0,0,1.87,2.15c.5.75,2,.71,2.68.64s1.36,1,.35-1.27a20.66,20.66,0,0,1-1.06-9.27c.31-3.33,1.78-3.95,2.26-3.2s-.89,2.72-1.46,6.93,1,6.47,2,7a5.07,5.07,0,0,0,2.93.3A2.49,2.49,0,0,1,249,341a2.53,2.53,0,0,0,.36.12,1.84,1.84,0,0,0,.61.06Zm-26.79-19a8.45,8.45,0,0,1,.1,1.4.26.26,0,0,0,.24.35c.53-.19.59-.52,1.22-1.72l-1.56,0Zm3,0,5,.09a6.57,6.57,0,0,0-1,1.91c-1.23,3.55-1.19,6.32-2.64,8.16,0,0-.14.19-.24-.09a2.76,2.76,0,0,0-1.39-2c-1.28-.72-1.08-1.62-1.08-1.62a2.5,2.5,0,0,1-.42-2.83,12.55,12.55,0,0,1,1.72-3.57Zm7.22.12,5.32.07c-.74.13-1.88.92-2.89,3.49-1.53,3.9-2.76,9.74-2.19,12,0,0-.09.24-.47-.13s-.56-1-1.55-1.49-1.54-.84-1.62-1.63a2.16,2.16,0,0,1-1.41-2.28,20.43,20.43,0,0,1,4.81-10Zm19.84,11.5a4,4,0,0,1-1.92-1.26c-.66-1.08.48-1.65,1-.42a8.74,8.74,0,0,0,.89,1.68Zm-.43-3.88c-2.66-1.55-2.94-3-2-2.82s1.48,1.64,2,2.82Zm-42.43,2.37a11.62,11.62,0,0,0-1.53-2.35c-2-2.25-3.8-3.15-5.42-3.06s-1.52,1.85,1.6,2.87a23.87,23.87,0,0,1,5.35,2.54Zm-4.61,3.79a6.88,6.88,0,0,0-3.47-3.26c-3.17-1.15-2.56,1.17-.66,1.92,1.17.47,2.65.55,4.13,1.34Zm5.24-2.57s-.47-.27-.74,0,.76.85,1,1.86,1.56-.69-.26-1.9Zm-11.57-3.45s-1.1-.19-.95.7,3.31,1.42,3.45.67-1.7-1.38-2.5-1.37Zm-.72-7.44c1.23.38,1.79.36,1.73,0a2.85,2.85,0,0,0-2.28-1.7s-.73-.05-.85.38.16.95,1.4,1.33Zm48.67,13.47a7.9,7.9,0,0,1,1.16-3.22c1-1.36-.57-1.8-.9-.51a9.36,9.36,0,0,0-.26,3.73ZM245,326.27c-.52.15-.17-2.39.67-2.08.18.08.37.28.31.85A1.44,1.44,0,0,1,245,326.27Z"/><path class="cls-36" d="M250,253.93s11.61,2.64,23.08,5.43a23.44,23.44,0,0,1-22.69,19.11h-.28a23.41,23.41,0,0,1-23.25-19.09C238.33,256.58,250,253.93,250,253.93Z"/><path class="cls-37" d="M249.43,222.77h.28a14.93,14.93,0,0,1,15,14.7l.2,17.47a14.91,14.91,0,0,1-14.7,15H250a14.91,14.91,0,0,1-15-14.7l-.21-17.47A14.93,14.93,0,0,1,249.43,222.77Z"/><path class="cls-37" d="M280.31,196.11c.25,0,.5,0,.74,0h0a10,10,0,1,1-7.87,3.4c.25,3,1.34,6.47,5.11,6.19L277.21,200A3.43,3.43,0,0,1,280.31,196.11Z"/><path class="cls-37" d="M209.27,208.42c-.24.07-.47.16-.7.25h0a10,10,0,1,0,8.56.56c.75,2.86.91,6.53-2.73,7.54l-.88-5.7A3.43,3.43,0,0,0,209.27,208.42Z"/><path class="cls-38" d="M236.27,153.09h0A34.31,34.31,0,0,1,275.81,181l5.31,30.65a34.3,34.3,0,0,1-27.86,39.54h0a34.3,34.3,0,0,1-39.53-27.86l-5.31-30.66A34.31,34.31,0,0,1,236.27,153.09Z"/><path class="cls-39" d="M235.86,249.61a34.26,34.26,0,0,1-22.14-26.32l-4.54-26.2c5.13-4.55,13.14-9.8,22.67-9.7l.75,3.09a6.26,6.26,0,0,0-4.18,3.22,34.28,34.28,0,0,0-2,6.89,25.87,25.87,0,0,1,5.18.66l.21,3s-5.1-.45-7,2.94.42,15.23,2.66,18.8,7.21,7.28,7.31,16.24A27.05,27.05,0,0,0,235.86,249.61Z"/><path class="cls-39" d="M263.5,160.16A34,34,0,0,1,275.81,181l5.31,30.65a34.34,34.34,0,0,1-18.46,36.45c6.55-5.39,11.84-13.67,13-21.52,1.84-12.61-6.18-28.5-10.22-35.23s-9.67-6.44-13-5.67-32.61,8-32.61,8l-11.75-10.48a34.28,34.28,0,0,1,5.75-15.53c8.08-1.51,27.61-5.28,36.16-8.14C253.61,158.26,258.36,158.75,263.5,160.16Z"/><path class="cls-31" d="M284.35,196.79c-4.36-.62-5,4.5-5,4.5l.83,4.74c-1.61.28-4-1.72-4.32-3.81l-.75-4.34s-10-9-12.07-21.09c0,0-28.42,10.65-42.54,9.46a46.42,46.42,0,0,1-5.7,22.08l.75,4.34c.36,2.09-1.17,4.76-2.78,5l-.82-4.75s-4.09,12-8.41,12.77c0,0-15.85-16.16-19.73-27.09s21.4-55.42,49.88-60.35S275.42,144.8,271,159c0,0,6.64,0,10.4,5.49S280,180,286.19,188.86C286.19,188.86,284.35,196.45,284.35,196.79Z"/><path class="cls-40" d="M185.48,186.51a80.84,80.84,0,0,1,7.1-14.25c35.64,5.9,52-21.19,58-35a40.43,40.43,0,0,1,5.25.75C244.7,185.18,201.33,187.35,185.48,186.51Z"/><path class="cls-32" d="M284.35,196.79c-4.36-.62-5,4.5-5,4.5l.83,4.74c-1.61.28-4-1.72-4.32-3.81l-.75-4.34a46.11,46.11,0,0,1-7.65-9.64s8.69,5.89,17.8,4.58c-.45,1.9-.89,3.8-.89,4Zm-67.9,8.29c-.5,1.08-1,2.17-1.67,3.25l.75,4.34c.36,2.09-1.17,4.76-2.78,5l-.82-4.75s-4.09,12-8.41,12.77c0,0-15.85-16.16-19.73-27.09a10.19,10.19,0,0,1-.29-4.34C183.59,194.75,186.25,206.84,216.45,205.08Z"/><path class="cls-33" d="M284.35,196.79c-4.36-.62-5,4.5-5,4.5l.83,4.74c-1.61.28-4-1.72-4.32-3.81l-.75-4.34a46.11,46.11,0,0,1-7.65-9.64s8.69,5.89,17.8,4.58c-.45,1.9-.89,3.8-.89,4Zm-67.9,8.29c-.5,1.08-1,2.17-1.67,3.25l.75,4.34c.36,2.09-1.17,4.76-2.78,5l-.82-4.75s-4.09,12-8.41,12.77c0,0-15.85-16.16-19.73-27.09a10.19,10.19,0,0,1-.29-4.34C183.59,194.75,186.25,206.84,216.45,205.08Z"/><path class="cls-20" d="M263,176.79h0s-24,9-38.9,9.53c3.9-7.21,13.89-21,26.39-23,0,0,13.4,4.42,12.51,13.48Z"/><path class="cls-20" d="M229.09,209.49h0a3.22,3.22,0,0,1,3.67,2.66l.67,4.13a3.22,3.22,0,0,1-2.66,3.68h0a3.22,3.22,0,0,1-3.68-2.66l-.66-4.13A3.22,3.22,0,0,1,229.09,209.49Z"/><path class="cls-37" d="M229.05,222.6a4.74,4.74,0,1,1-3.93,5.43A4.73,4.73,0,0,1,229.05,222.6Z"/><path class="cls-37" d="M269.32,216.14a4.74,4.74,0,1,1-3.93,5.43A4.74,4.74,0,0,1,269.32,216.14Z"/><path class="cls-20" d="M256,201.37a1.43,1.43,0,1,0,2.38,1.6,9.34,9.34,0,0,1,7.47-4,1.45,1.45,0,0,0,1.45-1.43,1.43,1.43,0,0,0-1.43-1.45C259.44,196.06,256,201.36,256,201.37Z"/><path class="cls-38" d="M149.51,289.25c-4.39-13.47-6.74-9.56-3-20.83s12.69-10.19,13.63-3.92.63,3.76.63,3.76S153.58,269.51,149.51,289.25Z"/><path class="cls-38" d="M164.81,277.58c-4,5.12-6.18,2.92-2.14,13.55,4.7,12.38,14.88,40.73,12.53,49.82s-22.09,1.72-23.5-5.33-4.54-56.39-4.54-56.39l3.76-.93a1.34,1.34,0,0,1,.08-.41c1.41-4.22,8.61-8,8.46-8.93-.76-4.52,6.19-9.5,9.07-13.21,0,0,3.64-2.05,3.87.89.11,1.49-.88,3.7-2.29,6.3a30.22,30.22,0,0,0-2.73,7.16C166.32,274.05,167.08,274.65,164.81,277.58Z"/><path class="cls-39" d="M175.46,339.45a10.13,10.13,0,0,1-.26,1.5c-2.35,9.09-22.09,1.72-23.5-5.33-1.19-6-3.63-42.44-4.34-53.33-.05-.71-.86-1-1.47-2.14a48.4,48.4,0,0,1-2.1-4.61l4.23-8.28c0-.13,3.27.6,4-1.59s7.59,4.23,7.44,3.29c-.66-4,4.58-8.26,7.83-11.77.64.37,1,.59,1,.59C167,262,164,273.45,157.93,277.36s-8.77,4.08-7.67,17.24,1.25,39,11,42.76C164.57,338.66,169.91,339.3,175.46,339.45Z"/><path class="cls-30" d="M147,284.23l-2.75-2.43,3.15-3.57,18.8-21.3.73-.82a1.84,1.84,0,0,1,2.59-.16h0a1.83,1.83,0,0,1,.16,2.58l-.73.83-18.8,21.29Z"/><path class="cls-16" d="M155.22,269.39l11-12.46.73-.82a1.84,1.84,0,0,1,2.59-.16h0a1.83,1.83,0,0,1,.16,2.58l-.73.83-11,12.45a.82.82,0,0,0-.08-1.16l-1.51-1.34C156,269,154.92,269.73,155.22,269.39Z"/><path class="cls-41" d="M141.31,288.5a52.86,52.86,0,0,0,5.7-4.27c.51-1.49-1.53-2.77-2.75-2.43a53.94,53.94,0,0,0-3.54,6.18A.43.43,0,0,0,141.31,288.5Z"/><path class="cls-20" d="M141.31,288.5c.07,0,.56-.36,1.23-.83a1.66,1.66,0,0,0-.46-.63h0a1.77,1.77,0,0,0-.68-.38c-.39.72-.65,1.25-.68,1.32A.43.43,0,0,0,141.31,288.5Z"/><path class="cls-42" d="M166.3,258.09l1.51,1.33a.82.82,0,0,1,.07,1.16l1.15-1.3a.83.83,0,0,0-.07-1.17l-1.51-1.33a.83.83,0,0,0-1.17.07l-1.15,1.31A.83.83,0,0,1,166.3,258.09Z"/><path class="cls-30" d="M158.35,268.61h0a.51.51,0,0,1,0-.71l7.07-8a.51.51,0,0,1,.71,0h0a.51.51,0,0,1,0,.71l-7.07,8A.51.51,0,0,1,158.35,268.61Z"/><path class="cls-43" d="M148.86,279.36h0a.51.51,0,0,1-.05-.71l5.92-6.7a.5.5,0,0,1,.71,0h0a.5.5,0,0,1,0,.71l-5.91,6.7A.5.5,0,0,1,148.86,279.36Z"/><rect class="cls-44" x="154.2" y="262.46" width="15.92" height="3.66" transform="translate(-143.29 210.95) rotate(-48.56)"/><path class="cls-16" d="M155.52,269.05l10.54-11.94,2.74,2.43-10.53,11.93-.11-.09a.79.79,0,0,0-.27-.73l-1.51-1.34c-.12-.11-.35-.08-.58,0Z"/><path class="cls-42" d="M166.3,258.09l1.51,1.33a.82.82,0,0,1,.07,1.16l.92-1-2.74-2.43-.93,1.05A.83.83,0,0,1,166.3,258.09Z"/><path class="cls-30" d="M158.35,268.61h0a.51.51,0,0,1,0-.71l7.07-8a.51.51,0,0,1,.71,0h0a.51.51,0,0,1,0,.71l-7.07,8A.51.51,0,0,1,158.35,268.61Z"/><path class="cls-38" d="M142.81,273.51c-.4-4,0-8.27,1-8.63a9.66,9.66,0,0,1,2.14-.66c.2-2.66.9-6.52,4.8-4.67,1-3.57,3.07-8.29,6.29-3.25,0,0,2.15-4.48,4.42-3,1.18.78,2,2.49,2.4,4.61a24.45,24.45,0,0,1-1.27,10.34c-1.07,2.71-2.58,3.31-4.35,1.31-1.6-1.81.57,2.93-2.6,4.05-2.38.84-3.39-4-3.86-2.73-.52,1.46.25,4.09-1.65,4.64a2.68,2.68,0,0,1-2.57-1s.72,4.88-2.46,3.54C144,277.65,143.24,275.79,142.81,273.51Z"/><path class="cls-20" d="M221.45,203.76a1.43,1.43,0,0,0,1.83,2.2,9.37,9.37,0,0,1,8.3-1.74,1.44,1.44,0,0,0,.83-2.75C226.24,199.62,221.46,203.75,221.45,203.76Z"/><path class="cls-20" d="M258.56,223.94a9.66,9.66,0,1,1-19,3.58h0a1.66,1.66,0,0,1,1.33-2l15.68-3a1.68,1.68,0,0,1,1.95,1.33Z"/><path class="cls-45" d="M256.42,232a9.65,9.65,0,0,1-10.85,2.74,6,6,0,0,1,4.77-4.53A6.1,6.1,0,0,1,256.42,232Z"/><path class="cls-7" d="M241.45,225.47l14.74-2.78c.54,1.58.1,3.37-.94,3.94-1.25.68-12,2.42-12.88,1.72C241.93,228,241.63,226.72,241.45,225.47Z"/><path class="cls-46" d="M263,176.79s2.53-20-7.48-24.22-37,.45-46.23,17.29-21.2,44.11-18.59,57.25,21.41,22.15,16.92,34.53-10.19,34.92,8.35,46.29,10.87-.39,10.87-.39,20.38,3.76,29.88-4.52-.8-19.91-12.28-23.06c0,0,5.22-.49,4.6-3.62s-14.6.87-16.49-12.89,2.93-24.69-5.25-32.9-6.11-40,12.84-54.1S263,176.79,263,176.79Z"/><path class="cls-41" d="M238.5,151.81q-1.47.25-3,.6c-2.19,12.1-10.18,35.86-39.26,45.63a105.1,105.1,0,0,0-5.16,17.64C207,207.9,236.64,188.57,238.5,151.81Z"/><path class="cls-30" d="M190.37,222.37a22,22,0,0,0,.35,4.74c2.61,13.14,21.41,22.15,16.92,34.53s-10.19,34.92,8.35,46.29,10.87-.39,10.87-.39,20.38,3.76,29.88-4.52c8.69-7.56.83-17.94-9.36-22.07,2.14,1,5.55,7.6-1.84,10.82-7.57,3.29-17.93.63-17.93.63,1.82-.42,4.83-4.13-1.75-4.41s-16.59-9.25-11.67-25.42-9.26-20.24-16.69-27.24C190.58,228.79,190.36,223.1,190.37,222.37Z"/><rect class="cls-47" x="192.8" y="385" width="115.96" height="9.95"/><path class="cls-30" d="M191.85,405.65H308.1a5.9,5.9,0,0,0,5.88-5.88h0a5.9,5.9,0,0,0-5.88-5.88H191.85a5.89,5.89,0,0,0-5.87,5.88h0A5.89,5.89,0,0,0,191.85,405.65Z"/><path class="cls-20" d="M260.37,210.16a9.23,9.23,0,0,1,7.59-3.82,1.14,1.14,0,0,0,.07-2.27,11,11,0,0,0-7,2.31,12.19,12.19,0,0,0-2.48,2.49,1.13,1.13,0,1,0,1.86,1.29Z"/><path class="cls-20" d="M260.16,210.54a9.22,9.22,0,0,1,8.36-1.56,1.14,1.14,0,0,0,.7-2.16,11,11,0,0,0-7.4.26,11.87,11.87,0,0,0-3.08,1.7,1.13,1.13,0,1,0,1.42,1.76Z"/><path class="cls-20" d="M359.43,337.33l1,3.53-1,1.19-.73-1.14L346.4,380.19a6.19,6.19,0,0,1-5.46,4.15H159a6.2,6.2,0,0,1-5.46-4.15l-12.35-39.27-.73,1.13-1-1.19,1-3.41a2.83,2.83,0,0,1,3-2.4H356.44a2.89,2.89,0,0,1,2.84,1.75A3.21,3.21,0,0,1,359.43,337.33Z"/><path class="cls-31" d="M142.28,339.25H357.67c2.31,0,3.61,1.89,2.88,4.2l-13,41.45a6.25,6.25,0,0,1-5.52,4.2H158a6.26,6.26,0,0,1-5.52-4.2l-13-41.45C138.68,341.14,140,339.25,142.28,339.25Z"/><path class="cls-43" d="M272.92,339.25h24.4L193.56,388.76h-24.4l103.76-49.51Zm32.59,0L201.75,388.76H217l103.76-49.51Z"/><path class="cls-48" d="M340,382.52H156a5.09,5.09,0,0,1-1.15-.14,6.44,6.44,0,0,1-4.37-4.06L139.21,342.5a5,5,0,0,0,.19.95l13,41.45a6.26,6.26,0,0,0,5.52,4.2H342a6.25,6.25,0,0,0,5.52-4.2l13-41.45a3.56,3.56,0,0,0-.1-2.63,2.89,2.89,0,0,0-2.61-1.57l-12.29,39.07A6.25,6.25,0,0,1,340,382.52Z"/><path class="cls-30" d="M220.21,357.29h59.54a.82.82,0,0,1,.79,1.16l-3.6,11.46a1.74,1.74,0,0,1-1.53,1.16H224.54a1.76,1.76,0,0,1-1.53-1.16l-3.6-11.46A.83.83,0,0,1,220.21,357.29Z"/><path class="cls-49" d="M246.16,217.06s-1.23,2.24-.84,3.43,2.06.56,2.24-.49a8.5,8.5,0,0,0-.46-3.25C247,216.52,246.46,216.43,246.16,217.06Z"/><path class="cls-38" d="M356,356.93c-.47.94-6.9,1.17-10.34,2.58a3.09,3.09,0,0,0-2.1,2.22c-.38,1.87.39,2.33,1.63,3.19,0,0-2.43,1.8-1.88,3.21a8.84,8.84,0,0,0,1.57,2.5s-3.06,2.2-2.75,3.76,2.2,2.28,2.2,2.28-2.12,2.66-1.41,4,7.2,1.33,9.47-1.33,1-3.21,1-3.21a6.79,6.79,0,0,0,2.63-3.33c.39-1.39-.12-3,.19-3.17,3.42-1.63,3.21-3.39,1.57-6.66-.32-.63,2.58-1.49,2.66-4.62s-3.21-4.47-3.21-4.47Z"/><path class="cls-39" d="M357.24,353.87,356,356.93c-.18.35-1.18.6-2.54.85l-1.52.27a32.67,32.67,0,0,0-6.28,1.46,3.18,3.18,0,0,0-2,2c.59-1.3,2.44-1.37,7.51-2.35l.49-.09,1.53-.3c1-.2,1.91-.39,2.79-.61,3.19-.78,6.38-2.05,1.33-4.24Z"/></g></svg>
