<svg xmlns="http://www.w3.org/2000/svg" viewBox="0 0 425.1 368.31"><title>faq</title><path d="M426.2,319.3a32.14,32.14,0,0,0-32,32h0a58.62,58.62,0,0,1-58.45,58.45H114.23A76.15,76.15,0,0,1,38.3,333.86h0a76.15,76.15,0,0,1,75.93-75.93h0a15.29,15.29,0,0,0,15.24-15.24h0a15.29,15.29,0,0,0-15.24-15.24H74.49a37.15,37.15,0,0,1-37-37h0a37.16,37.16,0,0,1,37-37h36.15a32.13,32.13,0,0,0,32-32h0a58.62,58.62,0,0,1,58.45-58.45h185.4a76.16,76.16,0,0,1,75.94,75.93h0a76.16,76.16,0,0,1-75.94,75.93h0A15.29,15.29,0,0,0,371.22,230h0a15.29,15.29,0,0,0,15.24,15.24H426.2C474.67,245.22,474.67,319.3,426.2,319.3Z" transform="translate(-37.45 -62.88)" style="fill:#c6e3f1;fill-rule:evenodd"/><path d="M196.36,123.91a1.06,1.06,0,1,0-1.41-1.59c-.54.48-1.07,1-1.59,1.46a1.06,1.06,0,1,0,1.46,1.55c.51-.48,1-1,1.54-1.42Zm96.35,243.68a1.07,1.07,0,0,0-.62,1.92,1.13,1.13,0,0,0,.66.21l.88,0,1.12,0h.15a1.07,1.07,0,0,0,.51-2,1.05,1.05,0,0,0-.6-.15l-1.22,0-.88,0Zm8.4-.46a1.07,1.07,0,0,0,.23,2.12l1-.11,1.18-.13a1.06,1.06,0,0,0,.47-1.92,1,1,0,0,0-.75-.19l-1.13.13-1,.1Zm8.33-1.22a1.07,1.07,0,0,0,.42,2.09l.64-.12,1-.21.49-.11a1.07,1.07,0,0,0,.16-2,1.05,1.05,0,0,0-.63,0l-.47.11-1,.2-.63.12Zm8.15-2a1.07,1.07,0,0,0,.17,2.07,1.12,1.12,0,0,0,.48,0l.86-.26.91-.3.28-.09a1.1,1.1,0,0,0,.68-.73,1.07,1.07,0,0,0-1.38-1.29l-.25.09-.89.29-.86.26Zm7.88-2.88a1.06,1.06,0,1,0,.87,1.94l.72-.31.84-.38.4-.19a1.07,1.07,0,0,0-.34-2,1.13,1.13,0,0,0-.57.09l-.38.18-.82.37-.72.32Zm7.5-3.77a1.07,1.07,0,0,0,.63,2,1.26,1.26,0,0,0,.45-.15l.31-.18.78-.46.76-.47a1.06,1.06,0,0,0-.65-2,1,1,0,0,0-.48.16l-.73.45-.75.44-.32.19Zm7-4.64a1.07,1.07,0,0,0,.94,1.87.94.94,0,0,0,.36-.18l.46-.35.69-.54L343,353a1.07,1.07,0,1,0-1.34-1.66l-.53.42-.66.52-.47.35Zm6.37-5.45a1.06,1.06,0,0,0,1.49,1.52l.43-.42.61-.61.48-.5a1,1,0,0,0,.29-.88,1.06,1.06,0,0,0-1.82-.59l-.47.47-.58.59-.43.42ZM352,341a1,1,0,0,0-.16,1.05,1.06,1.06,0,0,0,1.82.27l.31-.38.53-.67.49-.64a1.07,1.07,0,0,0-.86-1.71,1.1,1.1,0,0,0-.84.42l-.48.63-.5.64L352,341Zm4.86-6.83a1.06,1.06,0,0,0,1.81,1.12l.17-.28.44-.72.51-.86a1.06,1.06,0,1,0-1.85-1.05l-.48.81-.43.7-.17.28Zm4-7.37a1.05,1.05,0,0,0,.17,1.17,1.06,1.06,0,0,0,1.75-.26l.41-.88.35-.77.14-.31a1.07,1.07,0,0,0-1.65-1.25,1,1,0,0,0-.3.4l-.13.3-.34.74-.4.86ZM364,319a1.07,1.07,0,0,0,1.7,1.15,1,1,0,0,0,.32-.48l.25-.74.27-.8.15-.5a1.06,1.06,0,0,0-2-.63l-.15.48-.26.78L364,319Zm2.3-8.08a1.06,1.06,0,0,0,1.82.95.94.94,0,0,0,.26-.49l.14-.62.18-.83.13-.66a1.07,1.07,0,0,0-1.86-.89,1.13,1.13,0,0,0-.23.48l-.12.63-.18.81-.14.62Zm1.44-8.28a1,1,0,0,0,.52,1,1.06,1.06,0,0,0,1.59-.8l.07-.53.09-.85.07-.76a1.06,1.06,0,0,0-2.12-.19l-.07.73-.09.83-.06.53Zm.58-8.38a1.06,1.06,0,0,0,2.05.41,1.29,1.29,0,0,0,.08-.39v-2.15a1.07,1.07,0,0,0-2.13,0v2.11Zm-.27-8.41a1.07,1.07,0,0,0,1.92.54,1.1,1.1,0,0,0,.2-.72l0-.52-.08-.86-.08-.76a1,1,0,0,0-.27-.6,1.07,1.07,0,0,0-1.85.83l.08.74.08.84,0,.51Zm-1.1-8.33a1.09,1.09,0,0,0,.6.77,1.07,1.07,0,0,0,1.49-1.17l-.11-.59-.16-.86-.14-.66a1.06,1.06,0,1,0-2.08.44l.13.64.16.84.11.59Zm-1.92-8.18a1.06,1.06,0,1,0,2-.61l-.21-.73-.25-.84-.15-.49a1.07,1.07,0,0,0-2.07.15,1,1,0,0,0,0,.5l.14.46.25.83.21.73Zm-2.72-8a1,1,0,0,0,.75.64,1.06,1.06,0,0,0,1.23-1.43l-.38-.93-.34-.82-.1-.25a1.07,1.07,0,0,0-1.92-.08,1.08,1.08,0,0,0,0,.93l.1.23.33.8.37.91Zm-3.49-7.64a1.07,1.07,0,0,0,2-.51,1.17,1.17,0,0,0-.12-.48l-.21-.39-.42-.8-.39-.71a1.06,1.06,0,1,0-1.86,1l.38.69.41.78.2.39Zm-4.24-7.26a1.06,1.06,0,1,0,1.77-1.18l-.48-.74-.52-.76-.2-.28a1.05,1.05,0,0,0-1.1-.43,1.06,1.06,0,0,0-.64,1.65l.19.27.5.74.48.73Zm-5-6.79a1.07,1.07,0,0,0,1.88-.86,1.11,1.11,0,0,0-.23-.49l-.35-.44-.6-.72-.42-.5a1.07,1.07,0,0,0-1.87.6,1,1,0,0,0,.25.78l.41.49.58.7.35.44Zm-5.6-6.27a1.07,1.07,0,0,0,1.79-1,1.08,1.08,0,0,0-.28-.5l-.28-.28-.68-.67-.57-.56a1.07,1.07,0,0,0-1.78,1,1.08,1.08,0,0,0,.3.53l.56.54.66.65.28.29Zm-6.2-5.68a1.07,1.07,0,0,0,1.74-.92,1.08,1.08,0,0,0-.39-.73l-.32-.27-.76-.61-.59-.47a1,1,0,0,0-1.07-.15,1.06,1.06,0,0,0-.24,1.82l.57.45.74.61.32.27Zm-6.72-5.06a1.05,1.05,0,0,0,1.24,0,1.06,1.06,0,0,0-.06-1.73l-.57-.38-.84-.56-.38-.24a1.06,1.06,0,0,0-1.53,1.35,1.1,1.1,0,0,0,.39.44l.36.24.82.54.57.38Zm-7.18-4.4a1.06,1.06,0,0,0,1.38-.32,1.07,1.07,0,0,0-.35-1.55l-.2-.1-.91-.5-.79-.41a1.06,1.06,0,0,0-1.45,1.4,1,1,0,0,0,.47.48l.77.41.89.48.19.11Zm-7.54-3.74a1.06,1.06,0,1,0,.85-1.94l-1-.45-1-.4a1.07,1.07,0,0,0-1.33,1.52,1,1,0,0,0,.51.44l.94.4,1,.43Zm-7.85-3.07a1.07,1.07,0,0,0,1.26-1.56,1.1,1.1,0,0,0-.56-.46l-.16-.05-1.88-.63a1.07,1.07,0,0,0-1.28,1.49,1,1,0,0,0,.62.53l1.85.62.15.06Zm-8.07-2.53a1.07,1.07,0,0,0,.59-2L299,206.3a1.06,1.06,0,1,0-.56,2l2,.57Zm-8.19-2.14a1.06,1.06,0,0,0,.95-1.83,1,1,0,0,0-.46-.24c-.66-.12-1.41-.34-2.08-.49a1.06,1.06,0,0,0-1.1,1.66,1,1,0,0,0,.62.41c.67.16,1.41.37,2.07.49ZM284,205a1.07,1.07,0,0,0,1-1.75,1,1,0,0,0-.59-.34l-2.1-.41a1.07,1.07,0,0,0-.89,1.86,1,1,0,0,0,.5.23L284,205Zm-8.35-1.52a1.07,1.07,0,0,0,.91-1.82,1.1,1.1,0,0,0-.56-.28l-2.11-.34a1.07,1.07,0,0,0-.73,2,1.14,1.14,0,0,0,.4.15l2.09.33Zm-8.39-1.25a1.06,1.06,0,1,0,.28-2.11l-2.11-.28a1.06,1.06,0,0,0-.78,1.9,1,1,0,0,0,.51.21l2.1.28Zm-8.43-1a1.07,1.07,0,1,0,.23-2.12l-2.12-.23a1.07,1.07,0,0,0-.79,1.88,1,1,0,0,0,.57.24l2.11.23Zm-8.45-.83a1.07,1.07,0,0,0,.77-1.89,1.11,1.11,0,0,0-.58-.24l-2.13-.18a1.09,1.09,0,0,0-1.07.65,1.07,1.07,0,0,0,.9,1.48c.7.05,1.41.11,2.11.18Zm-8.5-.76a1.07,1.07,0,0,0,.7-2,1.16,1.16,0,0,0-.47-.17c-.7-.07-1.41-.15-2.11-.24a1.09,1.09,0,0,0-1,.45,1.07,1.07,0,0,0,.75,1.67l2.13.24Zm-8.5-1.11a1.07,1.07,0,0,0,1.09-1.59,1.09,1.09,0,0,0-.75-.52c-.7-.11-1.4-.21-2.09-.34a1.07,1.07,0,0,0-.37,2.1c.7.13,1.42.24,2.12.35ZM225,196.89a1.06,1.06,0,0,0,1-1.72,1,1,0,0,0-.58-.36c-.69-.15-1.38-.3-2.06-.47a1.07,1.07,0,0,0-.49,2.08l2.09.47Zm-8.33-2.13a1.06,1.06,0,0,0,1.14-1.68,1,1,0,0,0-.53-.36c-.67-.2-1.34-.4-2-.62a1.07,1.07,0,0,0-1.18,1.66,1.16,1.16,0,0,0,.53.37c.68.22,1.37.43,2,.63ZM208.5,192a1.06,1.06,0,1,0,.8-2q-1-.39-2-.81a1.06,1.06,0,0,0-1.2,1.7,1,1,0,0,0,.36.26c.66.28,1.33.56,2,.82Zm-7.83-3.63a1.08,1.08,0,0,0,1,0,1.07,1.07,0,0,0,.06-1.9c-.62-.33-1.23-.68-1.83-1a1.07,1.07,0,1,0-1.08,1.84c.62.36,1.26.71,1.89,1.06Zm-7.31-4.65a1.07,1.07,0,0,0,1.65-1.19,1.13,1.13,0,0,0-.37-.51c-.56-.42-1.1-.85-1.64-1.29a1.07,1.07,0,0,0-1.74.93,1,1,0,0,0,.39.72c.56.46,1.13.9,1.71,1.34Zm-6.47-5.83a1.07,1.07,0,0,0,1.83-.94,1,1,0,0,0-.25-.49c-.46-.51-.91-1-1.35-1.57a1.06,1.06,0,1,0-1.65,1.34c.46.57.93,1.12,1.42,1.66Zm-5.12-7.09a1.07,1.07,0,0,0,1.87-1c-.33-.6-.65-1.21-.94-1.83a1.07,1.07,0,0,0-1.93.91c.31.66.65,1.31,1,1.95Zm-3.23-8.15a1.09,1.09,0,0,0,.66.74,1.07,1.07,0,0,0,1.41-1.25c-.17-.67-.31-1.34-.44-2a1.06,1.06,0,0,0-2.07-.11,1.11,1.11,0,0,0,0,.48c.13.72.28,1.43.46,2.15Zm-1-8.72a1.06,1.06,0,0,0,2,.54,1,1,0,0,0,.14-.49c0-.68.05-1.37.11-2.05a1.07,1.07,0,0,0-2-.65,1.26,1.26,0,0,0-.15.45c-.06.73-.1,1.47-.11,2.2Zm1.4-8.67a1.06,1.06,0,0,0,2,.63c.2-.62.42-1.35.67-2a1,1,0,0,0-.27-1.16,1.06,1.06,0,0,0-1.71.4c-.27.68-.5,1.39-.72,2.08Zm3.54-8a1.06,1.06,0,0,0,.08,1.19,1.07,1.07,0,0,0,1.76-.12c.35-.6.71-1.2,1.08-1.78a1.06,1.06,0,1,0-1.79-1.15c-.39.61-.77,1.23-1.13,1.86Zm5-7.12a1.06,1.06,0,0,0,.89,1.73,1,1,0,0,0,.75-.38c.44-.54.9-1.07,1.35-1.6a1.06,1.06,0,0,0-1.16-1.7.91.91,0,0,0-.43.3C188.38,129,187.91,129.54,187.46,130.1Z" transform="translate(-37.45 -62.88)" style="fill:#fff;fill-rule:evenodd"/><path d="M206.37,212.17a.67.67,0,0,1,.93-.21.69.69,0,0,1,.21.94c-.08.12-26.82,41.67-5.7,65.89a.68.68,0,0,1-.06.95.67.67,0,0,1-.95-.06C179,254.69,206.29,212.29,206.37,212.17Z" transform="translate(-37.45 -62.88)" style="fill:#000618;fill-rule:evenodd"/><path d="M284.35,206.38a.67.67,0,0,1,.21-.93.68.68,0,0,1,.93.22c0,.06,15.32,23.77-.79,42a.68.68,0,0,1-.95.06.67.67,0,0,1-.06-.95C299.12,229.32,284.39,206.45,284.35,206.38Z" transform="translate(-37.45 -62.88)" style="fill:#000618;fill-rule:evenodd"/><path d="M210.69,184.11,199.42,196.5a45.1,45.1,0,0,1,4.86,22.06c-.54,12.52-42.74,81.9,35.23,81.54s34.58-40.58,34.58-40.58,25.72-8.33,12.74-45.56S210.69,184.11,210.69,184.11Z" transform="translate(-37.45 -62.88)" style="fill:#000618;fill-rule:evenodd"/><path d="M274.81,260.22c-.45-.45-.72-.7-.72-.7a16.56,16.56,0,0,0,2.34-1,69.32,69.32,0,0,0,6.66-8.8c10.63-16.52-.68-39.25-.68-39.25l-6-1.8s-12-4.29-15.2-5.36-40.41,1.25-51,21.1,1.2,48.62,1.2,48.62,43.86-1.41,46.36-1.59C259.66,271.27,266.87,268.46,274.81,260.22Z" transform="translate(-37.45 -62.88)" style="fill:#01020e;fill-rule:evenodd"/><path d="M295.78,271.05c12.52,5.46,14.15,16.92,15.78,29.66,1.44,11.3,1.89,28.36-1.08,54.26s-50.33-34.17-50.33-34.17Z" transform="translate(-37.45 -62.88)" style="fill:#ef8871;fill-rule:evenodd"/><path d="M222.12,270.71,210,264.49s-12.84,3.19-19.42,11.46-26.47,78.86-27.22,87.5,5.1,41.54,15.8,41.54,16-71.94,16-71.94l8.74-27Z" transform="translate(-37.45 -62.88)" style="fill:#f4ad85;fill-rule:evenodd"/><path d="M222.12,270.71,210,264.49a47.64,47.64,0,0,0-8.87,3.41c1.57.76,2.8,2.7,2.66,7-.38,11.27-17.56,54.27-21.31,66.29s-6.77,19.15-6.77,19.15l-7.82-16.41c-.71,2.65-1.35,5.14-1.92,7.4,2.93,15.78,6.57,37.4,7.06,49.77,1.82,2.4,3.86,3.88,6.13,3.88,10.7,0,16-71.94,16-71.94l8.74-27Z" transform="translate(-37.45 -62.88)" style="fill:#ef8871;fill-rule:evenodd"/><path d="M254.35,255.19s32.31,11.52,41.43,15.86c0,0-1.74,1.82-3.71,11.72s0,24.41-2.06,38.69c-1.49,10.31-8.48,62.48-12.24,90.63l-79.64-6.42c0-1.26-.07-2.77-.15-4.48,6.55,5.1,12.81,5.32,8.93-9.55-6.76-25.92-5.44-71-3.19-84.5s5.61-27.75,2.42-41.46C208.28,263.75,254.35,255.19,254.35,255.19Z" transform="translate(-37.45 -62.88)" style="fill:#d84f50;fill-rule:evenodd"/><path d="M275.57,263c8.08,3,16.29,6.22,20.21,8.09,0,0-1.74,1.82-3.71,11.72s0,24.41-2.06,38.69c-.3,2.06-.82,5.8-1.49,10.7-18,2.8-71.14,8.89-83.9,7.76a24.42,24.42,0,0,1-2.72-.41c0-14.07.82-26.35,1.82-32.37l.18-1c4.5,13.28,61.18,20.71,61.18,20.71s9.4-20.79,6.95-28.49-13.71-7.48-13.71-7.48l.29-6.88s11.27-15.26,14-19.9C272.92,263.47,274,263.12,275.57,263Z" transform="translate(-37.45 -62.88)" style="fill:#c23e3e;fill-rule:evenodd"/><path d="M280.15,264.69l.66.25c-1.43,5.79-3.36,12.59-6,16.59a28.68,28.68,0,0,1-9.35,9.31c-4.11,2.38-9.47,3.8-17,3.61a25,25,0,0,1-15.83-6,32.94,32.94,0,0,1-10-15.74c-2.06-7.2-4-9.6-4.67-10.25l.79-.18c.92,1.09,2.73,3.85,4.56,10.23a32.26,32.26,0,0,0,9.81,15.4,24.35,24.35,0,0,0,15.4,5.83c7.34.18,12.58-1.21,16.58-3.52a28,28,0,0,0,9.12-9.1c2.64-3.93,4.54-10.69,6-16.44ZM293.42,270l.59.26c-1.56,2.75-3.75,8.53-5.76,20.63-2.41,14.5.35,21,2.47,23.79,0,.33-.05.67-.08,1-2.26-2.58-5.7-9.24-3.09-24.91,2-11.88,4.21-17.82,5.87-20.77Zm-90.24,41.17c0-.45.1-.89.15-1.31,1.82-3.57,8.73-19.29,4.79-45l.69-.2c4.53,29.35-5.06,45.91-5.28,46.29a.35.35,0,0,1-.08.1A.36.36,0,0,1,203.18,311.15Z" transform="translate(-37.45 -62.88)" style="fill:#b23539;fill-rule:evenodd"/><path d="M251.84,220.63h.25A12.77,12.77,0,0,1,265,233.24l.16,25.86c4.69,1.72,10.3,3.79,15.56,5.8-8.27,17.86-18,29.66-33.61,26.28C225.75,286.55,226.51,268.62,220,262c6.07-1.31,13.2-2.75,19.38-3.95l-.15-24.53A12.81,12.81,0,0,1,251.84,220.63Z" transform="translate(-37.45 -62.88)" style="fill:#ef8871;fill-rule:evenodd"/><path d="M264.2,228.93a12.53,12.53,0,0,1,.79,4.31l.16,25.86c4.69,1.72,10.3,3.79,15.56,5.8-6.09,13.13-13,23-22.39,25.94,15-10.1,10.37-22.57,7.18-23.89S237,258.53,237,258.53l2.42-.47-.15-24.53a12.83,12.83,0,0,1,4.58-9.91C250.57,223.56,257.3,225.65,264.2,228.93Z" transform="translate(-37.45 -62.88)" style="fill:#ea745d;fill-rule:evenodd"/><path d="M280.69,196.13c.25,0,.49,0,.74,0h0a10,10,0,1,1-8,3.08c.14,2.95,1.08,6.5,4.85,6.37l-.86-5.69A3.43,3.43,0,0,1,280.69,196.13Z" transform="translate(-37.45 -62.88)" style="fill:#ea745d;fill-rule:evenodd"/><path d="M209.46,207.37a5.83,5.83,0,0,0-.71.22h0a10,10,0,1,0,8.51.89c.64,2.88.65,6.55-3,7.41l-.65-5.71A3.42,3.42,0,0,0,209.46,207.37Z" transform="translate(-37.45 -62.88)" style="fill:#ea745d;fill-rule:evenodd"/><path d="M240.25,152.37h0a34.22,34.22,0,0,1,38.33,29.32l4.1,30.77a34.24,34.24,0,0,1-29.33,38.34h0A34.22,34.22,0,0,1,215,221.47l-4.1-30.77A34.22,34.22,0,0,1,240.25,152.37Z" transform="translate(-37.45 -62.88)" style="fill:#f4ad85;fill-rule:evenodd"/><path d="M240.25,152.37h0a34.24,34.24,0,0,1,37.83,26.49,14.21,14.21,0,0,1-1.56,5L260.75,183s-10.38,19.84-31.69,24.66c-5.74,1.3-7.53,7.07-6.36,12.56,2.85,13.36,14.32,32.51,42.57,26.7a33.72,33.72,0,0,1-11.92,3.93h0A34.22,34.22,0,0,1,215,221.47l-4.1-30.77A34.22,34.22,0,0,1,240.25,152.37Z" transform="translate(-37.45 -62.88)" style="fill:#ef8871;fill-rule:evenodd"/><path d="M234.06,220.18a4.49,4.49,0,1,1-3.76,5.12A4.49,4.49,0,0,1,234.06,220.18Z" transform="translate(-37.45 -62.88)" style="fill:#ea745d;fill-rule:evenodd"/><path d="M270.85,214.36a4.49,4.49,0,1,1-3.76,5.12A4.49,4.49,0,0,1,270.85,214.36Z" transform="translate(-37.45 -62.88)" style="fill:#ea745d;fill-rule:evenodd"/><path d="M228.81,202.34a1.28,1.28,0,1,0-.32,2.54,12.89,12.89,0,0,0,3.67-.1,10.25,10.25,0,0,0,6.42-3.53,1.28,1.28,0,1,0-2-1.63C234.73,201.89,231.62,202.63,228.81,202.34Z" transform="translate(-37.45 -62.88)" style="fill:#01020e;fill-rule:evenodd"/><path d="M285.4,278s1.3-.18,1.59.84-4,6.51-4.3,6.7-8.85-.89-8.85-.89-.46-.43-.36-.75a1.58,1.58,0,0,1,.42-.61Z" transform="translate(-37.45 -62.88)" style="fill:#000618;fill-rule:evenodd"/><path d="M271.55,192.39c-2.8-.51-5.94,0-8,2.08a1.28,1.28,0,0,1-1.84-1.79,10.3,10.3,0,0,1,6.68-3,13.31,13.31,0,0,1,3.67.2,1.28,1.28,0,0,1-.51,2.51Z" transform="translate(-37.45 -62.88)" style="fill:#01020e;fill-rule:evenodd"/><path d="M219.39,206.11l.58,4.36c.28,2.1-3.75,7.72-5.36,7.93l-1-7.66s-1.15-3.42-5.49-2.85c-15.36-13.53-16.83-38.07-4.3-52.56s43-19.36,48.53-18.29,12.26,9.37,12.26,9.37,4-4.63,8.47-3.09S295.11,169.47,296,176.1s-10.2,21.45-10.2,21.45c-4.34.58-4.55,4.18-4.55,4.18l.63,4.77c-1.61.21-2.8-1.83-3.07-3.92s-.59-4.37-.59-4.37c-14.16-4.15-21.84-21.44-21.84-21.44S241.63,206.4,219.39,206.11Z" transform="translate(-37.45 -62.88)" style="fill:#000618;fill-rule:evenodd"/><path d="M195.38,179.12a37.48,37.48,0,0,1,4.38-17.93c13.89,10.76,36.31,18,55-23.3a20.11,20.11,0,0,1,3.54,2.29C251.06,161.17,232.57,197.81,195.38,179.12Z" transform="translate(-37.45 -62.88)" style="fill:#0f1630;fill-rule:evenodd"/><path d="M219.39,206.11l.58,4.36c.28,2.1-3.75,7.72-5.36,7.93l-1-7.66s-1.15-3.42-5.49-2.85a37.64,37.64,0,0,1-11.64-19.68s26.3,18.27,58.65-15.7c0,0,14.8,23.09,36.46,16.21a99.55,99.55,0,0,1-5.77,8.83c-4.34.58-4.55,4.18-4.55,4.18l.63,4.77c-1.61.21-2.8-1.83-3.07-3.92s-.59-4.37-.59-4.37c-14.16-4.15-21.84-21.44-21.84-21.44S241.63,206.4,219.39,206.11Z" transform="translate(-37.45 -62.88)" style="fill:#01020e;fill-rule:evenodd"/><path d="M284.59,251.74l2.22.61s1.3-11.56,1.29-12.68a13.65,13.65,0,0,0-1.44-4.62c-.86-1.89-4-9-4.16-9.25s-2.19,1.53-1.28,4.65,2.46,7.36,2.45,8.27-2.09,8.91-2.09,8.91Z" transform="translate(-37.45 -62.88)" style="fill:#ef8871;fill-rule:evenodd"/><path d="M286.82,251.84a5,5,0,0,0-2.58-4.29c-2.23-1.34-7.47-5.5-8.59-6a3.88,3.88,0,0,0-3.72.58,66.35,66.35,0,0,0-6.41,4.65c-.88.91-3.08,6.57-3.35,7.16s1.94,1.14,3.71-.2c0,0-.93,1.85-1.22,2.48a44.74,44.74,0,0,0-.74,6.38c0,1,2.64.49,3.55-1.74,0,0-.15,1.61-.15,2.1s1.53.31,1.53.31,1.77,9.6,2.17,10.79S286.64,330,286.64,330l22-1.33s-24-53.74-24.19-54.53C283.12,267.41,286.84,257.53,286.82,251.84Z" transform="translate(-37.45 -62.88)" style="fill:#f4ad85;fill-rule:evenodd"/><path d="M268.85,263.29l.1.51h0l0,.19h0v.1h0v.11h0v.12c.47,2.53,1.65,8.78,2,9.73s8.74,31.23,13.09,46.85a63.69,63.69,0,0,0,8.41-4.14s-17-39.67-17.44-41.23.54-2.81.21-3.23-1.64-1-2-2.16-1.13-5.11-.61-6.71c.4-1.23,1.69-1.08,2.26-.95a13.46,13.46,0,0,0,1.67.42c.86.11.79-.41.79-.41a12.66,12.66,0,0,1,1.9-4.28c-.93-.51-2.38-2.91-2.38-2.91-.95-.42-1.7-1-2.44-.42a18.47,18.47,0,0,0-2.83,2.87,29.21,29.21,0,0,1-.57,3.71C270.75,262.91,268.85,263.29,268.85,263.29Z" transform="translate(-37.45 -62.88)" style="fill:#ef8871;fill-rule:evenodd"/><path d="M170.33,414.59H330a4.66,4.66,0,0,0,4.46-4.8h0A4.66,4.66,0,0,0,330,405H170.33a4.65,4.65,0,0,0-4.46,4.8h0A4.65,4.65,0,0,0,170.33,414.59Z" transform="translate(-37.45 -62.88)" style="fill:#000618;fill-rule:evenodd"/><path d="M332.91,312.82H167.43a3.76,3.76,0,0,0-3.8,4.47l12.65,84a5.41,5.41,0,0,0,5.15,4.48H318.91a5.42,5.42,0,0,0,5.15-4.48l12.65-84A3.76,3.76,0,0,0,332.91,312.82Z" transform="translate(-37.45 -62.88)" style="fill:#000618;fill-rule:evenodd"/><path d="M329.23,316.79H171.11a3.6,3.6,0,0,0-3.63,4.27l12.08,80.27a5.17,5.17,0,0,0,4.92,4.27H315.85a5.16,5.16,0,0,0,4.92-4.27l12.09-80.27A3.6,3.6,0,0,0,329.23,316.79Z" transform="translate(-37.45 -62.88)" style="fill:#0f1630;fill-rule:evenodd"/><path d="M176.46,380.74l3.1,20.59a5.17,5.17,0,0,0,4.92,4.27H315.85a5.16,5.16,0,0,0,4.92-4.27l12.09-80.27a3.6,3.6,0,0,0-2.34-4.06C312.42,348.22,268,399.36,176.46,380.74Z" transform="translate(-37.45 -62.88)" style="fill:#000618;fill-rule:evenodd"/><path d="M250.17,384.26c9.69,0,17.58-6.59,17.58-14.68s-7.89-14.68-17.58-14.68-17.59,6.6-17.59,14.68S240.48,384.26,250.17,384.26Z" transform="translate(-37.45 -62.88)" style="fill:#000618;fill-rule:evenodd"/><path d="M250.17,358.43A14,14,0,0,1,261.71,364L241.26,377.9a10.44,10.44,0,0,1-4.46-8.32c0-6.16,6-11.15,13.37-11.15ZM261,376.09l-6.14-3.38-10.24,7a15.61,15.61,0,0,0,5.53,1A14.27,14.27,0,0,0,261,376.09Z" transform="translate(-37.45 -62.88)" style="fill:#fff;fill-rule:evenodd"/><path d="M268,201.63h0a2.86,2.86,0,0,0-2.37,3.27l.59,3.67a2.85,2.85,0,0,0,3.26,2.37h0a2.85,2.85,0,0,0,2.37-3.26l-.58-3.68A2.87,2.87,0,0,0,268,201.63Z" transform="translate(-37.45 -62.88)" style="fill:#01020e;fill-rule:evenodd"/><path d="M233.78,206.81h0a2.86,2.86,0,0,0-2.37,3.27l.58,3.67a2.86,2.86,0,0,0,3.27,2.37h0a2.86,2.86,0,0,0,2.37-3.26l-.59-3.68A2.86,2.86,0,0,0,233.78,206.81Z" transform="translate(-37.45 -62.88)" style="fill:#01020e;fill-rule:evenodd"/><path d="M265,226.94a1,1,0,0,1,.2,1.43,1,1,0,0,1-1.41.09s-3.42-3-9.5,2.61a1.05,1.05,0,0,1-1.43-1.54C260.16,222.77,265,226.93,265,226.94Z" transform="translate(-37.45 -62.88)" style="fill:#ef8871;fill-rule:evenodd"/><path d="M286.21,278.22a.63.63,0,0,1,.51.61c.07.57-3.33,5-12.86,5.33,0,0-.23-.07-.27-.22a.43.43,0,0,1,.12-.31l0-.18s-.34.25-.34.54,1.41,6.18,1.69,7.66,3.18,1.14,5.62.54,8.29-2.63,9.82-5.8a3.09,3.09,0,0,0,0-1.48c-.24-.68-3.2-6.16-3.35-6.49a.9.9,0,0,0-.95-.42Z" transform="translate(-37.45 -62.88)" style="fill:#0f1630;fill-rule:evenodd"/><path d="M278.38,283.63a26.24,26.24,0,0,1-4.52.53s-.23-.07-.27-.22a.43.43,0,0,1,.12-.31l0-.18s-.34.25-.34.54,1.41,6.18,1.69,7.66,3.18,1.14,5.62.54c.35-.08.77-.19,1.23-.34l-3.48-8.22Z" transform="translate(-37.45 -62.88)" style="fill:#000618;fill-rule:evenodd"/><path d="M118.12,419.14H381.89a6,6,0,0,1,6,6h0a6,6,0,0,1-6,6H118.12a6,6,0,0,1-6-6h0A6,6,0,0,1,118.12,419.14Z" transform="translate(-37.45 -62.88)" style="fill:#000618;fill-rule:evenodd"/><rect x="60.16" y="346.91" width="304.78" height="15.37" rx="7.68" style="fill:#be865e"/><rect x="243.27" y="346.91" width="15.99" height="15.37" style="fill:#915e40"/><rect x="267.56" y="346.91" width="8.31" height="15.37" style="fill:#915e40"/><rect x="284.59" y="346.91" width="4.15" height="15.37" style="fill:#915e40"/><rect x="302.96" y="346.91" width="17.88" height="15.37" style="fill:#915e40"/><rect x="334.33" y="346.91" width="8.94" height="15.37" style="fill:#915e40"/><rect x="63.9" y="349.41" width="149.8" height="9.14" rx="4.57" style="fill:#d49d80"/><polygon points="161.73 35.53 165.02 54.46 207.69 20.14 163.13 31.09 161.73 35.53" style="fill:#d5eaf5;fill-rule:evenodd"/><path d="M202.47,117.34l16.46-13.24a26.25,26.25,0,0,1,.77-3.35l-13.83,3.71Z" transform="translate(-37.45 -62.88)" style="fill:#ecf6fc;fill-rule:evenodd"/><polygon points="207.69 20.14 149.98 30.81 161.73 35.53 207.69 20.14" style="fill:#fff;fill-rule:evenodd"/><polygon points="207.69 20.14 181.76 54.59 168.42 41.58 207.69 20.14" style="fill:#fff;fill-rule:evenodd"/><path d="M97.07,260.31a75.29,75.29,0,0,1,17.49-2.05h0A15.28,15.28,0,0,0,129.79,243h0a15.22,15.22,0,0,0-.15-2.15h24.1a6.62,6.62,0,0,1,6.61,6.61v46.63a.74.74,0,0,1-1.26.52l-11.26-11.26H103.68a6.63,6.63,0,0,1-6.61-6.61Z" transform="translate(-37.45 -62.88)" style="fill:#a6cae4;fill-rule:evenodd"/><path d="M101.17,238.35h50.05a6.64,6.64,0,0,1,6.62,6.61V291.6a.74.74,0,0,1-.46.68.7.7,0,0,1-.8-.16l-11.27-11.27H101.17a6.62,6.62,0,0,1-6.61-6.61V245A6.63,6.63,0,0,1,101.17,238.35Z" transform="translate(-37.45 -62.88)" style="fill:#dc5645;fill-rule:evenodd"/><path d="M133.15,250.28l8.28,0a7.5,7.5,0,0,1,5.4,2.34,8,8,0,0,1,2.23,5.57v0a.34.34,0,0,1,0,.1,7.91,7.91,0,0,1-2.25,5.42,7.51,7.51,0,0,1-5.4,2.31h-.12l-8.19,0-14.61,7.32a1.88,1.88,0,0,1-1,.22,2,2,0,0,1-1-.33,2,2,0,0,1-.7-.76,2,2,0,0,1-.24-1l.1-26.83a2.19,2.19,0,0,1,.24-1,2.06,2.06,0,0,1,1.69-1.07,2.06,2.06,0,0,1,1,.22l.08,0,14.48,7.39Zm8.28,2.11-8.53,0a1,1,0,0,1-.48-.11l-14.68-7.5-.1,26.72,14.71-7.37a1.06,1.06,0,0,1,.5-.12l8.44,0h.11a5.42,5.42,0,0,0,3.91-1.68,5.84,5.84,0,0,0,1.66-4v-.11a6,6,0,0,0-1.64-4.13A5.37,5.37,0,0,0,141.43,252.39Z" transform="translate(-37.45 -62.88)" style="fill:#fff;fill-rule:evenodd"/><path d="M143.27,264.76v9.35a3.34,3.34,0,0,1-3.34,3.33h0a3.34,3.34,0,0,1-3.33-3.33V265l4.78,0A6.6,6.6,0,0,0,143.27,264.76Z" transform="translate(-37.45 -62.88)" style="fill:#fff;fill-rule:evenodd"/><rect x="96.99" y="188.45" width="1.56" height="13.7" style="fill:#fff"/><rect x="102" y="188.45" width="1.56" height="13.7" style="fill:#fff"/><path d="M112.55,253.68a1,1,0,0,1,.85,1.2,1,1,0,0,1-1.2.85l-8-1.4a1,1,0,0,1-.85-1.2,1,1,0,0,1,1.2-.85l8,1.4Zm-.63,12.91a1,1,0,0,1,.91,1.87L107.56,271a1,1,0,1,1-.91-1.87l5.27-2.54Zm.91-18.85a1,1,0,1,1-.91,1.87l-6-2.9a1,1,0,0,1,.9-1.88l6,2.91Zm-.63,12.73a1,1,0,0,1,.35,2.06l-8,1.39a1,1,0,0,1-1.2-.85,1,1,0,0,1,.85-1.2Z" transform="translate(-37.45 -62.88)" style="fill:#fff;fill-rule:evenodd"/><path d="M380,119.18H327.94a6.9,6.9,0,0,0-6.88,6.88v48.52a.76.76,0,0,0,1.31.54l11.72-11.72H380a6.89,6.89,0,0,0,6.87-6.88V126.06A6.9,6.9,0,0,0,380,119.18Z" transform="translate(-37.45 -62.88)" style="fill:#a6cae4;fill-rule:evenodd"/><path d="M377,119.18H325a6.9,6.9,0,0,0-6.88,6.88v48.52a.76.76,0,0,0,1.31.54L331.1,163.4H377a6.89,6.89,0,0,0,6.87-6.88V126.06A6.9,6.9,0,0,0,377,119.18Z" transform="translate(-37.45 -62.88)" style="fill:#dc5645;fill-rule:evenodd"/><path d="M338,140.35a5,5,0,1,0-5-5A5,5,0,0,0,338,140.35Z" transform="translate(-37.45 -62.88)" style="fill:#f09a9b;fill-rule:evenodd"/><path d="M338,141.92h0a7,7,0,0,1,7,7v6.86a.78.78,0,0,1-.79.78H331.74a.78.78,0,0,1-.78-.78v-6.86A7,7,0,0,1,338,141.92Z" transform="translate(-37.45 -62.88)" style="fill:#f09a9b;fill-rule:evenodd"/><path d="M364,140.35a5,5,0,1,0-4.95-5A5,5,0,0,0,364,140.35Z" transform="translate(-37.45 -62.88)" style="fill:#f09a9b;fill-rule:evenodd"/><path d="M364,141.92h0a7.05,7.05,0,0,1,7,7v6.86a.79.79,0,0,1-.79.78H357.75a.79.79,0,0,1-.79-.78v-6.86A7.05,7.05,0,0,1,364,141.92Z" transform="translate(-37.45 -62.88)" style="fill:#f09a9b;fill-rule:evenodd"/><path d="M351,137.05a6,6,0,1,0-6-6A6,6,0,0,0,351,137.05Z" transform="translate(-37.45 -62.88)" style="fill:#fff;fill-rule:evenodd"/><path d="M351,138.94h0a8.48,8.48,0,0,1,8.45,8.45v8.25a1,1,0,0,1-.95.94h-15a.94.94,0,0,1-.94-.94v-8.25A8.48,8.48,0,0,1,351,138.94Z" transform="translate(-37.45 -62.88)" style="fill:#fff;fill-rule:evenodd"/><path d="M423.42,264.58a17.7,17.7,0,1,1-12.51,5.19,17.66,17.66,0,0,1,12.51-5.19Zm15.78,18.64H432a35.71,35.71,0,0,1-.6,5.74,21.46,21.46,0,0,1,5.3,1.93,15.67,15.67,0,0,0,2.52-7.67Zm-9.11,0h-5.72v4.86a35.64,35.64,0,0,1,5.16.5,32.17,32.17,0,0,0,.56-5.36Zm-7.61,0h-5.72a32.17,32.17,0,0,0,.56,5.36,35.64,35.64,0,0,1,5.16-.5v-4.86Zm-7.61,0h-7.22a15.67,15.67,0,0,0,2.52,7.67,21.46,21.46,0,0,1,5.3-1.93,35.71,35.71,0,0,1-.6-5.74Zm-7.22-1.89h7.22a34.58,34.58,0,0,1,.45-4.87,20.71,20.71,0,0,1-5.56-2.13,15.6,15.6,0,0,0-2.11,7Zm9.52-4.48a32,32,0,0,0-.41,4.48h5.72v-4a35,35,0,0,1-5.31-.52Zm12.52,0a35.24,35.24,0,0,1-5.32.52v4h5.72a33.59,33.59,0,0,0-.4-4.48Zm2.29,4.48h7.22a15.6,15.6,0,0,0-2.11-7,20.84,20.84,0,0,1-5.56,2.13,34.58,34.58,0,0,1,.45,4.87Zm-7.61-14.69v8.85a34.43,34.43,0,0,0,5-.49,22.47,22.47,0,0,0-1.37-4.18c-.67-1.47-1.91-3.57-3.59-4.18Zm0,23.33v7.94c1.68-.61,2.92-2.7,3.59-4.18a21.28,21.28,0,0,0,1.16-3.31,34.39,34.39,0,0,0-4.75-.45Zm-1.89,7.94V290a34.39,34.39,0,0,0-4.75.45,21.28,21.28,0,0,0,1.16,3.31c.67,1.48,1.91,3.57,3.59,4.18Zm0-22.42v-8.85c-1.68.61-2.92,2.71-3.59,4.18a22.47,22.47,0,0,0-1.37,4.18,34.43,34.43,0,0,0,5,.49Zm-11.67-2.73a19.12,19.12,0,0,0,4.87,1.85,22.86,22.86,0,0,1,1.5-4.57,13.82,13.82,0,0,1,1.74-2.92,15.77,15.77,0,0,0-6.67,4,15.16,15.16,0,0,0-1.44,1.66Zm20.36,1.85a19.27,19.27,0,0,0,4.87-1.85,15.16,15.16,0,0,0-1.44-1.66,15.88,15.88,0,0,0-6.67-4,13.82,13.82,0,0,1,1.74,2.92,23.51,23.51,0,0,1,1.5,4.57Zm4.37,17.82A19.62,19.62,0,0,0,431,290.8a22.05,22.05,0,0,1-1.3,3.71,13.58,13.58,0,0,1-1.74,2.92,15.75,15.75,0,0,0,6.67-4c.33-.33.64-.68.94-1Zm-19.66-1.63a19.78,19.78,0,0,0-4.57,1.63c.3.35.61.7.94,1a15.75,15.75,0,0,0,6.67,4,13.58,13.58,0,0,1-1.74-2.92A22.05,22.05,0,0,1,415.88,290.8Z" transform="translate(-37.45 -62.88)" style="fill:#fff;fill-rule:evenodd"/><path d="M76.42,183.65A6.48,6.48,0,0,1,79,181a3.89,3.89,0,0,0,1.92-2.58,16.45,16.45,0,0,0,.4-4.32,1,1,0,0,1,1-1H84a1.7,1.7,0,0,1,.51.08,3.67,3.67,0,0,1,1.84,1.72,6.47,6.47,0,0,1,.81,3.14,7,7,0,0,1-.34,2.14,5.65,5.65,0,0,0-.37,2.38.92.92,0,0,0,.29,0H91a5.87,5.87,0,0,1,1.45.17,3.54,3.54,0,0,1,1.71,1,3.31,3.31,0,0,1,.77,2.24,6.13,6.13,0,0,1-.15,1.28c.61,1.58.73,3.54-.51,4.83a3.93,3.93,0,0,1-1.36,3.53,4.17,4.17,0,0,1-4.09,3H81a6.54,6.54,0,0,1-3.75-1.53,2.31,2.31,0,0,1-.58,1l0,0a2.23,2.23,0,0,1-1.51.6H71.56a2.22,2.22,0,0,1-2.21-2.21V185.42a2.18,2.18,0,0,1,.66-1.57l0,0a2.2,2.2,0,0,1,1.52-.61H75.1a2.23,2.23,0,0,1,1.32.44Zm.89,11c.89.9,2.39,2.09,3.67,2.09h7.79a2.3,2.3,0,0,0,2.28-1.9,1,1,0,0,1,.52-.68c.72-.36.75-1.55.64-2.21a1,1,0,0,1,.39-1c.94-.69.62-2.2.21-3.09a1,1,0,0,1-.08-.72,4.2,4.2,0,0,0,.17-1.1,1.43,1.43,0,0,0-.28-.94,1.49,1.49,0,0,0-.74-.4,3.64,3.64,0,0,0-.93-.11H86.7a2.05,2.05,0,0,1-2.11-1.25c-.44-1.07,0-2.68.3-3.73a5.53,5.53,0,0,0,.25-1.56,4.43,4.43,0,0,0-.55-2.17,2.23,2.23,0,0,0-.68-.79h-.66a15.24,15.24,0,0,1-.46,3.87,5.84,5.84,0,0,1-2.89,3.79,6,6,0,0,0-2.59,4.3v7.6ZM75.1,185.2H71.56a.2.2,0,0,0-.14,0l0,0a.24.24,0,0,0-.07.16v11.19a.24.24,0,0,0,.23.23H75.1a.22.22,0,0,0,.13,0l0,0a.23.23,0,0,0,.06-.16V185.42a.21.21,0,0,0-.22-.22Z" transform="translate(-37.45 -62.88)" style="fill:#fff;fill-rule:evenodd"/><rect x="319.86" y="38.88" width="5.63" height="5.63" rx="1.31" style="fill:#fff"/><rect x="330.28" y="38.88" width="5.63" height="5.63" rx="1.31" style="fill:#a6cae4"/><rect x="340.71" y="38.88" width="5.63" height="5.63" rx="1.31" style="fill:#fff"/><rect x="351.13" y="38.88" width="5.63" height="5.63" rx="1.31" style="fill:#a6cae4"/><rect x="361.55" y="38.88" width="5.63" height="5.63" rx="1.31" style="fill:#fff"/><rect x="371.97" y="38.88" width="5.63" height="5.63" rx="1.31" style="fill:#fff"/><rect x="382.39" y="38.88" width="5.63" height="5.63" rx="1.31" style="fill:#fff"/><rect x="351.5" y="27.52" width="5.63" height="5.63" rx="1.31" style="fill:#fff"/><rect x="361.93" y="27.52" width="5.63" height="5.63" rx="1.31" style="fill:#a6cae4"/><rect x="372.35" y="27.52" width="5.63" height="5.63" rx="1.31" style="fill:#fff"/><rect x="361.55" y="51.09" width="5.63" height="5.63" rx="1.31" style="fill:#fff"/><rect x="371.97" y="51.09" width="5.63" height="5.63" rx="1.31" style="fill:#a6cae4"/><path d="M147.43,193.33h0a7.75,7.75,0,0,1,10.92,0l.74.75.75-.75a7.75,7.75,0,0,1,10.92,0h0a7.75,7.75,0,0,1,0,10.92L170,205l-10.93,10.92L148.17,205l-.74-.75A7.75,7.75,0,0,1,147.43,193.33Z" transform="translate(-37.45 -62.88)" style="fill:#fff;fill-rule:evenodd"/><path d="M132.69,321.62c-8-8.16-14,2.2-13.14,12.6.79,9.86,9.29,43.69,7.72,57.92h3.25C138.48,373.89,142.94,332.06,132.69,321.62Z" transform="translate(-37.45 -62.88)" style="fill:#63a9ba;fill-rule:evenodd"/><path d="M129.32,392.14c7.75-28.76-2.06-68.53-2.09-68.66a.46.46,0,1,0-.89.22c0,.13,9.85,39.94,2,68.44Z" transform="translate(-37.45 -62.88)" style="fill:#80b9c9;fill-rule:evenodd"/><path d="M112.93,339.59c-8.44-4.47-10.57,5.28-7.28,13.36,2.73,6.69,14.78,26.48,19.33,39.19h4.29C129.64,374.57,122.89,344.87,112.93,339.59Z" transform="translate(-37.45 -62.88)" style="fill:#fff;fill-rule:evenodd"/><path d="M127.7,392.14c-2.79-23.76-18.59-49.59-18.65-49.69a.39.39,0,1,0-.66.4c.06.09,15.76,25.76,18.55,49.29Z" transform="translate(-37.45 -62.88)" style="fill:#b8b8c1;fill-rule:evenodd"/><path d="M148.6,350.87c8.18-3.58,9.48,5.67,5.85,13-2.46,4.93-11.32,17.56-17.29,28.31h-6.81C132.68,375.88,140.15,354.56,148.6,350.87Z" transform="translate(-37.45 -62.88)" style="fill:#3a7f80;fill-rule:evenodd"/><path d="M132.78,392.14c5.81-19.7,19.18-38.26,19.24-38.33a.36.36,0,0,1,.58.42c0,.07-13.29,18.44-19.08,37.91Z" transform="translate(-37.45 -62.88)" style="fill:#51a5a5;fill-rule:evenodd"/><rect x="77.1" y="321.59" width="31.36" height="10.06" rx="1.54" style="fill:#2f365c"/><polygon points="83.49 327.27 102.07 327.27 106.92 331.65 102.96 346.91 92.78 346.91 82.6 346.91 78.64 331.65 83.49 327.27" style="fill:#2f365c;fill-rule:evenodd"/><polygon points="106.92 331.65 106.11 334.79 79.45 334.79 78.64 331.65 106.92 331.65" style="fill:#121c39;fill-rule:evenodd"/><circle cx="241.47" cy="38.97" r="2.63" style="fill:#a6cae4"/><circle cx="284.28" cy="189.57" r="2.63" style="fill:#a6cae4"/><circle cx="337.61" cy="299.23" r="2.63" style="fill:#a6cae4"/><circle cx="31.16" cy="278.2" r="2.63" style="fill:#a6cae4"/><path d="M384.08,184.47a2.63,2.63,0,1,0-2.63-2.63A2.63,2.63,0,0,0,384.08,184.47Z" transform="translate(-37.45 -62.88)" style="fill:#a6cae4;fill-rule:evenodd"/><circle cx="110.02" cy="101.69" r="2.63" style="fill:#a6cae4"/><circle cx="103.64" cy="252.66" r="2.63" style="fill:#fff"/><circle cx="354.89" cy="239.52" r="2.63" style="fill:#fff"/><path d="M339.76,193.86a2.63,2.63,0,1,0-2.63-2.63A2.63,2.63,0,0,0,339.76,193.86Z" transform="translate(-37.45 -62.88)" style="fill:#fff;fill-rule:evenodd"/><circle cx="280.9" cy="31.09" r="2.63" style="fill:#fff"/><circle cx="386.81" cy="97.18" r="2.63" style="fill:#fff"/><path d="M382.31,384.49a8.6,8.6,0,1,1-6.08,2.52,8.54,8.54,0,0,1,6.08-2.52Zm3.7,4.89a5.23,5.23,0,1,0,1.54,3.7A5.21,5.21,0,0,0,386,389.38Z" transform="translate(-37.45 -62.88)" style="fill:#a62a34;fill-rule:evenodd"/><path d="M368.62,409.92h0a13.52,13.52,0,0,0,13.48-13.48V382.39a1.19,1.19,0,0,0-1.19-1.2H356.33a1.2,1.2,0,0,0-1.19,1.2v14.05A13.52,13.52,0,0,0,368.62,409.92Z" transform="translate(-37.45 -62.88)" style="fill:#d84f50;fill-rule:evenodd"/><path d="M377.49,394.75a13.13,13.13,0,0,1-.66,4.13,12,12,0,0,1-.89,2.12,13.61,13.61,0,0,1-6.78,6.2,13.47,13.47,0,0,1-7.36.85,13.38,13.38,0,0,0,14.91-.85,13.44,13.44,0,0,0,4.58-6.16,13.53,13.53,0,0,0,.81-4.6V382.39a1.19,1.19,0,0,0-1.19-1.2h-3.42v13.56Z" transform="translate(-37.45 -62.88)" style="fill:#a62a34;fill-rule:evenodd"/><path d="M356.94,409.92H380.3a1.81,1.81,0,0,0,1.8-1.8h0a1.81,1.81,0,0,0-1.8-1.8H356.94a1.81,1.81,0,0,0-1.8,1.8h0A1.81,1.81,0,0,0,356.94,409.92Z" transform="translate(-37.45 -62.88)" style="fill:#d84f50;fill-rule:evenodd"/><rect x="319.74" y="320.88" width="4.54" height="12.67" rx="2.27" style="fill:#de7272"/><path d="M357.11,364.57h10.27a1.42,1.42,0,0,0,1.42-1.41h0a1.43,1.43,0,0,0-1.42-1.42H353.56a3.72,3.72,0,0,1-3.7-3.7h0a3.71,3.71,0,0,1,3.7-3.7h35.95a3.71,3.71,0,0,1,3.7,3.7h0a3.72,3.72,0,0,1-3.7,3.7H377a1.43,1.43,0,0,0-1.42,1.42h0a1.42,1.42,0,0,0,1.42,1.41h4.82a2.87,2.87,0,0,1,2.86,2.86h0a2.86,2.86,0,0,1-2.86,2.85h-8a5.7,5.7,0,0,0-5.68,5.68v2.61a1.35,1.35,0,0,1-1.34,1.34h0a1.35,1.35,0,0,1-1.34-1.34v-5a3.34,3.34,0,0,0-3.33-3.33h-5a2.86,2.86,0,0,1-2.86-2.85h0A2.87,2.87,0,0,1,357.11,364.57Z" transform="translate(-37.45 -62.88)" style="fill:#fff;fill-rule:evenodd"/></svg>