<svg xmlns="http://www.w3.org/2000/svg" xmlns:xlink="http://www.w3.org/1999/xlink" viewBox="0 0 1366 768" ><defs><linearGradient id="a" x1="860.95" y1="413.85" x2="-127.03" y2="956.27" gradientTransform="translate(-16.37 -112.24) rotate(-3.23)" gradientUnits="userSpaceOnUse"><stop offset="0" stop-color="#ff63a2"/><stop offset="1" stop-color="#ffc082"/></linearGradient><linearGradient id="b" x1="774.02" y1="255.5" x2="-213.96" y2="797.92" xlink:href="#a"/><linearGradient id="c" x1="1052.88" y1="-296.52" x2="378.95" y2="383.69" gradientTransform="matrix(1.04, -0.01, 0.01, 1, 91.21, -31.27)" xlink:href="#a"/><linearGradient id="d" x1="951.21" y1="578.24" x2="-36.77" y2="1120.66" xlink:href="#a"/><linearGradient id="e" x1="1382.98" y1="30.53" x2="709.05" y2="710.75" gradientTransform="matrix(1.04, -0.01, 0.01, 1, 91.21, -31.27)" xlink:href="#a"/><linearGradient id="f" x1="-3265.18" y1="-2226.3" x2="-3767.97" y2="-2394.61" gradientTransform="matrix(-0.38, 0.76, -0.96, -0.49, -2117.44, 1620.79)" gradientUnits="userSpaceOnUse"><stop offset="0" stop-color="#ffff90"/><stop offset="1" stop-color="#ffff6f"/></linearGradient><linearGradient id="g" x1="676.58" y1="78.03" x2="-311.4" y2="620.45" xlink:href="#a"/><linearGradient id="h" x1="886.83" y1="-461.04" x2="212.9" y2="219.18" gradientTransform="matrix(1.04, -0.01, 0.01, 1, 91.21, -31.27)" xlink:href="#a"/><linearGradient id="i" x1="650.05" y1="229.84" x2="-957.97" y2="-308.44" gradientTransform="matrix(1, 0, 0, 1, 0, 0)" xlink:href="#f"/><linearGradient id="j" x1="765.76" y1="240.46" x2="-222.22" y2="782.88" xlink:href="#a"/><linearGradient id="k" x1="1054.5" y1="-294.92" x2="380.56" y2="385.29" gradientTransform="matrix(1.04, -0.01, 0.01, 1, 91.21, -31.27)" xlink:href="#a"/><linearGradient id="l" x1="699.03" y1="94.71" x2="792.4" y2="94.71" gradientTransform="matrix(1, 0, 0, 1, 0, 0)" xlink:href="#f"/><linearGradient id="m" x1="782.22" y1="270.45" x2="-205.76" y2="812.87" xlink:href="#a"/><linearGradient id="n" x1="80.46" y1="515.26" x2="193.82" y2="515.26" gradientTransform="matrix(1, 0, 0, 1, 0, 0)" xlink:href="#f"/><linearGradient id="o" x1="829.13" y1="355.89" x2="-158.85" y2="898.31" xlink:href="#a"/><linearGradient id="p" x1="670.94" y1="282.8" x2="715.43" y2="282.8" gradientTransform="matrix(1, 0, 0, 1, 0, 0)" xlink:href="#f"/><linearGradient id="q" x1="910.79" y1="504.62" x2="-77.2" y2="1047.04" gradientTransform="matrix(0.07, 1, -1, 0.07, 1452.85, -1013.98)" xlink:href="#a"/><linearGradient id="r" x1="1309.09" y1="-42.68" x2="635.15" y2="637.54" gradientTransform="matrix(0.03, 1.04, -1, 0.03, 1373.37, -905.3)" xlink:href="#a"/><linearGradient id="s" x1="1153.09" y1="181.63" x2="1197.57" y2="181.63" gradientTransform="translate(1340.85 -996.07) rotate(89.22)" xlink:href="#f"/><linearGradient id="t" x1="714.4" y1="146.9" x2="-273.59" y2="689.32" xlink:href="#a"/><linearGradient id="u" x1="951.3" y1="-397.17" x2="277.36" y2="283.05" gradientTransform="matrix(1.04, -0.01, 0.01, 1, 91.21, -31.27)" xlink:href="#a"/><linearGradient id="v" x1="484.51" y1="107.97" x2="561.62" y2="107.97" gradientTransform="matrix(1, 0, 0, 1, 0, 0)" xlink:href="#f"/><linearGradient id="w" x1="812.8" y1="326.15" x2="-175.18" y2="868.57" gradientTransform="matrix(0.75, 0.67, -0.67, 0.75, 432.72, -568.39)" xlink:href="#a"/><linearGradient id="x" x1="1113.74" y1="-236.23" x2="439.8" y2="443.99" gradientTransform="matrix(0.75, 0.72, -0.7, 0.72, 451.55, -435.07)" xlink:href="#a"/><linearGradient id="y" x1="745.89" y1="201.8" x2="771.72" y2="201.8" gradientTransform="translate(364.94 -477.45) rotate(45)" xlink:href="#f"/><linearGradient id="z" x1="690.64" y1="103.64" x2="-297.34" y2="646.06" xlink:href="#a"/><linearGradient id="aa" x1="837.91" y1="-509.51" x2="163.98" y2="170.71" gradientTransform="matrix(1.04, -0.01, 0.01, 1, 91.21, -31.27)" xlink:href="#a"/><linearGradient id="ab" x1="59.29" y1="336" x2="70.53" y2="336" gradientTransform="matrix(1, 0, 0, 1, 0, 0)" xlink:href="#f"/><linearGradient id="ac" x1="712.42" y1="143.31" x2="-275.56" y2="685.73" gradientTransform="matrix(0.75, 0.67, -0.67, 0.75, 358.1, -46.85)" xlink:href="#a"/><linearGradient id="ad" x1="869.21" y1="-478.49" x2="195.28" y2="201.72" gradientTransform="matrix(0.75, 0.72, -0.7, 0.72, 376.92, 86.47)" xlink:href="#a"/><linearGradient id="ae" x1="79.03" y1="372.48" x2="104.85" y2="372.48" gradientTransform="translate(290.31 44.09) rotate(45)" xlink:href="#f"/></defs><title>Middel 3</title><g style="isolation:isolate"><path d="M1366,335.18c-137-22.44-276.61-109-407.37-71.69C890,283.09,832.37,334.42,762,346c-58.9,9.71-120.54-9.67-178.38,5.1-60.21,15.37-104.78,64.34-148.93,108.07-97.83,96.86-214.91,180.1-349.32,209.9-27.44,6.08-56.95,9.27-85.34,7.3V768H1366Z" style="fill:none"/><path d="M85.34,669.11c134.41-29.8,251.49-113,349.32-209.9,44.15-43.73,88.72-92.7,148.93-108.07,57.84-14.77,119.48,4.61,178.38-5.1,70.4-11.62,128-63,196.66-82.55,130.76-37.34,270.42,49.25,407.37,71.69V308.25c-124.09-19.43-243-136.71-369.67-119.41-65.3,8.92-123.76,49.56-189.67,51.51-44.86,1.33-88-15.52-132.66-20.17-78.85-8.23-156.64,22-225.91,59.26s-134.73,82.38-209.3,108.47C162.88,414.47,78,418.24,0,399.06V676.41C28.39,678.38,57.9,675.19,85.34,669.11ZM693.19,260.56a22.24,22.24,0,1,1-22.25,22.24A22.24,22.24,0,0,1,693.19,260.56Zm-556.05,198a56.68,56.68,0,1,1-56.68,56.68A56.68,56.68,0,0,1,137.14,458.58Z" style="fill:url(#a)"/><path d="M238.79,387.91c74.57-26.09,140-71.22,209.3-108.47S595.15,212,674,220.18c44.61,4.65,87.8,21.5,132.66,20.17,65.91-1.95,124.37-42.59,189.67-51.51,126.68-17.3,245.58,100,369.67,119.41V290.46c-21.34-4-42.1-11.67-61.12-21.27-23.2-11.71-45.46-26.56-60.66-48.5s-22.49-52-14.08-80.32S1265,87.69,1291.47,89c10.42.49,20,4.65,29,9.59,16.34,9,31.09,20.69,45.52,32.89V0H749.17a187.78,187.78,0,0,1-30.72,21.1A218.24,218.24,0,0,1,613.36,48.24c-48.94,0-98.83-16.38-145.95-3.17C426.8,56.45,395,88.34,371,123s-42.18,73.2-67.23,107.13a323.57,323.57,0,0,1-76.49,74.08c-17.6,12.13-37.42,22.81-58.79,23.16-17,.29-33.53-6.05-47.85-15.18C93,294.61,72.28,265.34,68.27,232.84s10.26-67.45,37.81-85.17c32.74-21,75.05-15.35,113.71-19.9,71-8.37,135.44-55.91,167.53-119.85,1.31-2.61,2.55-5.26,3.75-7.92H0V399.06C78,418.24,162.88,414.47,238.79,387.91Zm936.54-228.52a22.25,22.25,0,1,1-22.24,22.24A22.24,22.24,0,0,1,1175.33,159.39ZM758.8,214.71a12.92,12.92,0,1,1,12.92-12.91A12.91,12.91,0,0,1,758.8,214.71ZM745.71,48A46.68,46.68,0,1,1,699,94.71,46.69,46.69,0,0,1,745.71,48ZM523.06,69.42A38.55,38.55,0,1,1,484.51,108,38.55,38.55,0,0,1,523.06,69.42ZM64.91,341.62A5.62,5.62,0,1,1,70.53,336,5.62,5.62,0,0,1,64.91,341.62ZM79,372.48A12.91,12.91,0,1,1,91.94,385.4,12.91,12.91,0,0,1,79,372.48Z" style="fill:url(#b)"/><path d="M238.79,387.91c74.57-26.09,140-71.22,209.3-108.47S595.15,212,674,220.18c44.61,4.65,87.8,21.5,132.66,20.17,65.91-1.95,124.37-42.59,189.67-51.51,126.68-17.3,245.58,100,369.67,119.41V290.46c-21.34-4-42.1-11.67-61.12-21.27-23.2-11.71-45.46-26.56-60.66-48.5s-22.49-52-14.08-80.32S1265,87.69,1291.47,89c10.42.49,20,4.65,29,9.59,16.34,9,31.09,20.69,45.52,32.89V0H749.17a187.78,187.78,0,0,1-30.72,21.1A218.24,218.24,0,0,1,613.36,48.24c-48.94,0-98.83-16.38-145.95-3.17C426.8,56.45,395,88.34,371,123s-42.18,73.2-67.23,107.13a323.57,323.57,0,0,1-76.49,74.08c-17.6,12.13-37.42,22.81-58.79,23.16-17,.29-33.53-6.05-47.85-15.18C93,294.61,72.28,265.34,68.27,232.84s10.26-67.45,37.81-85.17c32.74-21,75.05-15.35,113.71-19.9,71-8.37,135.44-55.91,167.53-119.85,1.31-2.61,2.55-5.26,3.75-7.92H0V399.06C78,418.24,162.88,414.47,238.79,387.91Zm936.54-228.52a22.25,22.25,0,1,1-22.24,22.24A22.24,22.24,0,0,1,1175.33,159.39ZM758.8,214.71a12.92,12.92,0,1,1,12.92-12.91A12.91,12.91,0,0,1,758.8,214.71ZM745.71,48A46.68,46.68,0,1,1,699,94.71,46.69,46.69,0,0,1,745.71,48ZM523.06,69.42A38.55,38.55,0,1,1,484.51,108,38.55,38.55,0,0,1,523.06,69.42ZM64.91,341.62A5.62,5.62,0,1,1,70.53,336,5.62,5.62,0,0,1,64.91,341.62ZM79,372.48A12.91,12.91,0,1,1,91.94,385.4,12.91,12.91,0,0,1,79,372.48Z" style="fill:url(#c)"/><path d="M1291.47,89c-26.47-1.27-52.93,23.1-61.33,51.41s-1.12,58.37,14.08,80.32,37.46,36.79,60.66,48.5c19,9.6,39.78,17.25,61.12,21.27v-159c-14.43-12.2-29.18-23.89-45.52-32.89C1311.52,93.61,1301.89,89.45,1291.47,89Z" style="fill:url(#d)"/><path d="M1291.47,89c-26.47-1.27-52.93,23.1-61.33,51.41s-1.12,58.37,14.08,80.32,37.46,36.79,60.66,48.5c19,9.6,39.78,17.25,61.12,21.27v-159c-14.43-12.2-29.18-23.89-45.52-32.89C1311.52,93.61,1301.89,89.45,1291.47,89Z" style="fill:url(#e)"/><path d="M1291.47,89c-26.47-1.27-52.93,23.1-61.33,51.41s-1.12,58.37,14.08,80.32,37.46,36.79,60.66,48.5c19,9.6,39.78,17.25,61.12,21.27v-159c-14.43-12.2-29.18-23.89-45.52-32.89C1311.52,93.61,1301.89,89.45,1291.47,89Z" style="mix-blend-mode:soft-light;fill:url(#f)"/><path d="M219.79,127.77c-38.66,4.55-81-1.15-113.71,19.9-27.55,17.72-41.81,52.66-37.81,85.17S93,294.61,120.66,312.21c14.32,9.13,30.88,15.47,47.85,15.18,21.37-.35,41.19-11,58.79-23.16a323.57,323.57,0,0,0,76.49-74.08C328.84,196.22,347,157.7,371,123s55.78-66.57,96.39-77.95c47.12-13.21,97,3.18,146,3.17A218.24,218.24,0,0,0,718.45,21.1,187.78,187.78,0,0,0,749.17,0H391.07c-1.2,2.66-2.44,5.31-3.75,7.92C355.23,71.86,290.84,119.4,219.79,127.77Z" style="fill:url(#g)"/><path d="M219.79,127.77c-38.66,4.55-81-1.15-113.71,19.9-27.55,17.72-41.81,52.66-37.81,85.17S93,294.61,120.66,312.21c14.32,9.13,30.88,15.47,47.85,15.18,21.37-.35,41.19-11,58.79-23.16a323.57,323.57,0,0,0,76.49-74.08C328.84,196.22,347,157.7,371,123s55.78-66.57,96.39-77.95c47.12-13.21,97,3.18,146,3.17A218.24,218.24,0,0,0,718.45,21.1,187.78,187.78,0,0,0,749.17,0H391.07c-1.2,2.66-2.44,5.31-3.75,7.92C355.23,71.86,290.84,119.4,219.79,127.77Z" style="fill:url(#h)"/><path d="M219.79,127.77c-38.66,4.55-81-1.15-113.71,19.9-27.55,17.72-41.81,52.66-37.81,85.17S93,294.61,120.66,312.21c14.32,9.13,30.88,15.47,47.85,15.18,21.37-.35,41.19-11,58.79-23.16a323.57,323.57,0,0,0,76.49-74.08C328.84,196.22,347,157.7,371,123s55.78-66.57,96.39-77.95c47.12-13.21,97,3.18,146,3.17A218.24,218.24,0,0,0,718.45,21.1,187.78,187.78,0,0,0,749.17,0H391.07c-1.2,2.66-2.44,5.31-3.75,7.92C355.23,71.86,290.84,119.4,219.79,127.77Z" style="mix-blend-mode:soft-light;fill:url(#i)"/><path d="M745.71,141.39A46.68,46.68,0,1,0,699,94.71,46.69,46.69,0,0,0,745.71,141.39Z" style="fill:url(#j)"/><path d="M745.71,141.39A46.68,46.68,0,1,0,699,94.71,46.69,46.69,0,0,0,745.71,141.39Z" style="fill:url(#k)"/><path d="M745.71,141.39A46.68,46.68,0,1,0,699,94.71,46.69,46.69,0,0,0,745.71,141.39Z" style="mix-blend-mode:soft-light;fill:url(#l)"/><path d="M137.14,571.94a56.68,56.68,0,1,0-56.68-56.68A56.68,56.68,0,0,0,137.14,571.94Z" style="fill:url(#m)"/><path d="M137.14,571.94a56.68,56.68,0,1,0-56.68-56.68A56.68,56.68,0,0,0,137.14,571.94Z" style="mix-blend-mode:soft-light;fill:url(#n)"/><circle cx="693.19" cy="282.8" r="22.24" style="fill:url(#o)"/><circle cx="693.19" cy="282.8" r="22.24" style="mix-blend-mode:soft-light;fill:url(#p)"/><circle cx="1175.33" cy="181.63" r="22.24" transform="translate(977.62 1354.36) rotate(-89.22)" style="fill:url(#q)"/><circle cx="1175.33" cy="181.63" r="22.24" transform="translate(977.62 1354.36) rotate(-89.22)" style="fill:url(#r)"/><circle cx="1175.33" cy="181.63" r="22.24" transform="translate(977.62 1354.36) rotate(-89.22)" style="mix-blend-mode:soft-light;fill:url(#s)"/><path d="M523.06,146.52A38.55,38.55,0,1,0,484.51,108,38.55,38.55,0,0,0,523.06,146.52Z" style="fill:url(#t)"/><path d="M523.06,146.52A38.55,38.55,0,1,0,484.51,108,38.55,38.55,0,0,0,523.06,146.52Z" style="fill:url(#u)"/><path d="M523.06,146.52A38.55,38.55,0,1,0,484.51,108,38.55,38.55,0,0,0,523.06,146.52Z" style="mix-blend-mode:soft-light;fill:url(#v)"/><circle cx="758.8" cy="201.8" r="12.91" transform="translate(79.56 595.66) rotate(-45)" style="fill:url(#w)"/><circle cx="758.8" cy="201.8" r="12.91" transform="translate(79.56 595.66) rotate(-45)" style="fill:url(#x)"/><circle cx="758.8" cy="201.8" r="12.91" transform="translate(79.56 595.66) rotate(-45)" style="mix-blend-mode:soft-light;fill:url(#y)"/><path d="M64.91,330.39A5.62,5.62,0,1,0,70.53,336,5.62,5.62,0,0,0,64.91,330.39Z" style="fill:url(#z)"/><path d="M64.91,330.39A5.62,5.62,0,1,0,70.53,336,5.62,5.62,0,0,0,64.91,330.39Z" style="fill:url(#aa)"/><path d="M64.91,330.39A5.62,5.62,0,1,0,70.53,336,5.62,5.62,0,0,0,64.91,330.39Z" style="mix-blend-mode:soft-light;fill:url(#ab)"/><circle cx="91.94" cy="372.48" r="12.91" transform="translate(-236.46 174.11) rotate(-45)" style="fill:url(#ac)"/><circle cx="91.94" cy="372.48" r="12.91" transform="translate(-236.46 174.11) rotate(-45)" style="fill:url(#ad)"/><circle cx="91.94" cy="372.48" r="12.91" transform="translate(-236.46 174.11) rotate(-45)" style="mix-blend-mode:soft-light;fill:url(#ae)"/></g></svg>
