<svg xmlns="http://www.w3.org/2000/svg" viewBox="0 0 417.33 139.56"><title>truvisory</title><path d="M20.56,98.53c-4-2.21-8.35-4-12-6.72-11.39-8.44-11.42-26.23,0-34.65C17,51,25.85,45.41,34.53,39.61,51.9,28,69.31,16.44,86.63,4.76,92,1.12,97.78-.81,104.27.32,115,2.17,122.12,10.2,123,21.45c1,14,1.87,28,2.78,41.93a6.22,6.22,0,0,1-.08,1,13.44,13.44,0,0,1-1.38-2,27.11,27.11,0,0,0-7.13-9.6,14.39,14.39,0,0,0-10-4.05,24.72,24.72,0,0,0-13.31,4.16C86.62,57.48,79.5,62.3,72.36,67.09c-9.18,6.17-18.23,12.55-27.53,18.52-7.33,4.71-14.71,9.45-23.22,11.93C21.2,97.66,20.91,98.19,20.56,98.53Z" style="fill:#99a5b7"/><path d="M126.2,69.86c2.6.74,5.19,1.55,7.81,2.22,6.53,1.66,13,3.56,19.63,4.82,9,1.7,13.93,13,5.91,21.21q-11.24,11.48-22.43,23c-4.07,4.18-8.21,8.3-12.19,12.57a13.73,13.73,0,0,1-10.72,4.61,10.65,10.65,0,0,0-1.08-.38,12.23,12.23,0,0,1-9.51-9.22c-1-3.29-1.81-6.6-2.75-9.89-1.66-5.84-3.35-11.66-5-17.49a10.82,10.82,0,0,0-.18-1.14Q92.86,90.07,90,80a12.05,12.05,0,0,1,13.64-15.27c3.13.54,6.18,1.45,9.28,2.16C117.36,67.87,121.78,68.86,126.2,69.86Z" style="fill:#99a5b7"/><path d="M126.2,69.86c-4.42-1-8.84-2-13.25-3-3.1-.71-6.15-1.62-9.28-2.16A12.05,12.05,0,0,0,90,80q2.82,10.11,5.63,20.2a10.82,10.82,0,0,1,.18,1.14c-4.18,2.92-8.43,5.73-12.51,8.77-4.87,3.62-9.9,6.82-15.92,8.15-1.73.38-3.47.72-5.2,1.08q-12.87-6.36-25.73-12.72c-5.32-2.65-10.61-5.37-15.92-8,.35-.34.64-.87,1.05-1,8.51-2.48,15.89-7.22,23.22-11.93,9.3-6,18.35-12.35,27.53-18.52,7.14-4.79,14.26-9.61,21.51-14.24a24.72,24.72,0,0,1,13.31-4.16,14.39,14.39,0,0,1,10,4.05,27.11,27.11,0,0,1,7.13,9.6,13.44,13.44,0,0,0,1.38,2C125.85,66.18,126,68,126.2,69.86Z" style="fill:#8792a0"/><path d="M62.21,119.3c1.73-.36,3.47-.7,5.2-1.08,6-1.33,11-4.53,15.92-8.15,4.08-3,8.33-5.85,12.51-8.77,1.68,5.83,3.37,11.65,5,17.49.94,3.29,1.8,6.6,2.75,9.89a12.23,12.23,0,0,0,9.51,9.22,10.65,10.65,0,0,1,1.08.38,20.47,20.47,0,0,1-16.44-.95C85.89,131.37,74.06,125.32,62.21,119.3Z" style="fill:#748799"/><path d="M408.65,44.19h8.68c-.24.7-.41,1.34-.67,1.94-5.33,12.35-10.69,24.68-16,37A2.37,2.37,0,0,1,398,84.92c-2.17-.16-4.37,0-6.89,0a61.28,61.28,0,0,1,3.22-7.46c2.49-4.19,2.39-8,.28-12.48-2.9-6.11-5.1-12.57-7.6-18.88-.23-.58-.44-1.17-.72-1.91,2.86,0,5.51.07,8.16,0,1.18,0,1.56.47,1.88,1.44,1.59,4.79,3.22,9.56,4.85,14.33.2.59.44,1.17.82,2.15C404.28,55.83,406.46,50,408.65,44.19Z" style="fill:#99a5b7"/><path d="M246.35,71.63V68c-3.63,4.27-8,4.9-12.63,3.13a8.93,8.93,0,0,1-5.95-8c-.35-6.26-.09-12.55-.09-18.87h8.16c0,2.83,0,5.6,0,8.37,0,2.4-.1,4.8.07,7.19.21,3.22,2.23,5,5.36,4.92s5-1.92,5.08-5.17c.09-4.41,0-8.82.05-13.23v-2h8.37V71.63Z" style="fill:#99a5b7"/><path d="M349,43.92c8.44,0,14.4,5.84,14.35,14.06s-6.11,14.16-14.39,14.09-14.39-6-14.41-14.15S340.54,43.92,349,43.92Zm5.89,14a23.51,23.51,0,0,0-.59-3A5.65,5.65,0,0,0,345.82,52c-3.79,2.52-3.6,9.73.34,12a5.81,5.81,0,0,0,2.18.7C352.15,65.14,354.71,62.39,354.84,58Z" style="fill:#99a5b7"/><path d="M330.67,53c-2.59,0-5.11,0-7.63,0a1.5,1.5,0,0,1-1-.59,4.48,4.48,0,0,0-5.71-1.41,1.66,1.66,0,0,0,.18,3.08,27.86,27.86,0,0,0,4.25,1.3c1.8.53,3.64.95,5.4,1.58a7,7,0,0,1,2.5,11.8c-4.57,4.48-14.48,4.61-18.91,0-1.34-1.38-2-3.45-3.17-5.69,3.34,0,5.91,0,8.48,0a1.59,1.59,0,0,1,1,.65A3.89,3.89,0,0,0,321.26,65a2.81,2.81,0,0,0,1.37-1.88,2.44,2.44,0,0,0-1.42-1.75c-2.45-.81-5-1.41-7.49-2.06-4.14-1.06-6.32-3.21-6.5-6.46A8,8,0,0,1,312.78,45c4.78-1.7,9.57-1.69,14,1A7.68,7.68,0,0,1,330.67,53Z" style="fill:#99a5b7"/><path d="M274.08,64.59l6.26-20.37h9c-1.37,3.9-2.7,7.66-4,11.42-1.72,4.87-3.48,9.73-5.16,14.62-.36,1.07-.81,1.53-2,1.49-3.11-.1-6.23,0-9.5,0-3.24-9.1-6.48-18.21-9.76-27.46h9C269.82,50.79,271.86,57.42,274.08,64.59Z" style="fill:#99a5b7"/><path d="M183.83,71.57v-28h-9.41V37.19h27.26v6.25H192.3V71.57Z" style="fill:#99a5b7"/><path d="M215.19,71.63h-8.36V44.27h8.33V49.1c2.14-3,4.2-5.21,7.82-5.1v8.52c-.81,0-1.51,0-2.21,0-3.88.19-5.46,1.72-5.55,5.71C215.11,62.64,215.19,67.05,215.19,71.63Z" style="fill:#99a5b7"/><path d="M385.07,44V52.4c-.9.05-1.79.09-2.68.15-3.41.23-5,1.72-5.07,5.12-.1,4.59,0,9.18,0,13.91h-8.46V44.29h8.35V49C379.33,46.15,381.39,43.87,385.07,44Z" style="fill:#99a5b7"/><path d="M293.29,44.25h8.27V71.64h-8.27Z" style="fill:#99a5b7"/><path d="M355.91,98a18.39,18.39,0,0,1-3.07-1.79,5.89,5.89,0,0,0-6.87-.56,6.24,6.24,0,0,0-2.22,7.25,5.46,5.46,0,0,0,5.86,3.8c2.76-.27,4.34-1.85,4.77-5-1.67,0-3.32.08-5,0-.45,0-.87-.64-1.31-1l.36-.47h8.07a7.25,7.25,0,0,1-5.87,8.12,7.74,7.74,0,0,1-9.12-5.64,7.66,7.66,0,0,1,5.24-9.35C350.65,92.22,355.12,94.09,355.91,98Z" style="fill:#99a5b7"/><path d="M330,108.18c-1.46.51-2.2-.18-2.91-1.28-2.13-3.32-4.36-6.59-6.56-9.87-.06-.08-.19-.12-.41-.26v11.45l-2,.11V93.27c1.3-.48,2.08,0,2.82,1.15,2.19,3.43,4.49,6.79,7.06,10.63V93.22h2Z" style="fill:#99a5b7"/><path d="M219.07,100.73a7.47,7.47,0,0,1-7.73,7.7,7.72,7.72,0,1,1,0-15.44A7.47,7.47,0,0,1,219.07,100.73Zm-13.38-.12c0,3.55,2.27,6,5.61,6.08a6,6,0,0,0,.19-12C208.13,94.65,205.72,97.09,205.69,100.61Z" style="fill:#99a5b7"/><path d="M280.28,93.18h1.87v6.53h7.59V93.23h2v15h-2v-6.69h-7.6v6.66h-1.92Z" style="fill:#99a5b7"/><path d="M297.33,42.51a4.95,4.95,0,1,1,5-4.83A4.95,4.95,0,0,1,297.33,42.51Z" style="fill:#99a5b7"/><path d="M229.7,108.13c1.72-4.72,3.39-9.46,5.23-14.13.24-.59,1.41-.81,2.31-1.28l5.59,15.39c-1.54.62-2.34,0-2.6-1.43a1.87,1.87,0,0,0-2.45-1.72,6.71,6.71,0,0,1-1.95,0c-2.05-.3-3.43.21-3.93,2.49-.11.49-1.21.77-1.85,1.14Zm6.56-12.59c-1,2.88-1.85,5.25-2.73,7.73H239Z" style="fill:#99a5b7"/><path d="M267.7,97.74A14.2,14.2,0,0,1,265,96.17a5.78,5.78,0,0,0-7.18-.3,6.44,6.44,0,0,0-.84,8.89c2.22,2.57,5.78,2.51,8.41,0,.6-.57,1.64-.65,2.76-1.06a7.3,7.3,0,0,1-8.61,4.56,7.77,7.77,0,0,1,0-15.15C263.44,92.42,266.77,94.06,267.7,97.74Z" style="fill:#99a5b7"/><path d="M191.84,97.71a13.67,13.67,0,0,1-2.55-1.5,5.73,5.73,0,0,0-6.51-.78c-2.27,1.23-3,3.27-2.9,5.71a5.3,5.3,0,0,0,3.51,5.13,5.45,5.45,0,0,0,6.22-1.44c.56-.58,1.6-.69,2.69-1.12-1.13,3.5-4.31,5.14-8.17,4.61a7.75,7.75,0,0,1-.48-15.16C187.41,92.41,191.47,94.15,191.84,97.71Z" style="fill:#99a5b7"/><path d="M304,93.15h1.8v15.07l-1.8.09Z" style="fill:#99a5b7"/></svg>