<svg xmlns="http://www.w3.org/2000/svg" viewBox="0 0 424.73 305.94"><title>vivid_health</title><path d="M287.58,134.46v3.19q0,27.75,0,55.49c0,3.14-.65,4-3.68,4.57a14.63,14.63,0,0,1-2.73.18H224.92c-.67,0-1.34,0-2,0-6-.51-6.72-1.27-6.72-7.23V134.46H159c-3.89,0-6.33-2.39-6.33-6.36q0-28.74,0-57.49c0-4.73,2.53-7.14,7.22-7.14H216.2V60.39c0-18.16.06-36.33-.06-54.49,0-2.75,1-4.28,3.48-4.92a21,21,0,0,1,5.11-.91c18.83-.07,37.66,0,56.49,0,4.81,0,6.36,1.59,6.36,6.44v57h59.14c3.36,0,3.59.17,4.18,3.52a15.53,15.53,0,0,1,.17,2.73q0,29.49,0,59A16.72,16.72,0,0,1,351,131c-.39,3-.94,3.51-4,3.51H287.58Z" style="fill:#99a5b7"/><path d="M204.09,168.92c0,8.9,0,17.12-.07,25.35a3.24,3.24,0,0,1-1.66,2.4,14.6,14.6,0,0,1-5.3,1.2c-19.49.08-39,0-58.48,0a10.44,10.44,0,0,1-2.23-.25c-3-.67-3.67-1.5-3.67-4.63V134.49H73.84c-3.41,0-4.07-.54-4.54-3.87a21.24,21.24,0,0,1-.12-3V71.14c0-7.33.38-7.71,7.67-7.71h38.27c-.38,2.4-.72,4.56-1.05,6.73-1.85,12.35.82,23.8,6.74,34.65a69.92,69.92,0,0,0,11.71,15.46c18.25,18.62,36.36,37.39,54.6,56a6.93,6.93,0,0,0,3.4,1.34c4.36,1,7.41-.94,9.77-4.52A41.43,41.43,0,0,1,204.09,168.92Z" style="fill:#99a5b7"/><path d="M132.68,38.55c0-11.94-.07-23,.1-34.08A5,5,0,0,1,135.09,1a9.13,9.13,0,0,1,4.52-1q28.09-.09,56.2,0a13.77,13.77,0,0,1,2.49.13c4.82.87,5.8,2.07,5.8,6.93,0,7.33,0,14.66,0,22a2.44,2.44,0,0,1-1.83,2.74c-2.55,1-5,2.33-7.52,3.3a3.59,3.59,0,0,1-2.68-.26c-7.58-4-15.55-6.93-24.12-7.56-9.48-.7-18.56.87-26.71,6.26C138.68,35.24,135.9,36.68,132.68,38.55Z" style="fill:#99a5b7"/><path d="M129.78,263.37c9,.54,17.94.58,26.7,1.76,7.9,1.06,12.25,6.23,13.09,14.18a48.93,48.93,0,0,1-.1,11.41c-1.11,8.65-6.61,13.43-16.32,14.64a58.33,58.33,0,0,1-6.47.5c-5.56.07-11.13,0-16.9,0Zm12.91,21c0,3.58,0,7.15,0,10.73,0,1.22.35,1.89,1.69,1.83,2.48-.13,5-.22,7.46-.32a3.15,3.15,0,0,0,3.35-3.26c.23-3.9.6-7.8.51-11.68-.17-7.16-4-10.31-11.16-9.74-1.38.11-1.89.59-1.86,2C142.74,277.43,142.69,280.92,142.69,284.41Z" style="fill:#99a5b7"/><path d="M225.24,264.07v41.74H212.19V287.88H200.61v17.87H187.36V264h13.19v15.16H212V264.07Z" style="fill:#99a5b7"/><path d="M424.73,264v41.81h-13v-17.9H400.15v17.81H386.88V264H400v15.12h11.63V264Z" style="fill:#99a5b7"/><path d="M30.4,305.92c-6.15,0-12,0-18-.05a2,2,0,0,1-1.55-1.1Q5.37,284.7,0,264.58c0-.14.06-.31.14-.7,4.1,0,8.25-.08,12.39.09.56,0,1.4,1.2,1.56,2,2,9.51,4,19,6,28.56a3.68,3.68,0,0,0,1,2c2.24-10.8,4.47-21.6,6.73-32.49H41.7C37.93,278,34.19,291.84,30.4,305.92Z" style="fill:#99a5b7"/><path d="M90.8,264h13.9c-3.77,14-7.51,27.84-11.3,41.92-6.09,0-12.15,0-18.21-.05a1.85,1.85,0,0,1-1.31-1.1Q68.39,284.69,63,264.57c0-.13.06-.3.15-.69,4.09,0,8.24-.08,12.38.09.56,0,1.4,1.2,1.56,2,2.05,9.51,4,19,6,28.56a3.75,3.75,0,0,0,1,2C86.31,285.69,88.54,274.89,90.8,264Z" style="fill:#99a5b7"/><path d="M246.08,297H263v8.76H232.79V264.08H263v8.36H246.11v7.95h14.24v7.82H246.08Z" style="fill:#99a5b7"/><path d="M370.29,305.82h-13.1V273.1H345.38v-9H382V273H370.29Z" style="fill:#99a5b7"/><path d="M326,296.23h17.08v9.53H313V264h13Z" style="fill:#99a5b7"/><path d="M108.88,264h12.93v41.79H108.88Z" style="fill:#99a5b7"/><path d="M58.63,264.07v41.72H45.76V264.07Z" style="fill:#99a5b7"/><path d="M309,305c-4.07-13.18-8.12-26.37-12.29-39.51a3,3,0,0,0-2.24-1.53c-4.41-.15-8.83,0-13.23-.13-1.9-.07-2.54.72-3.06,2.36-3.92,12.36-7.94,24.68-11.91,37-.27.83-.45,1.69-.71,2.73,4.15,0,8.06.07,12-.07a2.49,2.49,0,0,0,1.66-1.52,43.91,43.91,0,0,0,1.45-5.8c.26-1.37.82-2,2.31-1.94,2.91.1,5.83.11,8.73,0,1.51-.06,2,.6,2.3,2,.5,2.43,1.16,4.83,1.76,7.27H309A3.18,3.18,0,0,0,309,305Zm-26.14-16.63c1.44-5.16,2.86-10.22,4.27-15.27l.5,0c1.34,5,2.67,10,4.06,15.24Z" style="fill:#99a5b7"/></svg>