<svg xmlns="http://www.w3.org/2000/svg" viewBox="0 0 272.2 302.14"><title>wripple</title><path d="M223.59,55.34c-2.35,7,1.6,10.46,7.62,14.12,24,14.6,30.49,45.41,14.89,68.69a49.36,49.36,0,0,1-19.8,16.78c-2.62,1.29-3.55,2.92-3.48,5.83.15,7.47.52,15-1.94,22.27-6.27,18.55-18.88,30.08-38.16,33.76a44.89,44.89,0,0,1-31.78-5.44c-3.53-2-7.16-3.92-10.69-6a3.4,3.4,0,0,0-3.91,0c-3.88,2.29-7.83,4.43-11.77,6.61a48.63,48.63,0,0,1-66.15-19.54,49.26,49.26,0,0,1-6-23.74c0-3.08-.15-6.17,0-9.24a4.56,4.56,0,0,0-2.84-4.92,53.47,53.47,0,0,1-17.67-14c-13.55-16.7-13.49-42.87,0-59.6A54.63,54.63,0,0,1,49.14,67.06a5.13,5.13,0,0,0,3.06-5.33,153.92,153.92,0,0,1,.28-18.23A48.75,48.75,0,0,1,125.57,6.69c3.39,2,6.84,3.83,10.08,6,2,1.36,3.49,1,5.43-.07,5.32-3.08,10.55-6.51,16.21-8.8,28.47-11.49,60.71,7,65.37,37.32C223.36,45.66,223.28,50.28,223.59,55.34Zm-160,55.26h.25c0,12.33,0,24.66,0,37a4.35,4.35,0,0,0,2.5,4.38q34.58,19.26,69.09,38.68a3.91,3.91,0,0,0,4.36,0q34.83-19.62,69.76-39.07a5.28,5.28,0,0,0,3.14-5.28q-.06-36,.12-72a4.4,4.4,0,0,0-2.49-4.36q-35.1-20.67-70.09-41.5a4.4,4.4,0,0,0-5.2-.08Q100.52,48.86,66,69.2a4.47,4.47,0,0,0-2.46,4.41C63.6,85.94,63.56,98.27,63.56,110.6ZM212.32,58c2-16.89-1.84-32.67-19.4-42.4-15.58-8.64-31.07-5-43.86,5Zm-148.44.24,63-37.28c-14.59-10.82-30.13-13.2-45-4.3C65.86,26.22,62,41.11,63.88,58.26Zm148,104.81-62.35,35c12.32,9.27,27.21,12.4,41.66,5.15C207,195.26,214.12,179.33,211.89,163.07Zm-147.55-.23c-2.32,15.08,4.39,30.83,18.27,38.8,15,8.62,31.23,5.37,43.7-4.08Zm159-19.51c10.71-4.87,20-17.9,19.75-33.27-.22-14.63-9.34-27.29-19.75-31.85ZM52.14,78c-10.51,4.61-20.38,18-19.82,34.11.53,15.24,10.78,27.82,19.82,31.24Z" style="fill:#99a5b7"/><path d="M42.56,302.08l-10.34-36c-.48,1.48-.81,2.43-1.1,3.4-3,10.12-6,20.24-8.92,30.39-.47,1.63-1.1,2.25-2.87,2.23-5.64-.07-5.64,0-7.32-5.37Q6.4,278.79.8,260.81C.55,260,.35,259.23,0,258a53.73,53.73,0,0,1,6.27.1c.55.06,1.17,1.23,1.4,2,3.17,10.77,6.28,21.55,9.41,32.33.21.71.43,1.42.88,2.87.46-1.42.75-2.21,1-3,3-10.54,6.13-21.07,9.07-31.65.57-2.05,1.44-2.78,3.59-2.7,4.36.16,4.36,0,5.57,4.26q4.47,15.45,8.95,30.9c.18.61.4,1.22.76,2.32,2.1-7.25,4.08-14,6-20.79,1.36-4.72,2.82-9.41,4-14.16.51-2,1.44-2.76,3.46-2.51a33.33,33.33,0,0,0,4,0c-.27,1.05-.45,1.83-.69,2.58-4.21,13.14-8.47,26.27-12.62,39.43-.52,1.66-1.24,2.29-3,2.15S44.51,302.08,42.56,302.08Z" style="fill:#99a5b7"/><path d="M77.3,283.82v18.06H70.61V258.43c.13-.12.25-.32.37-.32,8.06.23,16.14.19,24.16.86,4.49.38,6.19,2.95,6.39,7.52.09,2.07,0,4.16,0,6.24,0,5.5-2.08,8.12-7.39,9.35-1.12.26-2.25.43-3.71.71l13.82,19.26c-2.9,0-5.33.11-7.75-.08-.61-.05-1.25-1-1.7-1.63-3-4.4-6-8.84-8.93-13.26C83.17,283,82.53,282.75,77.3,283.82Zm.09-4.76c4.48-.23,8.79-.29,13.06-.73,2.86-.3,4-1.79,4.18-4.68.11-1.9.11-3.82.05-5.73-.1-2.91-1.15-4.46-4-4.79-4.34-.5-8.73-.53-13.25-.77Z" style="fill:#99a5b7"/><path d="M136.64,302h-6.82c0-.91-.14-1.72-.14-2.53,0-12.9,0-25.8-.05-38.69,0-2.13.49-2.95,2.77-2.84,6.14.3,12.31.11,18.43.6,6.55.51,8.87,3.36,8.88,9.89,0,2.74,0,5.49-.07,8.23-.08,3.84-1.94,6.78-5.54,7.74a91,91,0,0,1-12.48,1.92,43,43,0,0,1-5,0Zm0-19.57c4.51-.54,8.7-.86,12.81-1.61,2.35-.43,3.56-2.33,3.58-4.79,0-2.91,0-5.82,0-8.73a3.93,3.93,0,0,0-2.86-3.95c-4.43-1.49-8.95-.81-13.52-.73Z" style="fill:#99a5b7"/><path d="M168.36,257.68c7.52.3,14.76.3,21.94,1,5.68.53,7.87,3.49,7.91,9.23,0,2.91,0,5.82-.07,8.73-.07,3.84-1.92,6.79-5.52,7.76a92.57,92.57,0,0,1-12.48,1.92,43.19,43.19,0,0,1-5,0v15.55h-6.79Zm6.89,4.5v20.17c4.3-.48,8.35-.76,12.32-1.45,2.71-.47,4-2.51,4-5.28,0-2.58,0-5.15,0-7.73s-1.21-4.48-3.74-4.8C183.71,262.58,179.57,262.47,175.25,262.18Z" style="fill:#99a5b7"/><path d="M271.45,262.87H248.89v14h20.38c.1,1,.14,1.67.24,2.38.28,1.95-.5,2.61-2.49,2.56-5.08-.13-10.16,0-15.24,0h-3c0,5-.05,9.72.09,14.43,0,.4,1.29,1.09,2,1.1,6.16.09,12.33.05,18.49.05h2.9v4.56h-30V258.15h29.3Z" style="fill:#99a5b7"/><path d="M235,297.24v4.69H206.85V258.36c.32-.17.46-.3.61-.31,6.1-.47,6.1-.47,6.1,5.53v33.66Z" style="fill:#99a5b7"/><path d="M112.05,258.08h6.35v43.78h-6.35Z" style="fill:#99a5b7"/><path d="M94.21,111.1c0-8.66.12-17.33,0-26-.29-17.4,14.78-28.27,28.22-27a32.87,32.87,0,0,1,11.12,3.33c15.32,7.53,30.35,15.69,45.76,23a24.67,24.67,0,0,1,3.78,42.83c-5.72,4-11.72,7.62-17.63,11.38-10.54,6.7-21.07,13.43-31.68,20-8.23,5.11-16.9,6-25.69,1.62s-13.23-11.75-13.45-21.47c-.21-9.24-.05-18.5-.05-27.75Zm88.33-4c0-5.9-2.76-9.76-7.63-12.23-15.66-7.94-31.3-15.94-47-23.8-10.63-5.33-22.4,1.83-22.38,13.69q.06,26.85.54,53.7a15,15,0,0,0,1.7,6.66c3.61,6.67,12.55,8.69,19.37,4.47,8.56-5.3,17-10.75,25.53-16.16,8.07-5.15,16.17-10.24,24.14-15.53C180.68,115.33,182.32,111.36,182.54,107.1Z" style="fill:#99a5b7"/></svg>